# Blender v2.78 (sub 0) OBJ File: ''
# www.blender.org
mtllib IKEA.ART.50221042.mtl
o model_model.018
v 0.291462 0.291478 0.009000
v 0.291462 -0.291478 0.009000
v 0.243485 -0.243494 0.004381
v 0.247266 -0.249005 0.009000
v 0.243485 0.243494 0.004381
v 0.247266 0.249005 0.009000
v 0.218447 0.218460 0.009000
v 0.233948 0.233961 0.004354
v 0.233948 -0.233961 0.004354
v 0.218447 -0.218460 0.009000
v 0.298491 0.298500 0.003394
v 0.298491 -0.298500 0.003394
v -0.000004 0.243494 0.004381
v -0.000004 0.233961 0.004354
v -0.000004 0.218460 0.009000
v -0.000004 -0.233961 0.004354
v -0.000004 -0.249005 0.009000
v -0.000004 -0.218460 0.009000
v -0.000004 -0.291478 0.009000
v -0.000004 0.298500 0.003394
v -0.000004 -0.298500 0.003394
v -0.291471 0.291478 0.009000
v -0.298500 0.298500 0.003394
v -0.233957 0.233961 0.004354
v -0.218456 0.218460 0.009000
v -0.247275 0.249005 0.009000
v -0.243494 0.243494 0.004381
v -0.291471 -0.291478 0.009000
v -0.298500 -0.298500 0.003394
v -0.233957 -0.233961 0.004354
v -0.218456 -0.218460 0.009000
v -0.247275 -0.249005 0.009000
v -0.243494 -0.243494 0.004381
v -0.000004 0.249005 0.009000
v -0.000004 0.291478 0.009000
v -0.000004 -0.243494 0.004381
v 0.298500 0.298500 -0.009000
v 0.298491 -0.298500 -0.009000
v -0.000004 0.298500 -0.009000
v -0.000004 -0.298500 -0.009000
v -0.298497 0.298500 -0.009000
v -0.298497 -0.298500 -0.009000
v -0.291765 0.256441 0.003816
v -0.291765 0.256441 -0.009000
v -0.281935 0.266271 0.003816
v -0.281935 0.266271 -0.009000
v -0.269052 0.266271 0.003816
v -0.269052 0.266271 -0.009000
v -0.259222 0.256441 0.003816
v -0.259222 0.256441 -0.009000
v -0.259222 0.243558 0.003816
v -0.259222 0.243558 -0.009000
v -0.269052 0.233728 0.003816
v -0.269052 0.233728 -0.009000
v -0.281935 0.233728 0.003816
v -0.281935 0.233728 -0.009000
v -0.291765 0.243558 0.003816
v -0.291765 0.243558 -0.009000
v -0.291765 -0.243558 0.003816
v -0.291765 -0.243558 -0.009000
v -0.291765 -0.256441 -0.009000
v -0.291765 -0.256441 0.003816
v -0.281935 -0.266271 -0.009000
v -0.281935 -0.266271 0.003816
v -0.269052 -0.266271 -0.009000
v -0.269052 -0.266271 0.003816
v -0.259222 -0.256441 -0.009000
v -0.259222 -0.256441 0.003816
v -0.259222 -0.243558 -0.009000
v -0.259222 -0.243558 0.003816
v -0.269052 -0.233728 -0.009000
v -0.269052 -0.233728 0.003816
v -0.281935 -0.233728 -0.009000
v -0.281935 -0.233728 0.003816
v 0.233948 0.045353 0.004354
v -0.298497 0.045353 -0.009000
v -0.273255 0.045353 -0.009000
v -0.285644 0.045353 -0.009000
v 0.291462 0.045353 0.009000
v 0.247266 0.045353 0.009000
v 0.243485 0.045353 0.004381
v 0.218447 0.045353 0.009000
v 0.298491 0.045353 0.003394
v -0.233957 0.045353 0.004354
v -0.218456 0.045353 0.009000
v -0.247275 0.045353 0.009000
v -0.243494 0.045353 0.004381
v -0.000004 0.045353 0.009000
v 0.298495 0.045353 -0.009000
v -0.298500 0.045353 0.003394
v -0.291471 0.045353 0.009000
v 0.298500 0.298500 -0.009000
v 0.298500 0.298500 -0.009000
v -0.298497 -0.298500 -0.009000
v -0.298497 -0.298500 -0.009000
v -0.269052 0.266271 0.003816
v -0.269052 0.266271 -0.009000
v -0.269052 0.266271 0.003816
v -0.269052 0.233728 -0.009000
v -0.281935 0.233728 -0.009000
v -0.269052 0.233728 -0.009000
v -0.281935 -0.233728 0.003816
v -0.281935 -0.233728 -0.009000
v -0.281935 -0.233728 0.003816
v -0.269052 -0.233728 -0.009000
v -0.269052 -0.233728 -0.009000
v -0.281935 -0.233728 -0.009000
v -0.281935 0.266271 0.003816
v -0.269052 0.266271 0.003816
v -0.259222 0.256441 0.003816
v -0.259222 0.256441 0.003816
v -0.259222 0.243558 0.003816
v -0.269052 0.233728 0.003816
v -0.269052 0.233728 0.003816
v -0.281935 0.233728 0.003816
v -0.291765 0.243558 0.003816
v -0.259222 0.256441 0.003816
v -0.269052 0.233728 0.003816
v -0.291765 0.243558 0.003816
v -0.281935 0.266271 0.003816
v -0.259222 0.256441 0.003816
v -0.291765 0.243558 0.003816
v -0.291765 0.256441 0.003816
v -0.281935 0.266271 0.003816
v -0.291765 0.243558 0.003816
v -0.281935 -0.233728 0.003816
v -0.269052 -0.233728 0.003816
v -0.259222 -0.243558 0.003816
v -0.259222 -0.243558 0.003816
v -0.259222 -0.256441 0.003816
v -0.269052 -0.266271 0.003816
v -0.269052 -0.266271 0.003816
v -0.281935 -0.266271 0.003816
v -0.291765 -0.256441 0.003816
v -0.259222 -0.243558 0.003816
v -0.269052 -0.266271 0.003816
v -0.291765 -0.256441 0.003816
v -0.281935 -0.233728 0.003816
v -0.259222 -0.243558 0.003816
v -0.291765 -0.256441 0.003816
v -0.291765 -0.243558 0.003816
v -0.281935 -0.233728 0.003816
v -0.291765 -0.256441 0.003816
v -0.269052 0.266271 -0.009000
v -0.281935 0.266271 -0.009000
v -0.298497 0.298500 -0.009000
v -0.298497 0.298500 -0.009000
v -0.000004 0.298500 -0.009000
v -0.269052 0.266271 -0.009000
v -0.269052 -0.266271 -0.009000
v -0.000004 -0.298500 -0.009000
v -0.298497 -0.298500 -0.009000
v -0.298497 -0.298500 -0.009000
v -0.281935 -0.266271 -0.009000
v -0.269052 -0.266271 -0.009000
v -0.269052 0.233728 -0.009000
v -0.259222 0.243558 -0.009000
v -0.259222 0.256441 -0.009000
v -0.269052 0.266271 -0.009000
v -0.000004 0.298500 -0.009000
v -0.259222 0.243558 -0.009000
v -0.259222 0.256441 -0.009000
v -0.000004 0.298500 -0.009000
v -0.259222 0.243558 -0.009000
v -0.000004 0.298500 -0.009000
v -0.000004 0.298500 -0.009000
v 0.298500 0.298500 -0.009000
v 0.298500 0.298500 -0.009000
v 0.298495 0.045353 -0.009000
v -0.298497 0.298500 -0.009000
v -0.298497 0.298500 -0.009000
v -0.281935 0.266271 -0.009000
v -0.291765 0.256441 -0.009000
v -0.298497 0.045353 -0.009000
v -0.298497 0.298500 -0.009000
v -0.291765 0.256441 -0.009000
v -0.298497 0.045353 -0.009000
v -0.291765 0.256441 -0.009000
v -0.291765 0.243558 -0.009000
v -0.298497 0.045353 -0.009000
v -0.291765 0.243558 -0.009000
v -0.281935 0.233728 -0.009000
v -0.298497 0.045353 -0.009000
v -0.281935 0.233728 -0.009000
v 0.298491 -0.298500 -0.009000
v 0.298495 0.045353 -0.009000
v 0.298491 -0.298500 -0.009000
v -0.000004 -0.298500 -0.009000
v -0.000004 -0.298500 -0.009000
v -0.269052 -0.266271 -0.009000
v -0.259222 -0.256441 -0.009000
v 0.298495 0.045353 -0.009000
v -0.000004 -0.298500 -0.009000
v -0.259222 -0.256441 -0.009000
v 0.298495 0.045353 -0.009000
v -0.259222 -0.256441 -0.009000
v -0.259222 -0.243558 -0.009000
v 0.298495 0.045353 -0.009000
v -0.259222 -0.243558 -0.009000
v -0.269052 -0.233728 -0.009000
v 0.298495 0.045353 -0.009000
v -0.269052 -0.233728 -0.009000
v -0.281935 -0.233728 -0.009000
v -0.291765 -0.243558 -0.009000
v -0.291765 -0.256441 -0.009000
v -0.281935 -0.266271 -0.009000
v -0.298497 -0.298500 -0.009000
v -0.291765 -0.243558 -0.009000
v -0.291765 -0.256441 -0.009000
v -0.298497 -0.298500 -0.009000
v -0.291765 -0.243558 -0.009000
v -0.298497 -0.298500 -0.009000
v -0.298497 -0.298500 -0.009000
v -0.298497 0.045353 -0.009000
vt 291.9654 -440.8258
vt 298.9941 -447.8477
vt 298.9941 -103.9977
vt 291.9654 -103.9977
vt 234.4518 84.8286
vt 234.4518 -103.9977
vt 243.9886 -103.9977
vt 243.9886 94.3614
vt 218.9509 -103.9977
vt 218.9509 -367.8084
vt 234.4518 -383.3092
vt 247.7694 -103.9977
vt 243.9886 -392.8421
vt 247.7694 -398.3527
vt 0.5000 84.8285
vt 0.5000 69.3278
vt 218.9509 69.3278
vt 0.5000 94.3614
vt 247.7694 99.8721
vt 291.9654 142.3451
vt 0.5000 142.3451
vt 0.5000 99.8721
vt 0.5000 -103.9977
vt 298.9941 149.3671
vt 0.5000 149.3671
vt 0.5000 -383.3092
vt 0.5000 -367.8084
vt 0.5000 -392.8421
vt 0.5000 -440.8257
vt 0.5000 -398.3527
vt 0.5000 -447.8477
vt -290.9654 142.3451
vt -297.9941 149.3672
vt -297.9941 -103.9976
vt -290.9654 -103.9977
vt -233.4518 84.8286
vt -242.9886 94.3614
vt -242.9886 -103.9977
vt -233.4518 -103.9977
vt -217.9509 -367.8084
vt -217.9509 -103.9977
vt -233.4518 -383.3092
vt -242.9886 -392.8422
vt -246.7694 -103.9977
vt -246.7694 -398.3527
vt -217.9509 69.3278
vt -246.7694 99.8721
vt -290.9654 -440.8257
vt -297.9941 -447.8477
vt 311.3728 -103.9977
vt 311.3728 149.3669
vt 299.0031 161.7457
vt 299.0031 161.7457
vt 0.5000 161.7458
vt 0.5000 -460.2263
vt 298.9941 -460.2263
vt -297.9910 161.7459
vt -310.3727 -103.9976
vt -310.3727 -447.8474
vt -297.9910 -460.2265
vt -297.9910 -460.2265
vt 269.5507 84.5957
vt 273.7534 -103.9978
vt 286.1422 -103.9978
vt 282.4340 84.5957
vt 269.5507 84.5957
vt 269.5507 -383.0767
vt 269.5507 -383.0767
vt 282.4340 -383.0767
vt 269.5507 117.1382
vt 282.4340 117.1382
vt 298.9955 149.3668
vt 298.9955 149.3668
vt 0.5045 149.3670
vt 269.5507 117.1382
vt 269.5507 -415.6192
vt 0.5045 -447.8478
vt 298.9955 -447.8475
vt 298.9955 -447.8475
vt 282.4340 -415.6192
vt 269.5507 -415.6192
vt 269.5507 84.5957
vt 259.7211 94.4253
vt 259.7211 107.3086
vt 269.5507 117.1382
vt 0.5045 149.3670
vt 259.7211 94.4253
vt 259.7211 107.3086
vt 0.5045 149.3670
vt 259.7211 94.4253
vt 0.5045 149.3670
vt 0.5045 149.3670
vt -297.9986 149.3668
vt -297.9986 149.3668
vt -297.9939 -103.9978
vt -310.3727 149.3669
vt 298.9955 149.3668
vt 282.4340 117.1382
vt 292.2637 107.3086
vt 298.9955 -103.9978
vt 298.9955 149.3668
vt 292.2637 107.3086
vt 298.9955 -103.9978
vt 292.2637 107.3086
vt 292.2637 94.4253
vt 298.9955 -103.9978
vt 292.2637 94.4253
vt 282.4340 84.5957
vt 298.9955 -103.9978
vt 282.4340 84.5957
vt 311.3727 -447.8477
vt -297.9939 -103.9978
vt -297.9896 -447.8478
vt 0.5045 -447.8478
vt 0.5045 -447.8478
vt 269.5507 -415.6192
vt 259.7211 -405.7896
vt -297.9939 -103.9978
vt 0.5045 -447.8478
vt 259.7211 -405.7896
vt -297.9939 -103.9978
vt 259.7211 -405.7896
vt 259.7211 -392.9063
vt -297.9939 -103.9978
vt 259.7211 -392.9063
vt 269.5507 -383.0767
vt -297.9939 -103.9978
vt 269.5507 -383.0767
vt 282.4340 -383.0767
vt 292.2637 -392.9063
vt 292.2637 -405.7896
vt 282.4340 -415.6192
vt 298.9955 -447.8475
vt 292.2637 -392.9063
vt 292.2637 -405.7896
vt 298.9955 -447.8475
vt 292.2637 -392.9063
vt 298.9955 -447.8475
vt 298.9955 -447.8475
vt 298.9955 -103.9978
vt 34.1630 -242.7307
vt 34.1630 -255.5307
vt 21.5066 -255.5307
vt 21.5066 -242.7307
vt 7.7932 -255.5307
vt 7.7932 -242.7307
vt -4.8632 -255.5307
vt -4.8632 -242.7307
vt 100.6161 -242.7307
vt 100.6161 -255.5307
vt 86.9027 -255.5307
vt 86.9027 -242.7307
vt 100.6161 -242.7307
vt 74.2463 -255.5307
vt 74.2463 -242.7307
vt 60.5329 -255.5307
vt 60.5329 -242.7307
vt 47.8764 -255.5307
vt 47.8764 -242.7307
vt 21.5065 -42.9500
vt 34.1629 -42.9500
vt 34.1629 -55.7500
vt 21.5065 -55.7500
vt 47.8764 -42.9500
vt 47.8764 -55.7500
vt 60.5329 -42.9500
vt 60.5329 -55.7500
vt 74.2465 -42.9500
vt 74.2465 -55.7500
vt 86.9028 -42.9500
vt 86.9028 -55.7500
vt 100.6161 -42.9500
vt 100.6161 -55.7500
vt 113.2725 -42.9500
vt 113.2725 -55.7500
vt 7.7932 -42.9500
vt 7.7932 -55.7500
vt 7.7932 -42.9500
vt 6.9414 717.1405
vt -5.9419 717.1405
vt -15.7715 707.3109
vt -15.7715 707.3109
vt -15.7715 694.4276
vt -5.9419 684.5980
vt -5.9419 684.5980
vt 6.9414 684.5980
vt 16.7711 694.4276
vt -15.7715 707.3109
vt -5.9419 684.5980
vt 16.7711 694.4276
vt 6.9414 717.1405
vt -15.7715 707.3109
vt 16.7711 694.4276
vt 16.7711 707.3109
vt 6.9414 717.1405
vt 16.7711 694.4276
vt 6.9419 -983.0788
vt -5.9414 -983.0788
vt -15.7711 -992.9084
vt -15.7711 -992.9084
vt -15.7711 -1005.7917
vt -5.9414 -1015.6213
vt -5.9414 -1015.6213
vt 6.9419 -1015.6213
vt 16.7715 -1005.7917
vt -15.7711 -992.9084
vt -5.9414 -1015.6213
vt 16.7715 -1005.7917
vt 6.9419 -983.0788
vt -15.7711 -992.9084
vt 16.7715 -1005.7917
vt 16.7715 -992.9084
vt 6.9419 -983.0788
vt 16.7715 -1005.7917
vn 0.6235 0.0000 0.7818
vn -0.0029 0.0000 1.0000
vn 0.2871 0.0000 0.9579
vn -0.7738 0.0000 0.6334
vn -0.0000 0.2871 0.9579
vn 0.0000 -0.0029 1.0000
vn 0.0000 0.0000 1.0000
vn 0.0000 -0.6424 0.7664
vn 0.0000 0.6239 0.7815
vn 0.0000 -0.2871 0.9579
vn -0.0000 0.0029 1.0000
vn -0.0000 0.6424 0.7664
vn 0.0000 -0.6239 0.7815
vn -0.6235 0.0000 0.7818
vn 0.0029 0.0000 1.0000
vn -0.2871 0.0000 0.9579
vn 0.7738 0.0000 0.6334
vn 1.0000 -0.0000 0.0003
vn 1.0000 0.0000 0.0007
vn 0.0000 1.0000 -0.0000
vn 0.0000 -1.0000 0.0000
vn -1.0000 -0.0000 -0.0003
vn 0.0000 0.0000 -1.0000
vn 1.0000 -0.0000 -0.0000
vn 0.7071 -0.7071 0.0000
vn -0.7071 -0.7071 0.0000
vn -1.0000 0.0000 0.0000
vn -0.7071 0.7071 0.0000
vn 0.7071 0.7071 0.0000
usemtl MAT005966V1-IKEA
s off
f 2/1/1 12/2/1 83/3/1
f 83/3/1 79/4/1 2/1/1
f 8/5/2 75/6/2 81/7/2
f 81/7/2 5/8/2 8/5/2
f 75/6/3 82/9/3 10/10/3
f 10/10/3 9/11/3 75/6/3
f 80/12/4 81/7/4 3/13/4
f 3/13/4 4/14/4 80/12/4
f 14/15/5 15/16/5 7/17/5
f 7/17/5 8/5/5 14/15/5
f 8/5/6 5/8/6 13/18/6
f 13/18/6 14/15/6 8/5/6
f 6/19/7 1/20/7 35/21/7
f 35/21/7 34/22/7 6/19/7
f 34/22/8 13/18/8 5/8/8
f 5/8/8 6/19/8 34/22/8
f 15/16/7 88/23/7 82/9/7
f 82/9/7 7/17/7 15/16/7
f 1/20/9 11/24/9 20/25/9
f 1/20/9 20/25/9 35/21/9
f 16/26/10 9/11/10 10/10/10
f 10/10/10 18/27/10 16/26/10
f 36/28/11 3/13/11 9/11/11
f 9/11/11 16/26/11 36/28/11
f 19/29/7 2/1/7 4/14/7
f 4/14/7 17/30/7 19/29/7
f 4/14/12 3/13/12 36/28/12
f 36/28/12 17/30/12 4/14/12
f 10/10/7 82/9/7 88/23/7
f 88/23/7 18/27/7 10/10/7
f 21/31/13 12/2/13 2/1/13
f 2/1/13 19/29/13 21/31/13
f 22/32/14 23/33/14 90/34/14
f 90/34/14 91/35/14 22/32/14
f 24/36/15 27/37/15 87/38/15
f 87/38/15 84/39/15 24/36/15
f 31/40/16 85/41/16 84/39/16
f 84/39/16 30/42/16 31/40/16
f 33/43/17 87/38/17 86/44/17
f 86/44/17 32/45/17 33/43/17
f 25/46/5 15/16/5 14/15/5
f 14/15/5 24/36/5 25/46/5
f 24/36/6 14/15/6 13/18/6
f 13/18/6 27/37/6 24/36/6
f 26/47/7 34/22/7 35/21/7
f 35/21/7 22/32/7 26/47/7
f 27/37/8 13/18/8 34/22/8
f 34/22/8 26/47/8 27/37/8
f 85/41/7 88/23/7 15/16/7
f 15/16/7 25/46/7 85/41/7
f 20/25/9 23/33/9 22/32/9
f 22/32/9 35/21/9 20/25/9
f 16/26/10 18/27/10 31/40/10
f 31/40/10 30/42/10 16/26/10
f 36/28/11 16/26/11 30/42/11
f 30/42/11 33/43/11 36/28/11
f 32/45/7 28/48/7 19/29/7
f 19/29/7 17/30/7 32/45/7
f 36/28/12 33/43/12 32/45/12
f 32/45/12 17/30/12 36/28/12
f 88/23/7 85/41/7 31/40/7
f 31/40/7 18/27/7 88/23/7
f 28/48/13 29/49/13 21/31/13
f 21/31/13 19/29/13 28/48/13
f 83/3/18 89/50/18 37/51/18
f 37/51/19 11/24/19 83/3/19
f 20/25/20 11/24/20 92/52/20
f 93/53/20 39/54/20 20/25/20
f 12/2/21 21/31/21 40/55/21
f 40/55/21 38/56/21 12/2/21
f 23/33/20 20/25/20 39/54/20
f 39/54/20 41/57/20 23/33/20
f 90/34/22 76/58/22 42/59/22
f 42/59/22 29/49/22 90/34/22
f 21/31/21 29/49/21 94/60/21
f 95/61/21 40/55/21 21/31/21
f 99/62/23 77/63/23 78/64/23
f 78/64/23 100/65/23 101/66/23
f 78/64/23 77/63/23 105/67/23
f 106/68/23 107/69/23 78/64/23
f 144/70/23 145/71/23 146/72/23
f 147/73/23 148/74/23 149/75/23
f 150/76/23 151/77/23 152/78/23
f 153/79/23 154/80/23 155/81/23
f 77/63/23 156/82/23 157/83/23
f 158/84/23 159/85/23 160/86/23
f 161/87/23 162/88/23 163/89/23
f 77/63/23 164/90/23 165/91/23
f 77/63/23 166/92/23 167/93/23
f 77/63/23 168/94/23 169/95/23
f 75/6/3 8/5/3 7/17/3
f 7/17/3 82/9/3 75/6/3
f 80/12/4 6/19/4 5/8/4
f 5/8/4 81/7/4 80/12/4
f 1/20/1 83/3/1 11/24/1
f 1/20/1 79/4/1 83/3/1
f 79/4/7 1/20/7 6/19/7
f 6/19/7 80/12/7 79/4/7
f 25/46/16 24/36/16 84/39/16
f 84/39/16 85/41/16 25/46/16
f 27/37/17 26/47/17 86/44/17
f 86/44/17 87/38/17 27/37/17
f 26/47/7 22/32/7 91/35/7
f 91/35/7 86/44/7 26/47/7
f 23/33/22 170/96/22 76/58/22
f 76/58/22 90/34/22 23/33/22
f 171/97/23 172/98/23 173/99/23
f 174/100/23 175/101/23 176/102/23
f 177/103/23 178/104/23 179/105/23
f 180/106/23 181/107/23 182/108/23
f 183/109/23 184/110/23 78/64/23
f 4/14/7 2/1/7 79/4/7
f 79/4/7 80/12/7 4/14/7
f 9/11/2 3/13/2 81/7/2
f 81/7/2 75/6/2 9/11/2
f 87/38/15 33/43/15 30/42/15
f 30/42/15 84/39/15 87/38/15
f 91/35/7 28/48/7 32/45/7
f 32/45/7 86/44/7 91/35/7
f 90/34/14 29/49/14 28/48/14
f 28/48/14 91/35/14 90/34/14
f 12/2/24 185/111/24 89/50/24
f 89/50/18 83/3/18 12/2/18
f 186/112/23 187/113/23 188/114/23
f 189/115/23 190/116/23 191/117/23
f 192/118/23 193/119/23 194/120/23
f 195/121/23 196/122/23 197/123/23
f 198/124/23 199/125/23 200/126/23
f 201/127/23 202/128/23 77/63/23
f 78/64/23 203/129/23 204/130/23
f 205/131/23 206/132/23 207/133/23
f 208/134/23 209/135/23 210/136/23
f 78/64/23 211/137/23 212/138/23
f 78/64/23 213/139/23 214/140/23
usemtl MAT003824V1-ICOM
f 57/141/24 58/142/24 44/143/24
f 44/143/24 43/144/24 57/141/24
f 43/144/25 44/143/25 46/145/25
f 46/145/25 45/146/25 43/144/25
f 45/146/21 46/145/21 48/147/21
f 48/147/21 47/148/21 45/146/21
f 96/149/26 97/150/26 50/151/26
f 50/151/26 49/152/26 98/153/26
f 49/152/27 50/151/27 52/154/27
f 52/154/27 51/155/27 49/152/27
f 51/155/28 52/154/28 54/156/28
f 54/156/28 53/157/28 51/155/28
f 53/157/20 54/156/20 56/158/20
f 56/158/20 55/159/20 53/157/20
f 55/159/29 56/158/29 58/142/29
f 58/142/29 57/141/29 55/159/29
f 59/160/24 62/161/24 61/162/24
f 61/162/24 60/163/24 59/160/24
f 62/161/29 64/164/29 63/165/29
f 63/165/29 61/162/29 62/161/29
f 64/164/20 66/166/20 65/167/20
f 65/167/20 63/165/20 64/164/20
f 66/166/28 68/168/28 67/169/28
f 67/169/28 65/167/28 66/166/28
f 68/168/27 70/170/27 69/171/27
f 69/171/27 67/169/27 68/168/27
f 70/170/26 72/172/26 71/173/26
f 71/173/26 69/171/26 70/170/26
f 72/172/21 74/174/21 73/175/21
f 73/175/21 71/173/21 72/172/21
f 102/176/25 59/160/25 60/163/25
f 60/163/25 103/177/25 104/178/25
f 108/179/23 109/180/23 110/181/23
f 111/182/23 112/183/23 113/184/23
f 114/185/23 115/186/23 116/187/23
f 117/188/23 118/189/23 119/190/23
f 120/191/23 121/192/23 122/193/23
f 123/194/23 124/195/23 125/196/23
f 126/197/23 127/198/23 128/199/23
f 129/200/23 130/201/23 131/202/23
f 132/203/23 133/204/23 134/205/23
f 135/206/23 136/207/23 137/208/23
f 138/209/23 139/210/23 140/211/23
f 141/212/23 142/213/23 143/214/23
