# Blender v2.78 (sub 0) OBJ File: ''
# www.blender.org
mtllib IKEA.ART.50204655.mtl
o model_model.023
v -0.277500 -0.107000 0.007000
v 0.277500 -0.107000 0.007000
v -0.277500 -0.107000 -0.007000
v 0.277500 -0.107000 -0.007000
v -0.277500 0.107000 0.007000
v 0.277500 0.107000 0.007000
v -0.277500 0.107000 -0.007000
v 0.277500 0.107000 -0.007000
v -0.277500 -0.107000 0.007000
v 0.277500 -0.107000 0.007000
v -0.277500 -0.107000 0.007000
v 0.277500 -0.107000 0.007000
v 0.277500 -0.107000 -0.007000
v 0.277500 0.107000 -0.007000
v 0.277500 0.107000 -0.007000
v 0.277500 -0.107000 0.007000
v -0.277500 -0.107000 -0.007000
v -0.277500 -0.107000 0.007000
v -0.277500 0.107000 -0.007000
v -0.277500 -0.107000 -0.007000
vt -596.4111 920.9553
vt -610.4111 920.9553
vt -610.4111 365.9554
vt -596.4111 365.9554
vt -838.4110 920.9554
vt -838.4111 365.9554
vt -824.4111 365.9554
vt -824.4111 920.9553
vt -1052.4109 920.9553
vt -1052.4109 365.9554
vt -1052.4109 920.9553
vt -1052.4109 365.9554
vt -1052.4111 351.9554
vt -838.4111 351.9554
vt -838.4111 351.9554
vt -1052.4109 365.9554
vt -1052.4109 934.9554
vt -1052.4109 920.9553
vt -838.4109 934.9554
vt -1052.4109 934.9554
vn -0.0000 -1.0000 0.0000
vn 0.0000 1.0000 0.0000
vn 0.0000 0.0000 1.0000
vn 1.0000 0.0000 0.0000
vn 0.0000 0.0000 -1.0000
vn -1.0000 0.0000 0.0000
usemtl MAT003015V1-Appl
s off
f 1/1/1 3/2/1 4/3/1
f 1/1/1 4/3/1 2/4/1
f 5/5/2 6/6/2 8/7/2
f 8/7/2 7/8/2 5/5/2
f 9/9/3 10/10/3 6/6/3
f 6/6/3 5/5/3 11/11/3
f 12/12/4 13/13/4 14/14/4
f 15/15/4 6/6/4 16/16/4
f 4/3/5 3/2/5 7/8/5
f 7/8/5 8/7/5 4/3/5
f 17/17/6 18/18/6 5/5/6
f 5/5/6 19/19/6 20/20/6
