# Blender v2.78 (sub 0) OBJ File: ''
# www.blender.org
mtllib IKEA.ART.30205613.mtl
o model_model.008
v -0.182000 -0.064700 -0.287250
v -0.182000 -0.064700 0.287250
v -0.182000 -0.046698 -0.287250
v -0.182000 -0.046698 0.287250
v 0.182000 -0.064700 -0.287250
v 0.182000 -0.064700 0.287250
v 0.182000 -0.046698 -0.287250
v 0.182000 -0.046698 0.287250
v -0.182000 0.046698 -0.287250
v -0.182000 0.046698 0.287250
v -0.182000 0.064700 -0.287250
v -0.182000 0.064700 0.287250
v 0.182000 0.046698 -0.287250
v 0.182000 0.046698 0.287250
v 0.182000 0.064700 -0.287250
v 0.182000 0.064700 0.287250
v -0.182000 -0.064700 -0.287250
v -0.182000 -0.046698 -0.287250
v -0.182000 -0.064700 -0.287250
v -0.182000 -0.064700 0.287250
v -0.182000 -0.064700 -0.287250
v -0.182000 -0.064700 -0.287250
v 0.182000 -0.064700 -0.287250
v 0.182000 -0.046698 -0.287250
v -0.182000 -0.046698 -0.287250
v -0.182000 -0.046698 0.287250
v -0.182000 -0.046698 0.287250
v 0.182000 -0.046698 -0.287250
v 0.182000 -0.064700 -0.287250
v 0.182000 -0.046698 -0.287250
v 0.182000 -0.046698 0.287250
v 0.182000 -0.046698 0.287250
v 0.182000 -0.064700 0.287250
v 0.182000 -0.064700 -0.287250
v 0.182000 -0.046698 0.287250
v -0.182000 -0.046698 0.287250
v -0.182000 -0.064700 0.287250
v -0.182000 -0.064700 0.287250
v 0.182000 -0.064700 0.287250
v 0.182000 -0.046698 0.287250
v -0.182000 0.046698 -0.287250
v -0.182000 0.064700 -0.287250
v -0.182000 0.046698 -0.287250
v -0.182000 0.046698 0.287250
v -0.182000 0.046698 -0.287250
v -0.182000 0.046698 -0.287250
v 0.182000 0.046698 -0.287250
v 0.182000 0.064700 -0.287250
v -0.182000 0.064700 -0.287250
v -0.182000 0.064700 0.287250
v -0.182000 0.064700 0.287250
v 0.182000 0.064700 -0.287250
v 0.182000 0.046698 -0.287250
v 0.182000 0.064700 -0.287250
v 0.182000 0.064700 0.287250
v 0.182000 0.064700 0.287250
v 0.182000 0.046698 0.287250
v 0.182000 0.046698 -0.287250
v 0.182000 0.064700 0.287250
v -0.182000 0.064700 0.287250
v -0.182000 0.046698 0.287250
v -0.182000 0.046698 0.287250
v 0.182000 0.046698 0.287250
v 0.182000 0.064700 0.287250
vt 136.3461 -116.9448
vt 136.3461 -691.4448
vt 154.3461 -691.4448
vt 154.3461 -116.9448
vt 187.0862 -9.3396
vt 205.0862 -9.3396
vt 205.0862 -373.3396
vt 187.0862 -373.3396
vt 187.0862 -9.3396
vt 136.3460 -116.9449
vt 154.3460 -116.9449
vt 154.3460 -691.4448
vt 154.3460 -691.4448
vt 136.3460 -691.4448
vt 136.3460 -116.9449
vt -1494.2474 1794.7855
vt -1494.2474 1220.2856
vt -1476.2474 1220.2856
vt -1476.2474 1794.7855
vt -1443.5073 1902.3907
vt -1425.5073 1902.3907
vt -1425.5073 1538.3907
vt -1443.5073 1538.3907
vt -1443.5073 1902.3907
vt -1494.2474 1794.7855
vt -1476.2474 1794.7855
vt -1476.2474 1220.2856
vt -1476.2474 1220.2856
vt -1494.2474 1220.2856
vt -1494.2474 1794.7855
vt -699.0699 -695.0309
vt -699.0699 -331.0308
vt -124.5699 -331.0309
vt -124.5699 -331.0309
vt -124.5700 -695.0310
vt -124.5700 -695.0310
vt -124.5699 -331.0309
vt -699.0699 -331.0308
vt -699.0699 -331.0308
vt -699.0699 -695.0309
vt -124.5700 -695.0310
vt 205.0862 -373.3395
vt 205.0862 -9.3395
vt 187.0862 -9.3395
vt 187.0862 -9.3395
vt 187.0862 -373.3395
vt 205.0862 -373.3395
vt -2329.6636 1216.6995
vt -2329.6636 1580.6995
vt -1755.1635 1580.6995
vt -1755.1635 1580.6995
vt -1755.1636 1216.6993
vt -1755.1636 1216.6993
vt -1755.1635 1580.6995
vt -2329.6636 1580.6995
vt -2329.6636 1580.6995
vt -2329.6636 1216.6995
vt -1755.1636 1216.6993
vt -1425.5073 1538.3909
vt -1425.5073 1902.3909
vt -1443.5073 1902.3909
vt -1443.5073 1902.3909
vt -1443.5073 1538.3909
vt -1425.5073 1538.3909
vn -1.0000 0.0000 0.0000
vn 0.0000 0.0000 -1.0000
vn 1.0000 0.0000 0.0000
vn 0.0000 -1.0000 -0.0000
vn 0.0000 1.0000 0.0000
vn 0.0000 0.0000 1.0000
usemtl MAT003775V1-ICOM
s off
f 1/1/1 2/2/1 4/3/1
f 1/1/1 4/3/1 3/4/1
f 17/5/2 18/6/2 7/7/2
f 7/7/2 5/8/2 19/9/2
f 29/10/3 30/11/3 31/12/3
f 32/13/3 33/14/3 34/15/3
f 9/16/1 10/17/1 12/18/1
f 12/18/1 11/19/1 9/16/1
f 41/20/2 42/21/2 15/22/2
f 15/22/2 13/23/2 43/24/2
f 53/25/3 54/26/3 55/27/3
f 56/28/3 57/29/3 58/30/3
usemtl MAT006083V1-IKEA
f 6/31/4 20/32/4 21/33/4
f 22/34/4 23/35/4 6/31/4
f 24/36/5 25/37/5 26/38/5
f 27/39/5 8/40/5 28/41/5
f 35/42/6 36/43/6 37/44/6
f 38/45/6 39/46/6 40/47/6
f 14/48/4 44/49/4 45/50/4
f 46/51/4 47/52/4 14/48/4
f 48/53/5 49/54/5 50/55/5
f 51/56/5 16/57/5 52/58/5
f 59/59/6 60/60/6 61/61/6
f 62/62/6 63/63/6 64/64/6
