# Blender v2.78 (sub 0) OBJ File: ''
# www.blender.org
mtllib IKEA.ART.50205612.mtl
o model_model.042
v -0.282250 -0.080800 -0.287250
v -0.282250 -0.080800 0.287250
v -0.282250 -0.062803 -0.287250
v -0.282250 -0.062803 0.287250
v 0.282250 -0.080800 -0.287250
v 0.282250 -0.080800 0.287250
v 0.282250 -0.062803 -0.287250
v 0.282250 -0.062803 0.287250
v -0.282250 0.062803 -0.287250
v -0.282250 0.062803 0.287250
v -0.282250 0.080800 -0.287250
v -0.282250 0.080800 0.287250
v 0.282250 0.062803 -0.287250
v 0.282250 0.062803 0.287250
v 0.282250 0.080800 -0.287250
v 0.282250 0.080800 0.287250
v -0.282250 -0.080800 -0.287250
v -0.282250 -0.062803 -0.287250
v -0.282250 -0.080800 -0.287250
v -0.282250 -0.080800 0.287250
v -0.282250 -0.080800 -0.287250
v -0.282250 -0.080800 -0.287250
v -0.282250 -0.062803 -0.287250
v -0.282250 -0.062803 0.287250
v -0.282250 -0.062803 0.287250
v 0.282250 -0.080800 -0.287250
v 0.282250 -0.062803 -0.287250
v 0.282250 -0.062803 0.287250
v 0.282250 -0.062803 0.287250
v 0.282250 -0.080800 0.287250
v 0.282250 -0.080800 -0.287250
v 0.282250 -0.062803 0.287250
v -0.282250 -0.062803 0.287250
v -0.282250 -0.080800 0.287250
v -0.282250 -0.080800 0.287250
v 0.282250 -0.080800 0.287250
v 0.282250 -0.062803 0.287250
v -0.282250 0.062803 -0.287250
v -0.282250 0.080800 -0.287250
v -0.282250 0.062803 -0.287250
v -0.282250 0.062803 0.287250
v -0.282250 0.062803 -0.287250
v -0.282250 0.062803 -0.287250
v -0.282250 0.080800 -0.287250
v -0.282250 0.080800 0.287250
v -0.282250 0.080800 0.287250
v 0.282250 0.062803 -0.287250
v 0.282250 0.080800 -0.287250
v 0.282250 0.080800 0.287250
v 0.282250 0.080800 0.287250
v 0.282250 0.062803 0.287250
v 0.282250 0.062803 -0.287250
v 0.282250 0.080800 0.287250
v -0.282250 0.080800 0.287250
v -0.282250 0.062803 0.287250
v -0.282250 0.062803 0.287250
v 0.282250 0.062803 0.287250
v 0.282250 0.080800 0.287250
vt 110.5029 745.5067
vt 110.5029 171.0067
vt 128.5029 171.0067
vt 128.5029 745.5067
vt 701.7512 782.7503
vt 719.7512 782.7503
vt 719.7511 218.2503
vt 701.7511 218.2503
vt 701.7512 782.7503
vt 110.5029 745.5066
vt 128.5029 745.5066
vt 128.5029 171.0067
vt 128.5029 171.0067
vt 110.5029 171.0067
vt 110.5029 745.5066
vt -796.0493 1023.4278
vt -796.0493 448.9278
vt -778.0492 448.9278
vt -778.0493 1023.4278
vt -145.2465 1020.9684
vt -127.2465 1020.9684
vt -127.2465 456.4684
vt -145.2465 456.4684
vt -145.2465 1020.9684
vt -796.0493 1023.4277
vt -778.0493 1023.4277
vt -778.0493 448.9277
vt -778.0493 448.9277
vt -796.0493 448.9277
vt -796.0493 1023.4277
vt 127.2511 218.2505
vt 127.2512 782.7504
vt 701.7512 782.7503
vt 701.7512 782.7503
vt 719.7512 782.7503
vt 145.2512 782.7504
vt 145.2512 782.7504
vt 145.2511 218.2505
vt 41.9344 -633.7298
vt 41.9344 -69.2300
vt 23.9344 -69.2300
vt 23.9344 -69.2300
vt 23.9344 -633.7298
vt 41.9344 -633.7298
vt -719.7465 456.4686
vt -719.7464 1020.9685
vt -145.2465 1020.9684
vt -145.2465 1020.9684
vt -127.2465 1020.9684
vt -701.7464 1020.9685
vt -701.7464 1020.9685
vt -701.7465 456.4686
vt -958.8021 521.8484
vt -958.8021 1086.3483
vt -976.8021 1086.3483
vt -976.8021 1086.3483
vt -976.8021 521.8484
vt -958.8021 521.8484
vn -1.0000 0.0000 0.0000
vn 0.0000 0.0000 -1.0000
vn 1.0000 0.0000 0.0000
vn 0.0000 -1.0000 0.0000
vn 0.0000 1.0000 -0.0000
vn 0.0000 0.0000 1.0000
usemtl MAT003775V1-ICOM
s off
f 1/1/1 2/2/1 4/3/1
f 1/1/1 4/3/1 3/4/1
f 17/5/2 18/6/2 7/7/2
f 7/7/2 5/8/2 19/9/2
f 26/10/3 27/11/3 28/12/3
f 29/13/3 30/14/3 31/15/3
f 9/16/1 10/17/1 12/18/1
f 12/18/1 11/19/1 9/16/1
f 38/20/2 39/21/2 15/22/2
f 15/22/2 13/23/2 40/24/2
f 47/25/3 48/26/3 49/27/3
f 50/28/3 51/29/3 52/30/3
usemtl MAT006083V1-IKEA
f 6/31/4 20/32/4 21/33/4
f 22/34/4 5/8/4 6/31/4
f 7/7/5 23/35/5 24/36/5
f 25/37/5 8/38/5 7/7/5
f 32/39/6 33/40/6 34/41/6
f 35/42/6 36/43/6 37/44/6
f 14/45/4 41/46/4 42/47/4
f 43/48/4 13/23/4 14/45/4
f 15/22/5 44/49/5 45/50/5
f 46/51/5 16/52/5 15/22/5
f 53/53/6 54/54/6 55/55/6
f 56/56/6 57/57/6 58/58/6
