# Blender v2.78 (sub 0) OBJ File: ''
# www.blender.org
mtllib IKEA.ART.80221050.mtl
o model_model.004
v 0.240495 0.140376 0.004373
v 0.230727 0.130487 0.004373
v 0.215153 0.115181 0.008999
v 0.244816 -0.145789 0.008999
v 0.240495 -0.140410 0.004373
v 0.230865 -0.130585 0.004373
v 0.215155 -0.115169 0.008999
v 0.244816 0.145792 0.008999
v 0.244816 -0.198500 0.009000
v 0.298500 -0.145789 -0.009000
v 0.244816 0.145792 -0.009000
v 0.244816 -0.145789 -0.009000
v 0.244816 0.198500 0.008998
v 0.298500 0.198500 -0.009000
v 0.298500 -0.198500 -0.009000
v 0.244816 0.198500 -0.009000
v 0.244816 -0.198500 -0.009000
v 0.298500 0.198500 0.008998
v 0.298500 -0.198500 0.009000
v 0.298500 0.145792 0.008998
v 0.298500 -0.145789 0.009000
v 0.298500 0.145792 -0.009000
v -0.000001 0.145792 0.008999
v -0.000001 0.140376 0.004373
v -0.000001 -0.130585 0.004373
v -0.000001 0.145792 -0.009000
v -0.000001 -0.145789 -0.009000
v -0.000001 0.198500 0.008998
v -0.240498 0.140376 0.004373
v -0.230729 0.130487 0.004373
v -0.244818 0.145792 0.008999
v -0.215155 0.115181 0.008999
v -0.244818 0.198500 0.008998
v -0.230867 -0.130585 0.004373
v -0.215158 -0.115169 0.008999
v -0.240498 -0.140410 0.004373
v -0.244818 -0.145789 0.008999
v -0.298500 -0.198500 0.009000
v -0.298500 -0.145789 0.009000
v -0.244818 -0.198500 0.009000
v -0.298500 0.145792 0.008998
v -0.298500 0.198500 0.008998
v -0.298500 -0.198500 -0.009000
v -0.244818 -0.198500 -0.009000
v -0.244818 -0.145789 -0.009000
v -0.298500 -0.145789 -0.009000
v -0.244818 0.198500 -0.009000
v -0.244818 0.145792 -0.009000
v -0.298500 0.198500 -0.009000
v -0.298500 0.145792 -0.009000
v -0.000001 -0.198500 0.009000
v -0.000001 -0.198500 -0.009000
v -0.000001 -0.140410 0.004373
v -0.000001 -0.115169 0.008999
v -0.000001 0.198500 -0.009000
v -0.000001 0.115181 0.008999
v -0.000001 -0.145789 0.008999
v -0.000001 0.130487 0.004373
v 0.244816 0.198500 -0.009000
v 0.244816 0.198500 0.008998
v 0.298500 0.198500 0.008998
v 0.298500 0.198500 0.008998
v 0.298500 0.198500 -0.009000
v 0.244816 0.198500 -0.009000
v -0.000001 0.198500 0.008998
v 0.244816 0.198500 0.008998
v 0.244816 0.198500 0.008998
v 0.244816 0.198500 -0.009000
v 0.298500 -0.198500 -0.009000
v 0.298500 -0.198500 0.009000
v 0.244816 -0.198500 0.009000
v 0.244816 -0.198500 0.009000
v 0.244816 -0.198500 -0.009000
v 0.298500 -0.198500 -0.009000
v 0.298500 -0.198500 -0.009000
v 0.298500 -0.145789 -0.009000
v 0.298500 -0.145789 0.009000
v 0.298500 -0.145789 0.009000
v 0.298500 -0.198500 0.009000
v 0.298500 -0.198500 -0.009000
v 0.298500 0.198500 -0.009000
v 0.298500 0.198500 0.008998
v 0.298500 0.145792 0.008998
v 0.298500 0.145792 0.008998
v 0.298500 0.145792 -0.009000
v 0.298500 0.198500 -0.009000
v 0.298500 0.145792 -0.009000
v 0.298500 0.145792 0.008998
v 0.298500 -0.145789 0.009000
v 0.298500 -0.145789 0.009000
v 0.298500 -0.145789 -0.009000
v 0.298500 0.145792 -0.009000
v -0.000001 0.198500 -0.009000
v 0.244816 -0.198500 -0.009000
v 0.244816 -0.198500 0.009000
v -0.000001 -0.198500 0.009000
v -0.000001 -0.198500 0.009000
v -0.000001 -0.198500 -0.009000
v 0.244816 -0.198500 -0.009000
v -0.244818 0.198500 -0.009000
v -0.298500 0.198500 -0.009000
v -0.298500 0.198500 0.008998
v -0.298500 0.198500 0.008998
v -0.244818 0.198500 0.008998
v -0.244818 0.198500 -0.009000
v -0.244818 0.198500 0.008998
v -0.000001 0.198500 0.008998
v -0.244818 0.198500 -0.009000
v -0.244818 0.198500 0.008998
v -0.298500 -0.198500 -0.009000
v -0.244818 -0.198500 -0.009000
v -0.244818 -0.198500 0.009000
v -0.244818 -0.198500 0.009000
v -0.298500 -0.198500 0.009000
v -0.298500 -0.198500 -0.009000
v -0.298500 -0.198500 -0.009000
v -0.298500 -0.198500 0.009000
v -0.298500 -0.145789 0.009000
v -0.298500 -0.145789 0.009000
v -0.298500 -0.145789 -0.009000
v -0.298500 -0.198500 -0.009000
v -0.298500 0.198500 -0.009000
v -0.298500 0.145792 -0.009000
v -0.298500 0.145792 0.008998
v -0.298500 0.145792 0.008998
v -0.298500 0.198500 0.008998
v -0.298500 0.198500 -0.009000
v -0.298500 0.145792 -0.009000
v -0.298500 -0.145789 -0.009000
v -0.298500 -0.145789 0.009000
v -0.298500 -0.145789 0.009000
v -0.298500 0.145792 0.008998
v -0.298500 0.145792 -0.009000
v -0.000001 0.198500 -0.009000
v -0.000001 0.198500 -0.009000
v -0.244818 -0.198500 0.009000
v -0.244818 -0.198500 -0.009000
v -0.000001 -0.198500 -0.009000
v -0.000001 -0.198500 -0.009000
v -0.000001 -0.198500 0.009000
v -0.244818 -0.198500 0.009000
vt -238.6997 0.0682
vt -228.8109 0.0681
vt -228.8067 230.7934
vt -238.6956 240.5618
vt -244.1162 0.0682
vt -244.1121 244.8822
vt -213.5051 0.0682
vt -213.5009 215.2195
vt -296.8232 0.0682
vt -296.8190 244.8822
vt 16.8525 215.2220
vt 32.2689 230.9315
vt 32.2648 0.0682
vt 42.0898 0.0682
vt 42.0939 240.5618
vt 16.8483 0.0682
vt 47.4690 0.0682
vt 47.4732 244.8822
vt 100.1846 298.5760
vt 47.4732 298.5756
vt 100.1846 244.8823
vt 100.1804 0.0682
vt -296.8190 298.5726
vt -244.1121 298.5730
vt 100.1891 244.8823
vt 47.4777 244.8822
vt 47.4777 298.5754
vt 100.1891 298.5760
vt 100.1849 0.0682
vt 47.4735 0.0682
vt -296.8164 298.5714
vt -244.1076 298.5720
vt -244.1076 244.8822
vt -296.8174 244.8822
vt -107.3550 244.8822
vt -89.4307 244.8822
vt -89.4307 298.5725
vt -89.4307 298.5725
vt -107.3550 298.5714
vt -107.3550 244.8822
vt -107.3592 0.0682
vt -89.4349 0.0682
vt -89.4307 244.8822
vt -89.4307 244.8822
vt -107.3550 244.8822
vt -107.3553 298.5760
vt -89.2795 298.5760
vt -89.2795 244.8822
vt -89.2795 244.8822
vt -107.3553 244.8822
vt -107.3553 298.5760
vt -107.3554 -99.1831
vt -107.3553 -46.4717
vt -89.2997 -46.4717
vt -89.2997 -46.4717
vt -89.2796 -99.1831
vt -107.3554 -99.1831
vt -107.3551 297.8224
vt -89.4308 297.8206
vt -89.4107 245.1136
vt -89.4107 245.1136
vt -107.3551 245.1136
vt -107.3551 297.8224
vt -107.3551 245.1136
vt -89.4107 245.1136
vt -89.2997 -46.4717
vt -89.2997 -46.4717
vt -107.3553 -46.4717
vt -107.3551 245.1136
vt -244.1117 0.0682
vt -296.8263 0.0681
vt -107.3553 244.8822
vt -89.2795 244.8822
vt -89.2837 0.0682
vt -89.2837 0.0682
vt -107.3595 0.0682
vt -107.3553 244.8822
vt -228.8134 -230.6570
vt -238.7023 -240.4253
vt -244.1188 -244.7459
vt -213.5076 -215.0830
vt -296.8258 -244.7459
vt 16.8457 -215.0857
vt 32.2622 -230.7952
vt 42.0872 -240.4253
vt 47.4665 -244.7458
vt 100.1779 -298.4397
vt 100.1779 -244.7458
vt 47.4665 -298.4392
vt -296.8258 -298.4361
vt -244.1188 -298.4366
vt 100.1823 -244.7458
vt 100.1823 -298.4397
vt 47.4710 -298.4390
vt 47.4710 -244.7458
vt -296.8232 -298.4351
vt -296.8241 -244.7459
vt -244.1143 -244.7459
vt -244.1143 -298.4356
vt -107.3618 -244.7459
vt -107.3618 -298.4351
vt -89.4375 -298.4361
vt -89.4375 -298.4361
vt -89.4375 -244.7459
vt -107.3618 -244.7459
vt -89.4375 -244.7459
vt -89.4349 0.0682
vt -107.3618 -244.7459
vt -89.4375 -244.7459
vt -107.3620 -298.4397
vt -107.3620 -244.7459
vt -89.2863 -244.7459
vt -89.2863 -244.7459
vt -89.2863 -298.4397
vt -107.3620 -298.4397
vt -107.3621 99.3193
vt -89.2864 99.3193
vt -89.3064 46.6079
vt -89.3064 46.6079
vt -107.3621 46.6079
vt -107.3621 99.3193
vt -107.3618 -297.6861
vt -107.3619 -244.9773
vt -89.4175 -244.9773
vt -89.4175 -244.9773
vt -89.4376 -297.6841
vt -107.3618 -297.6861
vt -107.3619 -244.9773
vt -107.3621 46.6079
vt -89.3064 46.6079
vt -89.3064 46.6079
vt -89.4175 -244.9773
vt -107.3619 -244.9773
vt -296.8263 0.0681
vt -296.8263 0.0681
vt -89.2863 -244.7459
vt -107.3620 -244.7459
vt -107.3595 0.0682
vt -107.3595 0.0682
vt -89.2837 0.0682
vt -89.2863 -244.7459
vn 0.0000 -0.0000 1.0000
vn 0.0000 -0.6494 0.7604
vn -0.0000 -0.6495 0.7604
vn -0.0000 0.2893 0.9572
vn 0.2826 0.0001 0.9592
vn 0.2847 0.0000 0.9586
vn -0.0000 0.6521 0.7582
vn -0.0000 -0.2874 0.9578
vn -0.7308 0.0000 0.6825
vn -0.7308 -0.0000 0.6826
vn 0.0000 -0.0000 -1.0000
vn -0.0000 1.0000 0.0000
vn 0.0000 -1.0000 0.0000
vn 1.0000 -0.0000 0.0000
vn -0.2847 0.0000 0.9586
vn -0.2826 0.0001 0.9592
vn 0.7308 -0.0000 0.6826
vn 0.7308 0.0000 0.6825
vn -1.0000 -0.0000 0.0000
usemtl MAT005966V1-IKEA
s off
f 24/1/1 58/2/1 2/3/1
f 2/3/1 1/4/1 24/1/1
f 1/4/2 23/5/2 24/1/2
f 1/4/3 8/6/3 23/5/3
f 58/2/4 56/7/4 3/8/4
f 3/8/4 2/3/4 58/2/4
f 28/9/1 23/5/1 8/6/1
f 8/6/1 13/10/1 28/9/1
f 7/11/5 6/12/5 2/3/5
f 2/3/6 3/8/6 7/11/6
f 6/12/1 25/13/1 53/14/1
f 53/14/1 5/15/1 6/12/1
f 3/8/1 56/7/1 54/16/1
f 54/16/1 7/11/1 3/8/1
f 5/15/7 53/14/7 57/17/7
f 57/17/7 4/18/7 5/15/7
f 19/19/1 21/20/1 4/18/1
f 4/18/1 9/21/1 19/19/1
f 1/4/1 2/3/1 6/12/1
f 1/4/1 6/12/1 5/15/1
f 7/11/8 54/16/8 25/13/8
f 25/13/8 6/12/8 7/11/8
f 57/17/1 51/22/1 9/21/1
f 9/21/1 4/18/1 57/17/1
f 18/23/1 13/10/1 8/6/1
f 8/6/1 20/24/1 18/23/1
f 20/24/1 8/6/1 4/18/1
f 4/18/1 21/20/1 20/24/1
f 5/15/9 4/18/9 8/6/9
f 8/6/10 1/4/10 5/15/10
f 17/25/11 12/26/11 10/27/11
f 10/27/11 15/28/11 17/25/11
f 52/29/11 27/30/11 12/26/11
f 12/26/11 17/25/11 52/29/11
f 14/31/11 22/32/11 11/33/11
f 11/33/11 16/34/11 14/31/11
f 22/32/11 10/27/11 12/26/11
f 12/26/11 11/33/11 22/32/11
f 59/35/12 60/36/12 61/37/12
f 62/38/12 63/39/12 64/40/12
f 55/41/12 65/42/12 66/43/12
f 67/44/12 68/45/12 55/41/12
f 69/46/13 70/47/13 71/48/13
f 72/49/13 73/50/13 74/51/13
f 75/52/14 76/53/14 77/54/14
f 78/55/14 79/56/14 80/57/14
f 81/58/14 82/59/14 83/60/14
f 84/61/14 85/62/14 86/63/14
f 87/64/14 88/65/14 89/66/14
f 90/67/14 91/68/14 92/69/14
f 16/34/11 11/33/11 26/70/11
f 26/70/11 93/71/11 16/34/11
f 11/33/11 12/26/11 27/30/11
f 27/30/11 26/70/11 11/33/11
f 94/72/13 95/73/13 96/74/13
f 97/75/13 98/76/13 99/77/13
f 30/78/1 58/2/1 24/1/1
f 24/1/1 29/79/1 30/78/1
f 29/79/2 24/1/2 23/5/2
f 23/5/2 31/80/2 29/79/2
f 32/81/4 56/7/4 58/2/4
f 58/2/4 30/78/4 32/81/4
f 31/80/1 23/5/1 28/9/1
f 28/9/1 33/82/1 31/80/1
f 35/83/15 32/81/15 30/78/15
f 30/78/16 34/84/16 35/83/16
f 53/14/1 25/13/1 34/84/1
f 34/84/1 36/85/1 53/14/1
f 54/16/1 56/7/1 32/81/1
f 32/81/1 35/83/1 54/16/1
f 36/85/7 37/86/7 57/17/7
f 57/17/7 53/14/7 36/85/7
f 38/87/1 40/88/1 37/86/1
f 37/86/1 39/89/1 38/87/1
f 29/79/1 36/85/1 34/84/1
f 34/84/1 30/78/1 29/79/1
f 25/13/8 54/16/8 35/83/8
f 35/83/8 34/84/8 25/13/8
f 40/88/1 51/22/1 57/17/1
f 57/17/1 37/86/1 40/88/1
f 42/90/1 41/91/1 31/80/1
f 31/80/1 33/82/1 42/90/1
f 41/91/1 39/89/1 37/86/1
f 37/86/1 31/80/1 41/91/1
f 36/85/17 29/79/17 31/80/17
f 31/80/18 37/86/18 36/85/18
f 44/92/11 43/93/11 46/94/11
f 46/94/11 45/95/11 44/92/11
f 45/95/11 27/30/11 52/29/11
f 52/29/11 44/92/11 45/95/11
f 49/96/11 47/97/11 48/98/11
f 48/98/11 50/99/11 49/96/11
f 50/99/11 48/98/11 45/95/11
f 45/95/11 46/94/11 50/99/11
f 100/100/12 101/101/12 102/102/12
f 103/103/12 104/104/12 105/105/12
f 106/106/12 107/107/12 55/41/12
f 55/41/12 108/108/12 109/109/12
f 110/110/13 111/111/13 112/112/13
f 113/113/13 114/114/13 115/115/13
f 116/116/19 117/117/19 118/118/19
f 119/119/19 120/120/19 121/121/19
f 122/122/19 123/123/19 124/124/19
f 125/125/19 126/126/19 127/127/19
f 128/128/19 129/129/19 130/130/19
f 131/131/19 132/132/19 133/133/19
f 48/98/11 47/97/11 134/134/11
f 135/135/11 26/70/11 48/98/11
f 45/95/11 48/98/11 26/70/11
f 26/70/11 27/30/11 45/95/11
f 136/136/13 137/137/13 138/138/13
f 139/139/13 140/140/13 141/141/13
