# Blender v2.78 (sub 0) OBJ File: ''
# www.blender.org
mtllib IKEA.ART.40221448.mtl
o model_model.037
v 0.291462 0.285872 0.008000
v 0.291462 -0.285872 0.008000
v 0.243485 -0.250833 0.003894
v 0.247266 -0.254857 0.008000
v 0.243485 0.250833 0.003894
v 0.247266 0.254857 0.008000
v 0.218447 0.232552 0.008000
v 0.233948 0.243871 0.003870
v 0.233948 -0.243871 0.003870
v 0.218447 -0.232552 0.008000
v 0.298491 0.291000 0.003017
v 0.298491 -0.291000 0.003017
v -0.000004 0.250833 0.003894
v -0.000004 0.243871 0.003870
v -0.000004 0.232552 0.008000
v -0.000004 -0.243871 0.003870
v -0.000004 -0.254857 0.008000
v -0.000004 -0.232552 0.008000
v -0.000004 -0.285872 0.008000
v -0.000004 0.291000 0.003017
v -0.000004 -0.291000 0.003017
v -0.291471 0.285872 0.008000
v -0.298500 0.291000 0.003017
v -0.233957 0.243871 0.003870
v -0.218456 0.232552 0.008000
v -0.247275 0.254857 0.008000
v -0.243494 0.250833 0.003894
v -0.291471 -0.285872 0.008000
v -0.298500 -0.291000 0.003017
v -0.233957 -0.243871 0.003870
v -0.218456 -0.232552 0.008000
v -0.247275 -0.254857 0.008000
v -0.243494 -0.250833 0.003894
v -0.000004 0.254857 0.008000
v -0.000004 0.285872 0.008000
v -0.000004 -0.250833 0.003894
v 0.298500 0.291000 -0.008000
v 0.298491 -0.291000 -0.008000
v -0.000004 0.291000 -0.008000
v -0.000004 -0.291000 -0.008000
v -0.298497 0.291000 -0.008000
v -0.298497 -0.291000 -0.008000
v -0.291765 0.260287 0.003392
v -0.291765 0.260287 -0.008000
v -0.281935 0.267465 0.003392
v -0.281935 0.267465 -0.008000
v -0.269052 0.267465 0.003392
v -0.269052 0.267465 -0.008000
v -0.259222 0.260287 0.003392
v -0.259222 0.260287 -0.008000
v -0.259222 0.250879 0.003392
v -0.259222 0.250879 -0.008000
v -0.269052 0.243701 0.003392
v -0.269052 0.243701 -0.008000
v -0.281935 0.243701 0.003392
v -0.281935 0.243701 -0.008000
v -0.291765 0.250879 0.003392
v -0.291765 0.250879 -0.008000
v -0.291765 -0.250879 0.003392
v -0.291765 -0.250879 -0.008000
v -0.291765 -0.260287 -0.008000
v -0.291765 -0.260287 0.003392
v -0.281935 -0.267465 -0.008000
v -0.281935 -0.267465 0.003392
v -0.269052 -0.267465 -0.008000
v -0.269052 -0.267465 0.003392
v -0.259222 -0.260287 -0.008000
v -0.259222 -0.260287 0.003392
v -0.259222 -0.250879 -0.008000
v -0.259222 -0.250879 0.003392
v -0.269052 -0.243701 -0.008000
v -0.269052 -0.243701 0.003392
v -0.281935 -0.243701 -0.008000
v -0.281935 -0.243701 0.003392
v 0.233948 -0.039906 0.003870
v -0.298497 -0.039906 -0.008000
v -0.273255 -0.039906 -0.008000
v -0.285644 -0.039906 -0.008000
v 0.291462 -0.039906 0.008000
v 0.247266 -0.039906 0.008000
v 0.243485 -0.039906 0.003894
v 0.218447 -0.039906 0.008000
v 0.298491 -0.039906 0.003017
v -0.233957 -0.039906 0.003870
v -0.218456 -0.039906 0.008000
v -0.247275 -0.039906 0.008000
v -0.243494 -0.039906 0.003894
v -0.000004 -0.039906 0.008000
v 0.298495 -0.039906 -0.008000
v -0.298500 -0.039906 0.003017
v -0.291471 -0.039906 0.008000
v 0.298500 0.291000 -0.008000
v 0.298500 0.291000 -0.008000
v -0.298497 -0.291000 -0.008000
v -0.298497 -0.291000 -0.008000
v -0.269052 0.267465 0.003392
v -0.269052 0.267465 -0.008000
v -0.269052 0.267465 0.003392
v -0.269052 0.243701 -0.008000
v -0.281935 0.243701 -0.008000
v -0.269052 0.243701 -0.008000
v -0.281935 -0.243701 0.003392
v -0.281935 -0.243701 -0.008000
v -0.281935 -0.243701 0.003392
v -0.269052 -0.243701 -0.008000
v -0.269052 -0.243701 -0.008000
v -0.281935 -0.243701 -0.008000
v -0.281935 0.267465 0.003392
v -0.269052 0.267465 0.003392
v -0.259222 0.260287 0.003392
v -0.259222 0.260287 0.003392
v -0.259222 0.250879 0.003392
v -0.269052 0.243701 0.003392
v -0.269052 0.243701 0.003392
v -0.281935 0.243701 0.003392
v -0.291765 0.250879 0.003392
v -0.259222 0.260287 0.003392
v -0.269052 0.243701 0.003392
v -0.291765 0.250879 0.003392
v -0.281935 0.267465 0.003392
v -0.259222 0.260287 0.003392
v -0.291765 0.250879 0.003392
v -0.291765 0.260287 0.003392
v -0.281935 0.267465 0.003392
v -0.291765 0.250879 0.003392
v -0.281935 -0.243701 0.003392
v -0.269052 -0.243701 0.003392
v -0.259222 -0.250879 0.003392
v -0.259222 -0.250879 0.003392
v -0.259222 -0.260287 0.003392
v -0.269052 -0.267465 0.003392
v -0.269052 -0.267465 0.003392
v -0.281935 -0.267465 0.003392
v -0.291765 -0.260287 0.003392
v -0.259222 -0.250879 0.003392
v -0.269052 -0.267465 0.003392
v -0.291765 -0.260287 0.003392
v -0.281935 -0.243701 0.003392
v -0.259222 -0.250879 0.003392
v -0.291765 -0.260287 0.003392
v -0.291765 -0.250879 0.003392
v -0.281935 -0.243701 0.003392
v -0.291765 -0.260287 0.003392
v -0.269052 0.267465 -0.008000
v -0.281935 0.267465 -0.008000
v -0.298497 0.291000 -0.008000
v -0.298497 0.291000 -0.008000
v -0.000004 0.291000 -0.008000
v -0.269052 0.267465 -0.008000
v -0.269052 -0.267465 -0.008000
v -0.000004 -0.291000 -0.008000
v -0.298497 -0.291000 -0.008000
v -0.298497 -0.291000 -0.008000
v -0.281935 -0.267465 -0.008000
v -0.269052 -0.267465 -0.008000
v -0.269052 0.243701 -0.008000
v -0.259222 0.250879 -0.008000
v -0.259222 0.260287 -0.008000
v -0.269052 0.267465 -0.008000
v -0.000004 0.291000 -0.008000
v -0.259222 0.250879 -0.008000
v -0.259222 0.260287 -0.008000
v -0.000004 0.291000 -0.008000
v -0.259222 0.250879 -0.008000
v -0.000004 0.291000 -0.008000
v -0.000004 0.291000 -0.008000
v 0.298500 0.291000 -0.008000
v 0.298500 0.291000 -0.008000
v 0.298495 -0.039906 -0.008000
v -0.298497 0.291000 -0.008000
v -0.298497 0.291000 -0.008000
v -0.281935 0.267465 -0.008000
v -0.291765 0.260287 -0.008000
v -0.298497 -0.039906 -0.008000
v -0.298497 0.291000 -0.008000
v -0.291765 0.260287 -0.008000
v -0.298497 -0.039906 -0.008000
v -0.291765 0.260287 -0.008000
v -0.291765 0.250879 -0.008000
v -0.298497 -0.039906 -0.008000
v -0.291765 0.250879 -0.008000
v -0.281935 0.243701 -0.008000
v -0.298497 -0.039906 -0.008000
v -0.281935 0.243701 -0.008000
v 0.298491 -0.291000 -0.008000
v 0.298495 -0.039906 -0.008000
v 0.298491 -0.291000 -0.008000
v -0.000004 -0.291000 -0.008000
v -0.000004 -0.291000 -0.008000
v -0.269052 -0.267465 -0.008000
v -0.259222 -0.260287 -0.008000
v 0.298495 -0.039906 -0.008000
v -0.000004 -0.291000 -0.008000
v -0.259222 -0.260287 -0.008000
v 0.298495 -0.039906 -0.008000
v -0.259222 -0.260287 -0.008000
v -0.259222 -0.250879 -0.008000
v 0.298495 -0.039906 -0.008000
v -0.259222 -0.250879 -0.008000
v -0.269052 -0.243701 -0.008000
v 0.298495 -0.039906 -0.008000
v -0.269052 -0.243701 -0.008000
v -0.281935 -0.243701 -0.008000
v -0.291765 -0.250879 -0.008000
v -0.291765 -0.260287 -0.008000
v -0.281935 -0.267465 -0.008000
v -0.298497 -0.291000 -0.008000
v -0.291765 -0.250879 -0.008000
v -0.291765 -0.260287 -0.008000
v -0.298497 -0.291000 -0.008000
v -0.291765 -0.250879 -0.008000
v -0.298497 -0.291000 -0.008000
v -0.298497 -0.291000 -0.008000
v -0.298497 -0.039906 -0.008000
vt 291.9654 -390.9758
vt 298.9941 -397.9977
vt 298.9941 -54.1477
vt 291.9654 -54.1477
vt 234.4518 334.4593
vt 234.4518 -54.1477
vt 243.9886 -54.1477
vt 243.9886 343.9922
vt 218.9509 -54.1477
vt 218.9509 -317.9584
vt 234.4518 -333.4592
vt 247.7694 -54.1477
vt 243.9886 -342.9921
vt 247.7694 -348.5027
vt 0.5000 334.4592
vt 0.5000 318.9585
vt 218.9509 318.9585
vt 0.5000 343.9922
vt 247.7694 349.5028
vt 291.9654 391.9758
vt 0.5000 391.9758
vt 0.5000 349.5028
vt 0.5000 -54.1477
vt 298.9941 398.9978
vt 0.5000 398.9978
vt 0.5000 -333.4592
vt 0.5000 -317.9584
vt 0.5000 -342.9921
vt 0.5000 -390.9757
vt 0.5000 -348.5027
vt 0.5000 -397.9977
vt -290.9654 391.9758
vt -297.9941 398.9978
vt -297.9941 -54.1476
vt -290.9654 -54.1477
vt -233.4518 334.4593
vt -242.9886 343.9922
vt -242.9886 -54.1477
vt -233.4518 -54.1477
vt -217.9509 -317.9584
vt -217.9509 -54.1477
vt -233.4518 -333.4592
vt -242.9886 -342.9922
vt -246.7694 -54.1477
vt -246.7694 -348.5027
vt -217.9509 318.9585
vt -246.7694 349.5028
vt -290.9654 -390.9757
vt -297.9941 -397.9977
vt 311.3728 -54.1477
vt 311.3728 398.9976
vt 299.0031 411.3764
vt 299.0031 411.3764
vt 0.5000 411.3765
vt 0.5000 -410.3763
vt 298.9941 -410.3763
vt -297.9910 411.3766
vt -310.3727 -54.1476
vt -310.3727 -397.9974
vt -297.9910 -410.3765
vt -297.9910 -410.3765
vt 269.5507 334.2264
vt 273.7534 -54.1478
vt 286.1422 -54.1478
vt 282.4340 334.2264
vt 269.5507 334.2264
vt 269.5507 -333.2267
vt 269.5507 -333.2267
vt 282.4340 -333.2267
vt 269.5507 366.7689
vt 282.4340 366.7689
vt 298.9955 398.9974
vt 298.9955 398.9974
vt 0.5045 398.9977
vt 269.5507 366.7689
vt 269.5507 -365.7692
vt 0.5045 -397.9978
vt 298.9955 -397.9975
vt 298.9955 -397.9975
vt 282.4340 -365.7692
vt 269.5507 -365.7692
vt 269.5507 334.2264
vt 259.7211 344.0560
vt 259.7211 356.9393
vt 269.5507 366.7689
vt 0.5045 398.9977
vt 259.7211 344.0560
vt 259.7211 356.9393
vt 0.5045 398.9977
vt 259.7211 344.0560
vt 0.5045 398.9977
vt 0.5045 398.9977
vt -297.9986 398.9974
vt -297.9986 398.9974
vt -297.9939 -54.1478
vt -310.3727 398.9976
vt 298.9955 398.9974
vt 282.4340 366.7689
vt 292.2637 356.9393
vt 298.9955 -54.1478
vt 298.9955 398.9974
vt 292.2637 356.9393
vt 298.9955 -54.1478
vt 292.2637 356.9393
vt 292.2637 344.0560
vt 298.9955 -54.1478
vt 292.2637 344.0560
vt 282.4340 334.2264
vt 298.9955 -54.1478
vt 282.4340 334.2264
vt 311.3727 -397.9977
vt -297.9939 -54.1478
vt -297.9896 -397.9978
vt 0.5045 -397.9978
vt 0.5045 -397.9978
vt 269.5507 -365.7692
vt 259.7211 -355.9396
vt -297.9939 -54.1478
vt 0.5045 -397.9978
vt 259.7211 -355.9396
vt -297.9939 -54.1478
vt 259.7211 -355.9396
vt 259.7211 -343.0563
vt -297.9939 -54.1478
vt 259.7211 -343.0563
vt 269.5507 -333.2267
vt -297.9939 -54.1478
vt 269.5507 -333.2267
vt 282.4340 -333.2267
vt 292.2637 -343.0563
vt 292.2637 -355.9396
vt 282.4340 -365.7692
vt 298.9955 -397.9975
vt 292.2637 -343.0563
vt 292.2637 -355.9396
vt 298.9955 -397.9975
vt 292.2637 -343.0563
vt 298.9955 -397.9975
vt 298.9955 -397.9975
vt 298.9955 -54.1478
vt 34.1630 6.9000
vt 34.1630 -5.9000
vt 21.5066 -5.9000
vt 21.5066 6.9000
vt 7.7932 -5.9000
vt 7.7932 6.9000
vt -4.8632 -5.9000
vt -4.8632 6.9000
vt 100.6161 6.9000
vt 100.6161 -5.9000
vt 86.9027 -5.9000
vt 86.9027 6.9000
vt 100.6161 6.9000
vt 74.2463 -5.9000
vt 74.2463 6.9000
vt 60.5329 -5.9000
vt 60.5329 6.9000
vt 47.8764 -5.9000
vt 47.8764 6.9000
vt 21.5065 6.9000
vt 34.1629 6.9000
vt 34.1629 -5.9000
vt 21.5065 -5.9000
vt 47.8764 6.9000
vt 47.8764 -5.9000
vt 60.5329 6.9000
vt 60.5329 -5.9000
vt 74.2465 6.9000
vt 74.2465 -5.9000
vt 86.9028 6.9000
vt 86.9028 -5.9000
vt 100.6161 6.9000
vt 100.6161 -5.9000
vt 113.2725 6.9000
vt 113.2725 -5.9000
vt 7.7932 6.9000
vt 7.7932 -5.9000
vt 7.7932 6.9000
vt 6.9414 966.7712
vt -5.9419 966.7712
vt -15.7715 956.9417
vt -15.7715 956.9417
vt -15.7715 944.0583
vt -5.9419 934.2288
vt -5.9419 934.2288
vt 6.9414 934.2288
vt 16.7711 944.0583
vt -15.7715 956.9417
vt -5.9419 934.2288
vt 16.7711 944.0583
vt 6.9414 966.7712
vt -15.7715 956.9417
vt 16.7711 944.0583
vt 16.7711 956.9417
vt 6.9414 966.7712
vt 16.7711 944.0583
vt 6.9419 -933.2288
vt -5.9414 -933.2288
vt -15.7711 -943.0584
vt -15.7711 -943.0584
vt -15.7711 -955.9417
vt -5.9414 -965.7713
vt -5.9414 -965.7713
vt 6.9419 -965.7713
vt 16.7715 -955.9417
vt -15.7711 -943.0584
vt -5.9414 -965.7713
vt 16.7715 -955.9417
vt 6.9419 -933.2288
vt -15.7711 -943.0584
vt 16.7715 -955.9417
vt 16.7715 -943.0584
vt 6.9419 -933.2288
vt 16.7715 -955.9417
vn 0.5783 -0.0000 0.8158
vn -0.0025 0.0000 1.0000
vn 0.2575 0.0000 0.9663
vn -0.7356 -0.0000 0.6774
vn -0.0000 0.3428 0.9394
vn 0.0000 -0.0035 1.0000
vn 0.0000 0.0000 1.0000
vn 0.0000 -0.7142 0.7000
vn 0.0000 0.6969 0.7172
vn 0.0000 -0.3428 0.9394
vn 0.0000 0.0035 1.0000
vn 0.0000 0.7142 0.7000
vn 0.0000 -0.6969 0.7172
vn -0.5783 0.0000 0.8158
vn 0.0025 0.0000 1.0000
vn -0.2575 0.0000 0.9663
vn 0.7356 -0.0000 0.6774
vn 0.0000 0.7142 0.6999
vn 1.0000 -0.0000 0.0004
vn 1.0000 0.0000 0.0008
vn 0.0000 1.0000 -0.0000
vn 0.0000 -1.0000 0.0000
vn -1.0000 0.0000 -0.0003
vn 0.0000 0.0000 -1.0000
vn 1.0000 -0.0000 0.0000
vn 0.5897 -0.8076 0.0000
vn -0.5897 -0.8076 0.0000
vn -1.0000 0.0000 0.0000
vn -0.5897 0.8076 0.0000
vn 0.5897 0.8076 0.0000
usemtl MAT005966V1-IKEA
s off
f 2/1/1 12/2/1 83/3/1
f 83/3/1 79/4/1 2/1/1
f 8/5/2 75/6/2 81/7/2
f 81/7/2 5/8/2 8/5/2
f 75/6/3 82/9/3 10/10/3
f 10/10/3 9/11/3 75/6/3
f 80/12/4 81/7/4 3/13/4
f 3/13/4 4/14/4 80/12/4
f 14/15/5 15/16/5 7/17/5
f 7/17/5 8/5/5 14/15/5
f 8/5/6 5/8/6 13/18/6
f 13/18/6 14/15/6 8/5/6
f 6/19/7 1/20/7 35/21/7
f 35/21/7 34/22/7 6/19/7
f 34/22/8 13/18/8 5/8/8
f 5/8/8 6/19/8 34/22/8
f 15/16/7 88/23/7 82/9/7
f 82/9/7 7/17/7 15/16/7
f 1/20/9 11/24/9 20/25/9
f 1/20/9 20/25/9 35/21/9
f 16/26/10 9/11/10 10/10/10
f 10/10/10 18/27/10 16/26/10
f 36/28/11 3/13/11 9/11/11
f 9/11/11 16/26/11 36/28/11
f 19/29/7 2/1/7 4/14/7
f 4/14/7 17/30/7 19/29/7
f 4/14/12 3/13/12 36/28/12
f 36/28/12 17/30/12 4/14/12
f 10/10/7 82/9/7 88/23/7
f 88/23/7 18/27/7 10/10/7
f 21/31/13 12/2/13 2/1/13
f 2/1/13 19/29/13 21/31/13
f 22/32/14 23/33/14 90/34/14
f 90/34/14 91/35/14 22/32/14
f 24/36/15 27/37/15 87/38/15
f 87/38/15 84/39/15 24/36/15
f 31/40/16 85/41/16 84/39/16
f 84/39/16 30/42/16 31/40/16
f 33/43/17 87/38/17 86/44/17
f 86/44/17 32/45/17 33/43/17
f 25/46/5 15/16/5 14/15/5
f 14/15/5 24/36/5 25/46/5
f 24/36/6 14/15/6 13/18/6
f 13/18/6 27/37/6 24/36/6
f 26/47/7 34/22/7 35/21/7
f 35/21/7 22/32/7 26/47/7
f 27/37/8 13/18/8 34/22/8
f 34/22/8 26/47/8 27/37/8
f 85/41/7 88/23/7 15/16/7
f 15/16/7 25/46/7 85/41/7
f 20/25/9 23/33/9 22/32/9
f 22/32/9 35/21/9 20/25/9
f 16/26/10 18/27/10 31/40/10
f 31/40/10 30/42/10 16/26/10
f 36/28/11 16/26/11 30/42/11
f 30/42/11 33/43/11 36/28/11
f 32/45/7 28/48/7 19/29/7
f 19/29/7 17/30/7 32/45/7
f 36/28/18 33/43/18 32/45/18
f 32/45/12 17/30/12 36/28/12
f 88/23/7 85/41/7 31/40/7
f 31/40/7 18/27/7 88/23/7
f 28/48/13 29/49/13 21/31/13
f 21/31/13 19/29/13 28/48/13
f 83/3/19 89/50/19 37/51/19
f 37/51/20 11/24/20 83/3/20
f 20/25/21 11/24/21 92/52/21
f 93/53/21 39/54/21 20/25/21
f 12/2/22 21/31/22 40/55/22
f 40/55/22 38/56/22 12/2/22
f 23/33/21 20/25/21 39/54/21
f 39/54/21 41/57/21 23/33/21
f 90/34/23 76/58/23 42/59/23
f 42/59/23 29/49/23 90/34/23
f 21/31/22 29/49/22 94/60/22
f 95/61/22 40/55/22 21/31/22
f 99/62/24 77/63/24 78/64/24
f 78/64/24 100/65/24 101/66/24
f 78/64/24 77/63/24 105/67/24
f 106/68/24 107/69/24 78/64/24
f 144/70/24 145/71/24 146/72/24
f 147/73/24 148/74/24 149/75/24
f 150/76/24 151/77/24 152/78/24
f 153/79/24 154/80/24 155/81/24
f 77/63/24 156/82/24 157/83/24
f 158/84/24 159/85/24 160/86/24
f 161/87/24 162/88/24 163/89/24
f 77/63/24 164/90/24 165/91/24
f 77/63/24 166/92/24 167/93/24
f 77/63/24 168/94/24 169/95/24
f 75/6/3 8/5/3 7/17/3
f 7/17/3 82/9/3 75/6/3
f 80/12/4 6/19/4 5/8/4
f 5/8/4 81/7/4 80/12/4
f 1/20/1 83/3/1 11/24/1
f 1/20/1 79/4/1 83/3/1
f 79/4/7 1/20/7 6/19/7
f 6/19/7 80/12/7 79/4/7
f 25/46/16 24/36/16 84/39/16
f 84/39/16 85/41/16 25/46/16
f 27/37/17 26/47/17 86/44/17
f 86/44/17 87/38/17 27/37/17
f 26/47/7 22/32/7 91/35/7
f 91/35/7 86/44/7 26/47/7
f 23/33/23 170/96/23 76/58/23
f 76/58/23 90/34/23 23/33/23
f 171/97/24 172/98/24 173/99/24
f 174/100/24 175/101/24 176/102/24
f 177/103/24 178/104/24 179/105/24
f 180/106/24 181/107/24 182/108/24
f 183/109/24 184/110/24 78/64/24
f 4/14/7 2/1/7 79/4/7
f 79/4/7 80/12/7 4/14/7
f 9/11/2 3/13/2 81/7/2
f 81/7/2 75/6/2 9/11/2
f 87/38/15 33/43/15 30/42/15
f 30/42/15 84/39/15 87/38/15
f 91/35/7 28/48/7 32/45/7
f 32/45/7 86/44/7 91/35/7
f 90/34/14 29/49/14 28/48/14
f 28/48/14 91/35/14 90/34/14
f 12/2/25 185/111/25 89/50/25
f 89/50/19 83/3/19 12/2/19
f 186/112/24 187/113/24 188/114/24
f 189/115/24 190/116/24 191/117/24
f 192/118/24 193/119/24 194/120/24
f 195/121/24 196/122/24 197/123/24
f 198/124/24 199/125/24 200/126/24
f 201/127/24 202/128/24 77/63/24
f 78/64/24 203/129/24 204/130/24
f 205/131/24 206/132/24 207/133/24
f 208/134/24 209/135/24 210/136/24
f 78/64/24 211/137/24 212/138/24
f 78/64/24 213/139/24 214/140/24
usemtl MAT003824V1-ICOM
f 57/141/25 58/142/25 44/143/25
f 44/143/25 43/144/25 57/141/25
f 43/144/26 44/143/26 46/145/26
f 46/145/26 45/146/26 43/144/26
f 45/146/22 46/145/22 48/147/22
f 48/147/22 47/148/22 45/146/22
f 96/149/27 97/150/27 50/151/27
f 50/151/27 49/152/27 98/153/27
f 49/152/28 50/151/28 52/154/28
f 52/154/28 51/155/28 49/152/28
f 51/155/29 52/154/29 54/156/29
f 54/156/29 53/157/29 51/155/29
f 53/157/21 54/156/21 56/158/21
f 56/158/21 55/159/21 53/157/21
f 55/159/30 56/158/30 58/142/30
f 58/142/30 57/141/30 55/159/30
f 59/160/25 62/161/25 61/162/25
f 61/162/25 60/163/25 59/160/25
f 62/161/30 64/164/30 63/165/30
f 63/165/30 61/162/30 62/161/30
f 64/164/21 66/166/21 65/167/21
f 65/167/21 63/165/21 64/164/21
f 66/166/29 68/168/29 67/169/29
f 67/169/29 65/167/29 66/166/29
f 68/168/28 70/170/28 69/171/28
f 69/171/28 67/169/28 68/168/28
f 70/170/27 72/172/27 71/173/27
f 71/173/27 69/171/27 70/170/27
f 72/172/22 74/174/22 73/175/22
f 73/175/22 71/173/22 72/172/22
f 102/176/26 59/160/26 60/163/26
f 60/163/26 103/177/26 104/178/26
f 108/179/24 109/180/24 110/181/24
f 111/182/24 112/183/24 113/184/24
f 114/185/24 115/186/24 116/187/24
f 117/188/24 118/189/24 119/190/24
f 120/191/24 121/192/24 122/193/24
f 123/194/24 124/195/24 125/196/24
f 126/197/24 127/198/24 128/199/24
f 129/200/24 130/201/24 131/202/24
f 132/203/24 133/204/24 134/205/24
f 135/206/24 136/207/24 137/208/24
f 138/209/24 139/210/24 140/211/24
f 141/212/24 142/213/24 143/214/24
