# Blender v2.78 (sub 0) OBJ File: ''
# www.blender.org
mtllib IKEA.ART.90221035.mtl
o model_model.023
v 0.191462 -0.191478 0.009000
v 0.198491 -0.198500 0.003394
v 0.198491 -0.054648 0.003394
v 0.191462 -0.054648 0.009000
v 0.133948 0.133961 0.004354
v 0.133948 -0.054648 0.004354
v 0.143485 -0.054648 0.004381
v 0.143485 0.143494 0.004381
v 0.118447 -0.054648 0.009000
v 0.118447 -0.118460 0.009000
v 0.133948 -0.133961 0.004354
v 0.147266 -0.054648 0.009000
v 0.143485 -0.143494 0.004381
v 0.147266 -0.149004 0.009000
v 0.099996 0.133961 0.004354
v 0.099996 0.118460 0.009000
v 0.118447 0.118460 0.009000
v 0.099996 0.143494 0.004381
v 0.147266 0.149004 0.009000
v 0.191462 0.191478 0.009000
v 0.099996 0.191478 0.009000
v 0.099996 0.149004 0.009000
v 0.099996 -0.054648 0.009000
v 0.198491 0.198500 0.003394
v 0.099996 0.198500 0.003394
v 0.099996 -0.133961 0.004354
v 0.099996 -0.118460 0.009000
v 0.099996 -0.143494 0.004381
v 0.099996 -0.191478 0.009000
v 0.099996 -0.149004 0.009000
v 0.099996 -0.198500 0.003394
v -0.191471 0.191478 0.009000
v -0.198500 0.198500 0.003394
v -0.198500 -0.054648 0.003394
v -0.191471 -0.054648 0.009000
v -0.133957 0.133961 0.004354
v -0.143494 0.143494 0.004381
v -0.143494 -0.054648 0.004381
v -0.133957 -0.054648 0.004354
v -0.118456 -0.118460 0.009000
v -0.118456 -0.054648 0.009000
v -0.133957 -0.133961 0.004354
v -0.143494 -0.143494 0.004381
v -0.147275 -0.054648 0.009000
v -0.147275 -0.149004 0.009000
v -0.118456 0.118460 0.009000
v -0.147275 0.149004 0.009000
v -0.191471 -0.191478 0.009000
v -0.198500 -0.198500 0.003394
v 0.198495 -0.054648 -0.009000
v 0.198500 0.198500 -0.009000
v 0.198500 0.198500 -0.009000
v 0.099996 0.198500 -0.009000
v 0.099996 -0.198500 -0.009000
v 0.198491 -0.198500 -0.009000
v -0.198497 0.198500 -0.009000
v -0.198497 -0.054648 -0.009000
v -0.198497 -0.198500 -0.009000
v -0.198497 -0.198500 -0.009000
v -0.169052 0.133728 -0.009000
v -0.173255 -0.054648 -0.009000
v -0.185644 -0.054648 -0.009000
v -0.181935 0.133728 -0.009000
v -0.169052 0.133728 -0.009000
v -0.181935 -0.133728 -0.009000
v -0.169052 -0.133728 -0.009000
v -0.181935 -0.133728 -0.009000
v -0.169052 0.166271 -0.009000
v -0.181935 0.166271 -0.009000
v -0.198497 0.198500 -0.009000
v -0.198497 0.198500 -0.009000
v 0.099996 0.198500 -0.009000
v -0.169052 0.166271 -0.009000
v -0.169052 -0.166271 -0.009000
v 0.099996 -0.198500 -0.009000
v -0.198497 -0.198500 -0.009000
v -0.198497 -0.198500 -0.009000
v -0.181935 -0.166271 -0.009000
v -0.169052 -0.166271 -0.009000
v -0.169052 0.133728 -0.009000
v -0.159222 0.143558 -0.009000
v -0.159222 0.156441 -0.009000
v -0.169052 0.166271 -0.009000
v 0.099996 0.198500 -0.009000
v -0.159222 0.143558 -0.009000
v -0.159222 0.156441 -0.009000
v 0.099996 0.198500 -0.009000
v -0.159222 0.143558 -0.009000
v 0.099996 0.198500 -0.009000
v 0.099996 0.198500 -0.009000
v 0.198500 0.198500 -0.009000
v 0.198500 0.198500 -0.009000
v 0.198495 -0.054648 -0.009000
v -0.198497 0.198500 -0.009000
v -0.198497 0.198500 -0.009000
v -0.181935 0.166271 -0.009000
v -0.191765 0.156441 -0.009000
v -0.198497 -0.054648 -0.009000
v -0.198497 0.198500 -0.009000
v -0.191765 0.156441 -0.009000
v -0.198497 -0.054648 -0.009000
v -0.191765 0.156441 -0.009000
v -0.191765 0.143558 -0.009000
v -0.198497 -0.054648 -0.009000
v -0.191765 0.143558 -0.009000
v -0.181935 0.133728 -0.009000
v -0.198497 -0.054648 -0.009000
v -0.181935 0.133728 -0.009000
v 0.198491 -0.198500 -0.009000
v 0.198495 -0.054648 -0.009000
v 0.198491 -0.198500 -0.009000
v 0.099996 -0.198500 -0.009000
v 0.099996 -0.198500 -0.009000
v -0.169052 -0.166271 -0.009000
v -0.159222 -0.156441 -0.009000
v 0.198495 -0.054648 -0.009000
v 0.099996 -0.198500 -0.009000
v -0.159222 -0.156441 -0.009000
v 0.198495 -0.054648 -0.009000
v -0.159222 -0.156441 -0.009000
v -0.159222 -0.143558 -0.009000
v 0.198495 -0.054648 -0.009000
v -0.159222 -0.143558 -0.009000
v -0.169052 -0.133728 -0.009000
v 0.198495 -0.054648 -0.009000
v -0.169052 -0.133728 -0.009000
v -0.181935 -0.133728 -0.009000
v -0.191765 -0.143558 -0.009000
v -0.191765 -0.156441 -0.009000
v -0.181935 -0.166271 -0.009000
v -0.198497 -0.198500 -0.009000
v -0.191765 -0.143558 -0.009000
v -0.191765 -0.156441 -0.009000
v -0.198497 -0.198500 -0.009000
v -0.191765 -0.143558 -0.009000
v -0.198497 -0.198500 -0.009000
v -0.198497 -0.198500 -0.009000
v -0.198497 -0.054648 -0.009000
v -0.191765 0.143558 -0.009000
v -0.191765 0.156441 -0.009000
v -0.191765 0.156441 0.003816
v -0.191765 0.143558 0.003816
v -0.181935 0.166271 -0.009000
v -0.181935 0.166271 0.003816
v -0.169052 0.166271 -0.009000
v -0.169052 0.166271 0.003816
v -0.169052 0.166271 -0.009000
v -0.159222 0.156441 -0.009000
v -0.159222 0.156441 0.003816
v -0.169052 0.166271 0.003816
v -0.169052 0.166271 -0.009000
v -0.159222 0.143558 -0.009000
v -0.159222 0.143558 0.003816
v -0.169052 0.133728 -0.009000
v -0.169052 0.133728 0.003816
v -0.181935 0.133728 -0.009000
v -0.181935 0.133728 0.003816
v -0.191765 -0.156441 0.003816
v -0.191765 -0.156441 -0.009000
v -0.191765 -0.143558 -0.009000
v -0.191765 -0.143558 0.003816
v -0.181935 -0.166271 0.003816
v -0.181935 -0.166271 -0.009000
v -0.169052 -0.166271 0.003816
v -0.169052 -0.166271 -0.009000
v -0.159222 -0.156441 0.003816
v -0.159222 -0.156441 -0.009000
v -0.159222 -0.143558 0.003816
v -0.159222 -0.143558 -0.009000
v -0.169052 -0.133728 0.003816
v -0.169052 -0.133728 -0.009000
v -0.181935 -0.133728 0.003816
v -0.181935 -0.133728 -0.009000
v -0.181935 -0.133728 -0.009000
v -0.181935 -0.133728 -0.009000
v -0.181935 -0.133728 0.003816
v -0.181935 0.166271 0.003816
v -0.169052 0.166271 0.003816
v -0.159222 0.156441 0.003816
v -0.159222 0.156441 0.003816
v -0.159222 0.143558 0.003816
v -0.169052 0.133728 0.003816
v -0.169052 0.133728 0.003816
v -0.181935 0.133728 0.003816
v -0.191765 0.143558 0.003816
v -0.159222 0.156441 0.003816
v -0.169052 0.133728 0.003816
v -0.191765 0.143558 0.003816
v -0.181935 0.166271 0.003816
v -0.159222 0.156441 0.003816
v -0.191765 0.143558 0.003816
v -0.191765 0.156441 0.003816
v -0.181935 0.166271 0.003816
v -0.191765 0.143558 0.003816
v -0.181935 -0.133728 0.003816
v -0.169052 -0.133728 0.003816
v -0.159222 -0.143558 0.003816
v -0.159222 -0.143558 0.003816
v -0.159222 -0.156441 0.003816
v -0.169052 -0.166271 0.003816
v -0.169052 -0.166271 0.003816
v -0.181935 -0.166271 0.003816
v -0.191765 -0.156441 0.003816
v -0.159222 -0.143558 0.003816
v -0.169052 -0.166271 0.003816
v -0.191765 -0.156441 0.003816
v -0.181935 -0.133728 0.003816
v -0.159222 -0.143558 0.003816
v -0.191765 -0.156441 0.003816
v -0.191765 -0.143558 0.003816
v -0.181935 -0.133728 0.003816
v -0.191765 -0.156441 0.003816
vt 0.3257 0.0240
vt 0.3258 0.0106
vt 0.4422 0.1204
vt 0.4348 0.1277
vt 0.5339 0.3262
vt 0.3884 0.1745
vt 0.3959 0.1670
vt 0.5481 0.3260
vt 0.3754 0.1876
vt 0.3242 0.1381
vt 0.3244 0.1138
vt 0.4009 0.1620
vt 0.3246 0.0996
vt 0.3236 0.0899
vt 0.5086 0.3537
vt 0.4956 0.3410
vt 0.5097 0.3265
vt 0.5162 0.3611
vt 0.5579 0.3268
vt 0.6238 0.3247
vt 0.5560 0.3991
vt 0.5223 0.3669
vt 0.3607 0.2023
vt 0.6373 0.3245
vt 0.5635 0.4064
vt 0.2968 0.1392
vt 0.3096 0.1523
vt 0.2894 0.1315
vt 0.2514 0.0915
vt 0.2836 0.1254
vt 0.2442 0.0840
vt 0.3225 0.6221
vt 0.3225 0.6358
vt 0.1183 0.4420
vt 0.1257 0.4348
vt 0.3226 0.5318
vt 0.3227 0.5462
vt 0.1652 0.3966
vt 0.1728 0.3893
vt 0.1388 0.3252
vt 0.1858 0.3767
vt 0.1144 0.3246
vt 0.1001 0.3242
vt 0.1602 0.4015
vt 0.0902 0.3229
vt 0.3226 0.5074
vt 0.3238 0.5561
vt 0.0243 0.3229
vt 0.0107 0.3226
vt 0.4519 0.1106
vt 0.6473 0.3149
vt 0.6477 0.3338
vt 0.5734 0.4160
vt 0.2347 0.0740
vt 0.3166 0.0003
vt 0.3320 0.6458
vt 0.1084 0.4517
vt 0.0003 0.3319
vt 0.0007 0.3129
vt 0.9455 0.1926
vt 0.7363 0.1926
vt 0.7360 0.1788
vt 0.6483 0.2331
vt 0.8570 0.2189
vt 0.8583 0.2331
vt 0.6483 0.1849
vt 0.7361 0.3340
vt 0.6483 0.3387
vt 0.6483 0.3244
vt 0.6483 0.5109
vt 0.6580 0.5004
vt 0.6968 0.5109
vt 0.6483 0.0912
vt 0.9797 0.0912
vt 0.6810 0.1270
vt 0.6810 0.1277
vt 0.9797 0.1635
vt 0.6483 0.1635
vt 0.6483 0.4997
vt 0.6872 0.4891
vt 0.6968 0.4997
vt 0.6483 0.2857
vt 0.8573 0.2756
vt 0.8689 0.2857
vt 0.6579 0.2182
vt 0.6483 0.2061
vt 0.9492 0.2061
vt 0.6483 0.1782
vt 0.6513 0.1642
vt 0.9425 0.1782
vt 0.5003 0.7973
vt 0.6613 0.6465
vt 0.9139 0.7973
vt 0.5003 0.9839
vt 0.9093 0.9224
vt 0.9997 0.9839
vt 0.0003 0.6465
vt 0.4997 0.6465
vt 0.3415 0.8788
vt 0.3130 0.6458
vt 0.6956 0.4628
vt 0.6574 0.4753
vt 0.6483 0.4628
vt 0.6483 0.2864
vt 0.9294 0.2864
vt 0.8827 0.2938
vt 0.6483 0.5950
vt 0.7291 0.5950
vt 0.7242 0.5963
vt 0.6483 0.2487
vt 0.8685 0.2487
vt 0.8580 0.2600
vt 0.6483 0.2338
vt 0.8583 0.2338
vt 0.6496 0.2480
vt 0.3353 0.0006
vt 0.8419 0.0003
vt 0.7101 0.0906
vt 0.6483 0.0003
vt 0.9492 0.2054
vt 0.6483 0.2054
vt 0.6579 0.1933
vt 0.9132 0.7980
vt 0.7644 0.9217
vt 0.5003 0.7980
vt 0.4132 0.9818
vt 0.0003 0.9818
vt 0.0043 0.9681
vt 0.4177 0.9825
vt 0.0087 0.9955
vt 0.0003 0.9825
vt 0.4125 0.9014
vt 0.0003 0.9674
vt 0.0003 0.8795
vt 0.7473 0.3393
vt 0.6600 0.3495
vt 0.6483 0.3393
vt 0.6956 0.4760
vt 0.6866 0.4885
vt 0.6483 0.4760
vt 0.7098 0.5970
vt 0.6956 0.5988
vt 0.6483 0.5970
vt 0.8087 0.5116
vt 0.7097 0.5136
vt 0.6483 0.5116
vt 0.8087 0.2749
vt 0.6483 0.2749
vt 0.8074 0.2607
vt 0.7232 0.2945
vt 0.7375 0.2945
vt 0.7375 0.3088
vt 0.7232 0.3088
vt 0.7530 0.2945
vt 0.7530 0.3088
vt 0.7673 0.2946
vt 0.7673 0.3088
vt 0.6483 0.2945
vt 0.6638 0.2945
vt 0.6638 0.3087
vt 0.6638 0.5285
vt 0.6483 0.5285
vt 0.6483 0.5143
vt 0.6781 0.2945
vt 0.6781 0.3087
vt 0.6935 0.2945
vt 0.6935 0.3088
vt 0.7078 0.2945
vt 0.7078 0.3088
vt 0.7375 0.3237
vt 0.7375 0.3095
vt 0.7518 0.3095
vt 0.7518 0.3237
vt 0.7221 0.3237
vt 0.7221 0.3095
vt 0.7078 0.3237
vt 0.7078 0.3095
vt 0.6924 0.3237
vt 0.6924 0.3095
vt 0.6781 0.3237
vt 0.6781 0.3095
vt 0.6626 0.3237
vt 0.6626 0.3095
vt 0.6483 0.3237
vt 0.6483 0.3095
vt 0.7673 0.3095
vt 0.6638 0.5292
vt 0.6638 0.5435
vt 0.6483 0.5435
vt 0.6483 0.5689
vt 0.6615 0.5632
vt 0.6758 0.5689
vt 0.6758 0.5505
vt 0.6627 0.5562
vt 0.6483 0.5505
vt 0.6758 0.5569
vt 0.6627 0.5625
vt 0.6483 0.5569
vt 0.6758 0.4058
vt 0.6483 0.4058
vt 0.6483 0.3783
vt 0.6758 0.4065
vt 0.6758 0.4340
vt 0.6483 0.4065
vt 0.6615 0.5441
vt 0.6758 0.5498
vt 0.6483 0.5498
vt 0.6483 0.5880
vt 0.6615 0.5823
vt 0.6758 0.5880
vt 0.6758 0.5759
vt 0.6627 0.5816
vt 0.6483 0.5759
vt 0.6758 0.5887
vt 0.6627 0.5943
vt 0.6483 0.5887
vt 0.6758 0.3776
vt 0.6483 0.3776
vt 0.6483 0.3502
vt 0.6758 0.4346
vt 0.6758 0.4621
vt 0.6483 0.4346
vt 0.6615 0.5696
vt 0.6758 0.5753
vt 0.6483 0.5753
vn 0.6235 -0.0000 0.7818
vn -0.0014 -0.0014 1.0000
vn -0.0028 -0.0000 1.0000
vn 0.2871 -0.0000 0.9579
vn -0.7738 -0.0000 0.6334
vn 0.0000 0.2871 0.9579
vn 0.0000 -0.0028 1.0000
vn 0.0000 -0.0000 1.0000
vn 0.0000 -0.6424 0.7663
vn 0.0000 0.6239 0.7815
vn 0.0000 -0.2871 0.9579
vn 0.0000 0.0028 1.0000
vn -0.0014 0.0014 1.0000
vn 0.0000 0.6424 0.7663
vn 0.0000 -0.6239 0.7815
vn -0.6235 -0.0000 0.7818
vn 0.0014 -0.0014 1.0000
vn 0.0028 -0.0000 1.0000
vn -0.2871 -0.0000 0.9579
vn 0.7738 -0.0000 0.6334
vn 0.0014 0.0014 1.0000
vn 1.0000 0.0000 0.0007
vn 1.0000 -0.0000 0.0003
vn 0.0000 1.0000 0.0000
vn 0.0000 -1.0000 0.0000
vn -1.0000 0.0000 -0.0002
vn 0.0000 0.0000 -1.0000
vn 1.0000 -0.0000 0.0000
vn 0.7071 -0.7071 0.0000
vn -0.7071 -0.7071 0.0000
vn -1.0000 0.0000 0.0000
vn -0.7071 0.7071 0.0000
vn 0.7071 0.7071 0.0000
usemtl Material.005
s 1
f 1/1/1 2/2/1 3/3/1
f 3/3/1 4/4/1 1/1/1
f 5/5/2 6/6/3 7/7/3
f 7/7/3 8/8/2 5/5/2
f 6/6/4 9/9/4 10/10/4
f 10/10/4 11/11/4 6/6/4
f 12/12/5 7/7/5 13/13/5
f 13/13/5 14/14/5 12/12/5
f 15/15/6 16/16/6 17/17/6
f 17/17/6 5/5/6 15/15/6
f 5/5/2 8/8/2 18/18/7
f 18/18/7 15/15/7 5/5/2
f 19/19/8 20/20/8 21/21/8
f 21/21/8 22/22/8 19/19/8
f 22/22/9 18/18/9 8/8/9
f 8/8/9 19/19/9 22/22/9
f 16/16/8 23/23/8 9/9/8
f 9/9/8 17/17/8 16/16/8
f 20/20/10 24/24/10 25/25/10
f 20/20/10 25/25/10 21/21/10
f 26/26/11 11/11/11 10/10/11
f 10/10/11 27/27/11 26/26/11
f 28/28/12 13/13/13 11/11/13
f 11/11/13 26/26/12 28/28/12
f 29/29/8 1/1/8 14/14/8
f 14/14/8 30/30/8 29/29/8
f 30/30/14 14/14/14 13/13/14
f 13/13/14 28/28/14 30/30/14
f 10/10/8 9/9/8 23/23/8
f 23/23/8 27/27/8 10/10/8
f 31/31/15 2/2/15 1/1/15
f 1/1/15 29/29/15 31/31/15
f 32/32/16 33/33/16 34/34/16
f 34/34/16 35/35/16 32/32/16
f 36/36/17 37/37/17 38/38/18
f 38/38/18 39/39/18 36/36/17
f 40/40/19 41/41/19 39/39/19
f 39/39/19 42/42/19 40/40/19
f 43/43/20 38/38/20 44/44/20
f 44/44/20 45/45/20 43/43/20
f 46/46/6 16/16/6 15/15/6
f 15/15/6 36/36/6 46/46/6
f 36/36/17 15/15/7 18/18/7
f 18/18/7 37/37/17 36/36/17
f 47/47/8 22/22/8 21/21/8
f 21/21/8 32/32/8 47/47/8
f 37/37/9 18/18/9 22/22/9
f 22/22/9 47/47/9 37/37/9
f 41/41/8 23/23/8 16/16/8
f 16/16/8 46/46/8 41/41/8
f 25/25/10 33/33/10 32/32/10
f 32/32/10 21/21/10 25/25/10
f 26/26/11 27/27/11 40/40/11
f 40/40/11 42/42/11 26/26/11
f 28/28/12 26/26/12 42/42/21
f 42/42/21 43/43/21 28/28/12
f 45/45/8 48/48/8 29/29/8
f 29/29/8 30/30/8 45/45/8
f 30/30/14 28/28/14 43/43/14
f 43/43/14 45/45/14 30/30/14
f 23/23/8 41/41/8 40/40/8
f 40/40/8 27/27/8 23/23/8
f 48/48/15 49/49/15 31/31/15
f 31/31/15 29/29/15 48/48/15
f 3/3/22 50/50/23 51/51/22
f 51/51/22 24/24/22 3/3/22
f 24/24/24 52/52/24 53/53/24
f 53/53/24 25/25/24 24/24/24
f 31/31/25 54/54/25 55/55/25
f 55/55/25 2/2/25 31/31/25
f 25/25/24 53/53/24 56/56/24
f 56/56/24 33/33/24 25/25/24
f 34/34/26 57/57/26 58/58/26
f 58/58/26 49/49/26 34/34/26
f 49/49/25 59/59/25 54/54/25
f 54/54/25 31/31/25 49/49/25
f 60/60/27 61/61/27 62/62/27
f 62/63/27 63/64/27 64/65/27
f 65/66/27 62/62/27 61/61/27
f 61/67/27 66/68/27 67/69/27
f 68/70/27 69/71/27 70/72/27
f 71/73/27 72/74/27 73/75/27
f 74/76/27 75/77/27 76/78/27
f 77/79/27 78/80/27 79/81/27
f 61/82/27 80/83/27 81/84/27
f 82/85/27 83/86/27 84/87/27
f 85/88/27 86/89/27 87/90/27
f 61/91/27 88/92/27 89/93/27
f 61/94/27 90/95/27 91/96/27
f 61/97/27 92/98/27 93/99/27
f 6/6/4 5/5/4 17/17/4
f 17/17/4 9/9/4 6/6/4
f 12/12/5 19/19/5 8/8/5
f 8/8/5 7/7/5 12/12/5
f 20/20/1 3/3/1 24/24/1
f 20/20/1 4/4/1 3/3/1
f 4/4/8 20/20/8 19/19/8
f 19/19/8 12/12/8 4/4/8
f 46/46/19 36/36/19 39/39/19
f 39/39/19 41/41/19 46/46/19
f 37/37/20 47/47/20 44/44/20
f 44/44/20 38/38/20 37/37/20
f 47/47/8 32/32/8 35/35/8
f 35/35/8 44/44/8 47/47/8
f 33/33/26 94/100/26 57/57/26
f 57/57/26 34/34/26 33/33/26
f 95/101/27 96/102/27 97/103/27
f 98/104/27 99/105/27 100/106/27
f 101/107/27 102/108/27 103/109/27
f 104/110/27 105/111/27 106/112/27
f 107/113/27 108/114/27 62/115/27
f 14/14/8 1/1/8 4/4/8
f 4/4/8 12/12/8 14/14/8
f 11/11/13 13/13/13 7/7/3
f 7/7/3 6/6/3 11/11/13
f 38/38/18 43/43/21 42/42/21
f 42/42/21 39/39/18 38/38/18
f 35/35/8 48/48/8 45/45/8
f 45/45/8 44/44/8 35/35/8
f 34/34/16 49/49/16 48/48/16
f 48/48/16 35/35/16 34/34/16
f 2/2/28 109/116/28 50/50/23
f 50/50/23 3/3/22 2/2/28
f 110/117/27 111/118/27 112/119/27
f 113/120/27 114/121/27 115/122/27
f 116/123/27 117/124/27 118/125/27
f 119/126/27 120/127/27 121/128/27
f 122/129/27 123/130/27 124/131/27
f 125/132/27 126/133/27 61/134/27
f 62/135/27 127/136/27 128/137/27
f 129/138/27 130/139/27 131/140/27
f 132/141/27 133/142/27 134/143/27
f 62/144/27 135/145/27 136/146/27
f 62/147/27 137/148/27 138/149/27
f 139/150/28 140/151/28 141/152/28
f 141/152/28 142/153/28 139/150/28
f 140/151/29 143/154/29 144/155/29
f 144/155/29 141/152/29 140/151/29
f 143/154/25 145/156/25 146/157/25
f 146/157/25 144/155/25 143/154/25
f 147/158/30 148/159/30 149/160/30
f 149/161/30 150/162/30 151/163/30
f 148/159/31 152/164/31 153/165/31
f 153/165/31 149/160/31 148/159/31
f 152/164/32 154/166/32 155/167/32
f 155/167/32 153/165/32 152/164/32
f 154/166/24 156/168/24 157/169/24
f 157/169/24 155/167/24 154/166/24
f 156/168/33 139/150/33 142/153/33
f 142/153/33 157/169/33 156/168/33
f 158/170/28 159/171/28 160/172/28
f 160/172/28 161/173/28 158/170/28
f 162/174/33 163/175/33 159/171/33
f 159/171/33 158/170/33 162/174/33
f 164/176/24 165/177/24 163/175/24
f 163/175/24 162/174/24 164/176/24
f 166/178/32 167/179/32 165/177/32
f 165/177/32 164/176/32 166/178/32
f 168/180/31 169/181/31 167/179/31
f 167/179/31 166/178/31 168/180/31
f 170/182/30 171/183/30 169/181/30
f 169/181/30 168/180/30 170/182/30
f 172/184/25 173/185/25 171/183/25
f 171/183/25 170/182/25 172/184/25
f 161/173/29 160/172/29 174/186/29
f 175/187/29 176/188/29 161/189/29
f 177/190/27 178/191/27 179/192/27
f 180/193/27 181/194/27 182/195/27
f 183/196/27 184/197/27 185/198/27
f 186/199/27 187/200/27 188/201/27
f 189/202/27 190/203/27 191/204/27
f 192/205/27 193/206/27 194/207/27
f 195/208/27 196/209/27 197/210/27
f 198/211/27 199/212/27 200/213/27
f 201/214/27 202/215/27 203/216/27
f 204/217/27 205/218/27 206/219/27
f 207/220/27 208/221/27 209/222/27
f 210/223/27 211/224/27 212/225/27
