# Blender v2.78 (sub 0) OBJ File: ''
# www.blender.org
mtllib IKEA.ART.30226903_60x63_5cm_60315177.mtl
o model_model.074
v 0.299632 0.019000 -0.316000
v -0.299634 0.019000 -0.316000
v -0.299634 0.019000 0.316000
v 0.299632 0.019000 0.316000
v -0.299634 -0.019000 0.316000
v -0.299634 -0.019000 -0.316000
v 0.299632 -0.019000 -0.316000
v 0.299632 -0.019000 0.316000
v 0.300000 0.006000 0.316000
v 0.300000 0.006000 -0.316000
v 0.300000 0.017500 -0.316000
v 0.300000 0.017500 0.316000
v -0.299634 0.017500 0.317500
v -0.299634 0.006000 0.317500
v 0.299632 0.006000 0.317500
v 0.299632 0.017500 0.317500
v 0.299632 0.006000 -0.317500
v -0.299634 0.006000 -0.317500
v -0.299634 0.017500 -0.317500
v 0.299632 0.017500 -0.317500
v -0.300000 0.017500 -0.316000
v -0.300000 0.006000 -0.316000
v -0.300000 0.006000 0.316000
v -0.300000 0.017500 0.316000
v 0.300000 -0.017500 0.316000
v 0.300000 -0.017500 -0.316000
v -0.299634 -0.017500 0.317500
v 0.299632 -0.017500 0.317500
v 0.299632 -0.017500 -0.317500
v -0.299634 -0.017500 -0.317500
v -0.300000 -0.017500 -0.316000
v -0.300000 -0.017500 0.316000
v 0.299632 0.019000 -0.316000
v 0.299632 0.017500 -0.317500
v 0.299632 0.006000 -0.317500
v 0.299632 0.006000 -0.317500
v 0.299632 0.006000 0.317500
v 0.299632 0.017500 0.317500
v 0.299632 0.019000 -0.316000
v 0.299632 0.006000 -0.317500
v 0.299632 0.017500 0.317500
v 0.299632 0.019000 0.316000
v 0.299632 0.019000 -0.316000
v 0.299632 0.017500 0.317500
v -0.299634 0.006000 0.317500
v -0.299634 0.006000 -0.317500
v -0.299634 0.017500 -0.317500
v -0.299634 0.017500 -0.317500
v -0.299634 0.019000 -0.316000
v -0.299634 0.019000 0.316000
v -0.299634 0.006000 0.317500
v -0.299634 0.017500 -0.317500
v -0.299634 0.019000 0.316000
v -0.299634 0.017500 0.317500
v -0.299634 0.006000 0.317500
v -0.299634 0.019000 0.316000
v -0.299634 0.019000 -0.316000
v -0.299634 0.006000 -0.316000
v 0.299632 0.006000 -0.316000
v 0.299632 0.006000 -0.316000
v 0.299632 0.019000 -0.316000
v -0.299634 -0.019000 -0.316000
v -0.299634 0.006000 -0.316000
v 0.299632 0.006000 -0.316000
v 0.299632 -0.019000 -0.316000
v -0.299634 -0.019000 -0.316000
v -0.299634 -0.019000 0.316000
v -0.299634 0.006000 0.316000
v 0.299632 0.006000 0.316000
v 0.299632 0.006000 0.316000
v 0.299632 -0.019000 0.316000
v -0.299634 -0.019000 0.316000
v 0.299632 -0.019000 -0.316000
v 0.299632 0.006000 -0.316000
v 0.299632 0.006000 0.316000
v 0.299632 -0.019000 0.316000
v 0.299632 -0.019000 -0.316000
v -0.299634 0.019000 0.316000
v -0.299634 0.006000 0.316000
v 0.299632 0.006000 0.316000
v 0.299632 0.019000 0.316000
v -0.299634 0.019000 0.316000
v -0.299634 0.019000 -0.316000
v -0.299634 0.006000 -0.316000
v -0.299634 0.006000 0.316000
v -0.299634 0.019000 0.316000
v -0.299634 0.019000 -0.316000
v 0.299632 -0.019000 0.316000
v 0.299632 -0.017500 0.317500
v 0.299632 0.006000 0.317500
v 0.299632 -0.019000 -0.316000
v 0.299632 -0.019000 0.316000
v 0.299632 0.006000 0.317500
v 0.299632 -0.017500 -0.317500
v 0.299632 -0.019000 -0.316000
v 0.299632 0.006000 0.317500
v 0.299632 0.006000 -0.317500
v 0.299632 -0.017500 -0.317500
v 0.299632 0.006000 0.317500
v -0.299634 -0.019000 -0.316000
v -0.299634 -0.017500 -0.317500
v -0.299634 0.006000 -0.317500
v -0.299634 -0.019000 0.316000
v -0.299634 -0.019000 -0.316000
v -0.299634 0.006000 -0.317500
v -0.299634 -0.017500 0.317500
v -0.299634 -0.019000 0.316000
v -0.299634 0.006000 -0.317500
v -0.299634 0.006000 0.317500
v -0.299634 -0.017500 0.317500
v -0.299634 0.006000 -0.317500
v -0.299634 -0.019000 -0.316000
v 0.299632 -0.019000 -0.316000
v 0.299632 0.006000 -0.316000
v 0.299632 0.006000 -0.316000
v -0.299634 -0.019000 -0.316000
v -0.299634 0.019000 -0.316000
v 0.299632 0.019000 -0.316000
v -0.299634 0.019000 -0.316000
v -0.299634 0.019000 0.316000
v 0.299632 0.019000 0.316000
v 0.299632 0.006000 0.316000
v 0.299632 0.006000 0.316000
v -0.299634 0.006000 0.316000
v -0.299634 0.019000 0.316000
v 0.299632 0.019000 -0.316000
v 0.299632 0.019000 0.316000
v 0.299632 0.019000 -0.316000
v -0.299634 -0.019000 0.316000
v 0.299632 -0.019000 0.316000
v -0.299634 -0.019000 0.316000
v -0.299634 -0.019000 -0.316000
v -0.299634 -0.019000 0.316000
v -0.299634 -0.019000 -0.316000
v 0.299632 0.017500 0.317500
v 0.299632 0.019000 0.316000
v 0.299632 0.006000 0.317500
v -0.299634 0.017500 0.317500
v -0.299634 0.019000 0.316000
v -0.299634 0.006000 0.317500
v -0.299634 0.019000 -0.316000
v 0.299632 0.019000 0.316000
v -0.299634 0.019000 0.316000
v 0.299632 -0.017500 0.317500
v 0.299632 -0.019000 0.316000
v -0.299634 -0.017500 0.317500
v -0.299634 -0.019000 0.316000
v -0.299634 -0.019000 -0.316000
v -0.299634 -0.019000 0.316000
v 0.299632 -0.019000 0.316000
v 0.299632 0.017500 -0.317500
v 0.299632 0.019000 -0.316000
v 0.299632 0.006000 -0.317500
v -0.299634 0.017500 -0.317500
v -0.299634 0.006000 -0.317500
v 0.299632 -0.017500 -0.317500
v 0.299632 -0.019000 -0.316000
v -0.299634 -0.017500 -0.317500
v 0.299632 -0.019000 -0.316000
v -0.299634 -0.019000 -0.316000
v 0.299632 0.019000 -0.316000
v 0.299632 0.006000 -0.316000
v 0.299632 0.006000 -0.317500
v 0.299632 0.006000 -0.317500
v 0.299632 0.017500 -0.317500
v 0.299632 0.019000 -0.316000
v -0.299634 0.019000 -0.316000
v -0.299634 0.017500 -0.317500
v -0.299634 0.006000 -0.317500
v -0.299634 0.006000 -0.317500
v -0.299634 0.006000 -0.316000
v -0.299634 0.019000 -0.316000
v 0.299632 0.006000 0.317500
v 0.299632 0.006000 0.316000
v 0.299632 0.019000 0.316000
v 0.299632 0.019000 0.316000
v 0.299632 0.017500 0.317500
v 0.299632 0.006000 0.317500
v -0.299634 -0.019000 0.316000
v -0.299634 -0.017500 0.317500
v -0.299634 0.006000 0.317500
v -0.299634 0.006000 0.317500
v -0.299634 0.006000 0.316000
v -0.299634 -0.019000 0.316000
v 0.299632 -0.019000 -0.316000
v 0.299632 -0.017500 -0.317500
v 0.299632 0.006000 -0.317500
v 0.299632 0.006000 -0.317500
v 0.299632 -0.019000 -0.316000
v -0.299634 -0.017500 -0.317500
v -0.299634 -0.019000 -0.316000
v -0.299634 0.006000 -0.316000
v -0.299634 0.006000 -0.316000
v -0.299634 0.006000 -0.317500
v -0.299634 -0.017500 -0.317500
v 0.299632 -0.017500 0.317500
v 0.299632 -0.019000 0.316000
v 0.299632 0.006000 0.317500
v 0.299632 -0.017500 0.317500
v -0.299634 0.017500 0.317500
v -0.299634 0.019000 0.316000
v -0.299634 0.006000 0.316000
v -0.299634 0.006000 0.316000
v -0.299634 0.006000 0.317500
v -0.299634 0.017500 0.317500
vt 0.4724 0.4716
vt 0.4724 0.0004
vt 0.9693 0.0004
vt 0.9693 0.4716
vt 0.0004 0.4973
vt 0.0004 0.0004
vt 0.4716 0.0004
vt 0.4716 0.4973
vt 0.5277 0.9258
vt 0.5277 0.4738
vt 0.5372 0.4739
vt 0.5372 0.9257
vt 0.0004 0.5753
vt 0.0004 0.5677
vt 0.3951 0.5677
vt 0.3951 0.5753
vt 0.4038 0.5216
vt 0.0004 0.5215
vt 0.0004 0.5138
vt 0.4038 0.5139
vt 0.4744 0.4739
vt 0.4840 0.4737
vt 0.4839 0.9259
vt 0.4743 0.9257
vt 0.5082 0.9256
vt 0.5081 0.4742
vt 0.0004 0.5522
vt 0.3951 0.5522
vt 0.4038 0.5375
vt 0.0004 0.5373
vt 0.5034 0.4740
vt 0.5035 0.9254
vt 0.4670 0.5079
vt 0.4657 0.5089
vt 0.4567 0.5079
vt 0.7747 0.4724
vt 0.7747 0.9716
vt 0.7657 0.9716
vt 0.7216 0.4737
vt 0.7318 0.4724
vt 0.7318 0.9717
vt 0.7975 0.6554
vt 0.8007 0.4724
vt 0.8007 0.6558
vt 0.7755 0.9716
vt 0.7755 0.4724
vt 0.7846 0.4724
vt 0.7935 0.4724
vt 0.7967 0.4728
vt 0.7935 0.6558
vt 0.7326 0.9718
vt 0.7326 0.4724
vt 0.7428 0.9704
vt 0.4219 0.5071
vt 0.4129 0.5061
vt 0.4232 0.5061
vt 0.0004 0.7270
vt 0.0004 0.7168
vt 0.4716 0.7168
vt 0.4039 0.4981
vt 0.4039 0.5069
vt 0.0005 0.5067
vt 0.0348 0.9886
vt 0.0343 0.9689
vt 0.5054 0.9587
vt 0.4716 0.6034
vt 0.4716 0.6231
vt 0.0004 0.6231
vt 0.0004 0.6436
vt 0.0004 0.6239
vt 0.4716 0.6239
vt 0.4716 0.5830
vt 0.4716 0.6026
vt 0.0004 0.6026
vt 0.5400 0.4724
vt 0.5596 0.4732
vt 0.5400 0.9697
vt 0.6618 0.9697
vt 0.6421 0.9689
vt 0.6618 0.4724
vt 0.0341 0.9579
vt 0.0343 0.9477
vt 0.5054 0.9579
vt 0.4716 0.7058
vt 0.4716 0.7160
vt 0.0004 0.7160
vt 0.5706 0.4724
vt 0.5809 0.4726
vt 0.5706 0.9694
vt 0.7649 0.9693
vt 0.7547 0.9693
vt 0.7547 0.4724
vt 0.4251 0.5032
vt 0.4264 0.5021
vt 0.4448 0.5032
vt 0.6217 0.4724
vt 0.6413 0.9689
vt 0.6217 0.9708
vt 0.7854 0.4724
vt 0.7887 0.4728
vt 0.7854 0.6596
vt 0.6830 0.4731
vt 0.7015 0.4724
vt 0.7015 0.9720
vt 0.4456 0.5012
vt 0.4469 0.5001
vt 0.4653 0.5012
vt 0.6209 0.9708
vt 0.6013 0.4743
vt 0.6209 0.4724
vt 0.7927 0.6596
vt 0.7895 0.6592
vt 0.7927 0.4724
vt 0.7208 0.9716
vt 0.7023 0.9716
vt 0.7208 0.4724
vt 0.0004 0.6648
vt 0.4716 0.6648
vt 0.4716 0.6845
vt 0.4716 0.7050
vt 0.0004 0.7050
vt 0.0004 0.6853
vt 0.0341 0.9996
vt 0.5052 0.9894
vt 0.5054 0.9996
vt 0.0341 0.9587
vt 0.5062 0.9996
vt 0.9772 0.9894
vt 0.9775 0.9996
vt 0.9775 0.9783
vt 0.5064 0.9886
vt 0.5062 0.9783
vt 0.7436 0.4724
vt 0.7538 0.9692
vt 0.7436 0.9694
vt 0.5698 0.4736
vt 0.0004 0.6444
vt 0.4716 0.6444
vt 0.4716 0.6640
vt 0.0348 0.9280
vt 0.6626 0.4724
vt 0.6822 0.9689
vt 0.6626 0.9697
vt 0.6005 0.4730
vt 0.5373 0.9272
vt 0.5391 0.9257
vt 0.5277 0.9271
vt 0.4743 0.9272
vt 0.4724 0.9257
vt 0.4839 0.9272
vt 0.4725 0.4739
vt 0.3952 0.5821
vt 0.0005 0.5821
vt 0.5082 0.9271
vt 0.5063 0.9256
vt 0.5035 0.9269
vt 0.5054 0.9254
vt 0.5053 0.4740
vt 0.0005 0.5453
vt 0.3952 0.5453
vt 0.5373 0.4724
vt 0.5392 0.4739
vt 0.5277 0.4725
vt 0.4744 0.4724
vt 0.4840 0.4724
vt 0.5081 0.4727
vt 0.5062 0.4742
vt 0.5035 0.4725
vt 0.4038 0.5445
vt 0.0005 0.5444
vt 0.4448 0.5052
vt 0.4346 0.5052
vt 0.4346 0.5040
vt 0.4345 0.5089
vt 0.4435 0.5079
vt 0.4448 0.5089
vt 0.4559 0.5079
vt 0.4546 0.5089
vt 0.4456 0.5079
vt 0.4567 0.5070
vt 0.4567 0.5059
vt 0.4669 0.5059
vt 0.4456 0.5070
vt 0.4456 0.5059
vt 0.4558 0.5059
vt 0.4448 0.5060
vt 0.4435 0.5071
vt 0.4345 0.5060
vt 0.4456 0.5051
vt 0.4469 0.5039
vt 0.4653 0.5051
vt 0.4448 0.5001
vt 0.4448 0.5013
vt 0.4252 0.5013
vt 0.4456 0.5031
vt 0.4469 0.5020
vt 0.4653 0.5031
vt 0.4448 0.4981
vt 0.4448 0.4993
vt 0.4252 0.4993
vt 0.4059 0.4993
vt 0.4047 0.4981
vt 0.4243 0.4981
vt 0.4232 0.5021
vt 0.4232 0.5033
vt 0.4047 0.5033
vt 0.4468 0.4993
vt 0.4456 0.4981
vt 0.4653 0.4981
vt 0.4232 0.5001
vt 0.4232 0.5013
vt 0.4047 0.5013
vt 0.4220 0.5041
vt 0.4232 0.5053
vt 0.4129 0.5053
vt 0.4247 0.5052
vt 0.4247 0.5040
vt 0.4338 0.5040
vn 0.0000 1.0000 0.0000
vn 0.0000 -1.0000 -0.0000
vn 1.0000 0.0000 0.0000
vn 0.0000 0.0000 1.0000
vn 0.0000 0.0000 -1.0000
vn -1.0000 0.0000 0.0000
vn 0.9448 0.2318 0.2318
vn 0.9712 0.0000 0.2383
vn -0.9453 0.2307 0.2307
vn -0.9715 0.0000 0.2370
vn -0.9715 0.0000 0.2371
vn -0.9715 0.2370 0.0000
vn -0.9716 0.2367 -0.0000
vn 0.0000 0.7071 0.7071
vn 0.9448 -0.2318 0.2318
vn -0.9453 -0.2307 0.2307
vn -0.9715 -0.2370 -0.0000
vn -0.9716 -0.2367 0.0000
vn 0.0000 -0.7071 0.7071
vn 0.9448 0.2318 -0.2318
vn 0.9712 0.0000 -0.2383
vn 0.9712 0.2383 0.0000
vn -0.9453 0.2307 -0.2307
vn -0.9715 0.0000 -0.2370
vn -0.9715 0.0000 -0.2371
vn 0.0000 0.7071 -0.7071
vn 0.9448 -0.2318 -0.2318
vn 0.9712 -0.2383 -0.0000
vn -0.9453 -0.2307 -0.2307
vn 0.0000 -0.7071 -0.7071
usemtl Material.010
s 1
f 1/1/1 2/2/1 3/3/1
f 3/3/1 4/4/1 1/1/1
f 5/5/2 6/6/2 7/7/2
f 7/7/2 8/8/2 5/5/2
f 9/9/3 10/10/3 11/11/3
f 11/11/3 12/12/3 9/9/3
f 13/13/4 14/14/4 15/15/4
f 15/15/4 16/16/4 13/13/4
f 17/17/5 18/18/5 19/19/5
f 19/19/5 20/20/5 17/17/5
f 21/21/6 22/22/6 23/23/6
f 23/23/6 24/24/6 21/21/6
f 25/25/3 26/26/3 10/10/3
f 10/10/3 9/9/3 25/25/3
f 27/27/4 28/28/4 15/15/4
f 15/15/4 14/14/4 27/27/4
f 29/29/5 30/30/5 18/18/5
f 18/18/5 17/17/5 29/29/5
f 31/31/6 32/32/6 23/23/6
f 23/23/6 22/22/6 31/31/6
f 33/33/6 34/34/6 35/35/6
f 36/36/6 37/37/6 38/38/6
f 39/39/6 40/40/6 41/41/6
f 42/42/6 43/43/6 44/44/6
f 45/45/3 46/46/3 47/47/3
f 48/48/3 49/49/3 50/50/3
f 51/51/3 52/52/3 53/53/3
f 54/54/3 55/55/3 56/56/3
f 57/57/4 58/58/4 59/59/4
f 60/60/4 61/61/4 57/62/4
f 62/63/5 63/64/5 64/65/5
f 64/66/5 65/67/5 66/68/5
f 67/69/5 68/70/5 69/71/5
f 70/72/5 71/73/5 72/74/5
f 73/75/3 74/76/3 75/77/3
f 75/78/3 76/79/3 77/80/3
f 78/81/4 79/82/4 80/83/4
f 80/84/4 81/85/4 82/86/4
f 83/87/6 84/88/6 85/89/6
f 85/90/6 86/91/6 87/92/6
f 88/93/6 89/94/6 90/95/6
f 91/96/6 92/97/6 93/98/6
f 94/99/6 95/100/6 96/101/6
f 97/102/6 98/103/6 99/104/6
f 100/105/3 101/106/3 102/107/3
f 103/108/3 104/109/3 105/110/3
f 106/111/3 107/112/3 108/113/3
f 109/114/3 110/115/3 111/116/3
f 112/117/4 113/118/4 114/119/4
f 115/120/4 58/121/4 116/122/4
f 117/123/5 118/124/5 64/125/5
f 64/65/5 63/64/5 119/126/5
f 120/127/5 121/128/5 122/129/5
f 123/130/5 124/131/5 125/132/5
f 126/133/3 127/134/3 75/135/3
f 75/77/3 74/76/3 128/136/3
f 129/137/4 130/138/4 80/139/4
f 80/83/4 79/82/4 131/140/4
f 132/141/6 133/142/6 85/143/6
f 85/89/6 84/88/6 134/144/6
f 135/145/7 12/12/7 136/146/7
f 12/12/8 135/145/8 137/147/8
f 137/147/8 9/9/8 12/12/8
f 138/148/9 139/149/9 24/24/9
f 24/24/10 23/23/11 140/150/11
f 140/150/11 138/148/10 24/24/10
f 141/151/12 21/21/12 24/24/12
f 24/24/13 139/149/13 141/151/13
f 16/16/14 142/152/14 143/153/14
f 143/153/14 13/13/14 16/16/14
f 144/154/15 145/155/15 25/25/15
f 146/156/16 32/32/16 147/157/16
f 147/157/17 32/32/17 31/31/17
f 31/31/18 148/158/18 147/157/18
f 149/159/19 150/160/19 28/28/19
f 28/28/19 27/27/19 149/159/19
f 151/161/20 152/162/20 11/11/20
f 11/11/21 10/10/21 153/163/21
f 153/163/21 151/161/21 11/11/21
f 152/162/22 136/146/22 12/12/22
f 12/12/22 11/11/22 152/162/22
f 154/164/23 21/21/23 141/151/23
f 21/21/24 154/164/24 155/165/25
f 155/165/25 22/22/25 21/21/24
f 57/62/26 61/61/26 20/20/26
f 20/20/26 19/19/26 57/62/26
f 156/166/27 26/26/27 157/167/27
f 157/167/28 26/26/28 25/25/28
f 25/25/28 145/155/28 157/167/28
f 158/168/29 148/158/29 31/31/29
f 29/29/30 159/169/30 160/170/30
f 160/170/30 30/30/30 29/29/30
f 137/147/8 144/154/8 25/25/8
f 25/25/8 9/9/8 137/147/8
f 32/32/10 146/156/10 140/150/11
f 140/150/11 23/23/11 32/32/10
f 26/26/21 156/166/21 153/163/21
f 153/163/21 10/10/21 26/26/21
f 155/165/25 158/168/24 31/31/24
f 31/31/24 22/22/25 155/165/25
f 161/171/3 162/172/3 163/173/3
f 164/174/3 165/175/3 166/176/3
f 167/177/6 168/178/6 169/179/6
f 170/180/6 171/181/6 172/182/6
f 173/183/3 174/184/3 175/185/3
f 176/186/3 177/187/3 178/188/3
f 179/189/6 180/190/6 181/191/6
f 182/192/6 183/193/6 184/194/6
f 185/195/3 186/196/3 187/197/3
f 188/198/3 162/199/3 189/200/3
f 190/201/6 191/202/6 192/203/6
f 193/204/6 194/205/6 195/206/6
f 196/207/3 197/208/3 174/209/3
f 174/210/3 198/211/3 199/212/3
f 200/213/6 201/214/6 202/215/6
f 203/216/6 204/217/6 205/218/6
