# Blender v2.78 (sub 0) OBJ File: ''
# www.blender.org
mtllib IKEA.ART.30226903_40x63_5cm.mtl
o model_model.005
v 0.199755 0.029000 0.313512
v 0.200000 0.027816 0.313512
v -0.200000 0.027816 0.313512
v -0.199756 0.029000 0.313512
v 0.200000 0.000184 0.313512
v 0.199755 -0.001000 0.313512
v -0.200000 0.000184 0.313512
v -0.199756 -0.001000 0.313512
v 0.200000 0.027816 -0.313512
v 0.199755 0.029000 -0.313512
v 0.200000 0.000184 -0.313512
v -0.200000 0.027816 -0.313512
v -0.199756 0.029000 -0.313512
v -0.200000 0.000184 -0.313512
v 0.199755 -0.001000 -0.313512
v -0.199756 -0.001000 -0.313512
v -0.200000 0.018737 0.313512
v 0.200000 0.018737 0.313512
v 0.200000 0.018737 -0.313512
v -0.200000 0.018737 -0.313512
v 0.199755 0.027816 0.315000
v 0.199755 0.029000 0.313512
v 0.199755 0.000184 0.315000
v 0.199755 -0.001000 0.313512
v 0.199755 0.027816 -0.315000
v 0.199755 0.029000 -0.313512
v 0.199755 0.000184 -0.315000
v 0.199755 -0.001000 -0.313512
v 0.199755 0.018737 0.315000
v 0.199755 0.018737 -0.315000
v -0.199756 0.027816 0.315000
v -0.199756 0.029000 0.313512
v -0.199756 0.000184 0.315000
v -0.199756 -0.001000 0.313512
v -0.199756 0.027816 -0.315000
v -0.199756 0.029000 -0.313512
v -0.199756 0.000184 -0.315000
v -0.199756 -0.001000 -0.313512
v -0.199756 0.018737 0.315000
v -0.199756 0.018737 -0.315000
v 0.199755 0.027816 -0.315000
v 0.199755 0.029000 -0.313512
v -0.199756 0.027816 -0.315000
v -0.199756 0.029000 -0.313512
v 0.199755 0.000184 -0.315000
v 0.199755 -0.001000 -0.313512
v -0.199756 0.000184 -0.315000
v -0.199756 -0.001000 -0.313512
v 0.199755 0.018737 -0.315000
v -0.199756 0.018737 -0.315000
v 0.199755 0.027816 0.315000
v 0.199755 0.029000 0.313512
v -0.199756 0.027816 0.315000
v -0.199756 0.029000 0.313512
v 0.199755 0.000184 0.315000
v 0.199755 -0.001000 0.313512
v -0.199756 0.000184 0.315000
v -0.199756 -0.001000 0.313512
v 0.199755 0.018737 0.315000
v -0.199756 0.018737 0.315000
v 0.199755 0.018737 -0.313512
v -0.199756 0.018737 -0.313512
v -0.199756 0.018737 -0.313512
v -0.199756 0.018737 -0.313512
v 0.199755 0.018737 -0.313512
v 0.199755 0.018737 -0.313512
v -0.199756 0.018737 0.313512
v 0.199755 0.018737 0.313512
v 0.199755 0.018737 0.313512
v 0.199755 0.018737 0.313512
v -0.199756 0.018737 0.313512
v -0.199756 0.018737 0.313512
v 0.199755 0.029000 -0.313512
v 0.199755 0.027816 -0.315000
v 0.199755 0.018737 -0.315000
v 0.199755 0.018737 -0.315000
v 0.199755 0.018737 0.315000
v 0.199755 0.027816 0.315000
v 0.199755 0.029000 -0.313512
v 0.199755 0.018737 -0.315000
v 0.199755 0.027816 0.315000
v 0.199755 0.029000 0.313512
v 0.199755 0.029000 -0.313512
v 0.199755 0.027816 0.315000
v -0.199756 0.018737 0.315000
v -0.199756 0.018737 -0.315000
v -0.199756 0.027816 -0.315000
v -0.199756 0.027816 -0.315000
v -0.199756 0.029000 -0.313512
v -0.199756 0.029000 0.313512
v -0.199756 0.018737 0.315000
v -0.199756 0.027816 -0.315000
v -0.199756 0.029000 0.313512
v -0.199756 0.027816 0.315000
v -0.199756 0.018737 0.315000
v -0.199756 0.029000 0.313512
v 0.199755 0.029000 -0.313512
v 0.199755 0.018737 -0.315000
v 0.199755 0.018737 -0.315000
v 0.199755 0.027816 -0.315000
v 0.199755 0.029000 -0.313512
v 0.199755 0.018737 -0.313512
v 0.199755 0.018737 -0.313512
v -0.199756 0.029000 -0.313512
v -0.199756 0.027816 -0.315000
v -0.199756 0.018737 -0.315000
v -0.199756 0.018737 -0.315000
v -0.199756 0.018737 -0.313512
v -0.199756 0.029000 -0.313512
v -0.199756 -0.001000 -0.313512
v 0.199755 -0.001000 -0.313512
v -0.199756 -0.001000 -0.313512
v 0.199755 0.018737 0.315000
v 0.199755 0.029000 0.313512
v 0.199755 0.029000 0.313512
v 0.199755 0.027816 0.315000
v 0.199755 0.018737 0.315000
v -0.199756 -0.001000 0.313512
v -0.199756 0.000184 0.315000
v -0.199756 0.018737 0.315000
v -0.199756 0.018737 0.315000
v -0.199756 -0.001000 0.313512
v -0.199756 -0.001000 0.313512
v -0.199756 0.018737 0.313512
v 0.199755 0.018737 0.313512
v 0.199755 0.018737 0.313512
v 0.199755 -0.001000 0.313512
v -0.199756 -0.001000 0.313512
v 0.199755 -0.001000 -0.313512
v 0.199755 -0.001000 0.313512
v 0.199755 -0.001000 -0.313512
v -0.199756 0.029000 0.313512
v 0.199755 0.029000 0.313512
v -0.199756 0.029000 0.313512
v -0.199756 0.029000 -0.313512
v -0.199756 0.029000 0.313512
v -0.199756 0.029000 -0.313512
v 0.199755 -0.001000 0.313512
v 0.199755 0.000184 0.315000
v 0.199755 0.018737 0.315000
v 0.199755 -0.001000 -0.313512
v 0.199755 -0.001000 0.313512
v 0.199755 0.018737 0.315000
v 0.199755 0.000184 -0.315000
v 0.199755 -0.001000 -0.313512
v 0.199755 0.018737 0.315000
v 0.199755 0.018737 -0.315000
v 0.199755 0.000184 -0.315000
v 0.199755 0.018737 0.315000
v -0.199756 -0.001000 -0.313512
v -0.199756 0.000184 -0.315000
v -0.199756 0.018737 -0.315000
v -0.199756 -0.001000 0.313512
v -0.199756 -0.001000 -0.313512
v -0.199756 0.018737 -0.315000
v -0.199756 0.000184 0.315000
v -0.199756 -0.001000 0.313512
v -0.199756 0.018737 -0.315000
v -0.199756 0.018737 0.315000
v -0.199756 0.000184 0.315000
v -0.199756 0.018737 -0.315000
v 0.199755 -0.001000 -0.313512
v 0.199755 0.000184 -0.315000
v 0.199755 0.018737 -0.315000
v 0.199755 0.018737 -0.315000
v 0.199755 -0.001000 -0.313512
v -0.199756 -0.001000 -0.313512
v 0.199755 -0.001000 -0.313512
v 0.199755 0.018737 -0.313512
v 0.199755 0.018737 -0.313512
v -0.199756 -0.001000 -0.313512
v -0.199756 0.000184 -0.315000
v -0.199756 -0.001000 -0.313512
v -0.199756 0.018737 -0.313512
v -0.199756 0.018737 -0.313512
v -0.199756 0.018737 -0.315000
v -0.199756 0.000184 -0.315000
v -0.199756 0.029000 -0.313512
v 0.199755 0.029000 -0.313512
v -0.199756 0.029000 -0.313512
v 0.199755 0.000184 0.315000
v 0.199755 -0.001000 0.313512
v 0.199755 0.018737 0.315000
v 0.199755 0.000184 0.315000
v -0.199756 0.027816 0.315000
v -0.199756 0.029000 0.313512
v -0.199756 0.018737 0.313512
v -0.199756 0.018737 0.313512
v -0.199756 0.018737 0.315000
v -0.199756 0.027816 0.315000
v -0.199756 0.029000 0.313512
v 0.199755 0.029000 0.313512
v 0.199755 0.018737 0.313512
v 0.199755 0.018737 0.313512
v -0.199756 0.018737 0.313512
v -0.199756 0.029000 0.313512
v 0.199755 0.029000 -0.313512
v 0.199755 0.029000 0.313512
v 0.199755 0.029000 -0.313512
v -0.199756 -0.001000 0.313512
v 0.199755 -0.001000 0.313512
v -0.199756 -0.001000 0.313512
v -0.199756 -0.001000 -0.313512
v -0.199756 -0.001000 0.313512
v -0.199756 -0.001000 -0.313512
vt -203.7243 98.6603
vt -203.7245 101.0048
vt -206.0714 101.0060
vt -192.2393 98.6543
vt -192.2394 101.0013
vt -81.5643 686.0483
vt -83.9007 683.6973
vt -81.5636 683.7014
vt -70.0786 683.7080
vt -70.0785 686.0564
vt -83.9006 52.5107
vt -81.5636 52.5141
vt 72.0976 186.6279
vt 74.4384 186.6279
vt 74.4382 2643.3481
vt 72.0983 2643.3481
vt -168.7694 98.6483
vt -166.4228 100.9979
vt -168.7694 100.9978
vt -46.6074 686.0640
vt -46.6074 683.7139
vt -44.2703 683.7139
vt -46.6079 52.5027
vt -44.2703 52.5027
vt 34.7615 2643.3486
vt 34.7617 186.6275
vt 37.1016 186.6275
vt 37.1023 2643.3486
vt -203.7243 734.5187
vt -206.0715 732.1843
vt -203.7245 732.1816
vt -192.2395 732.1843
vt -192.2393 734.5277
vt -81.5643 50.1765
vt -70.0785 50.1717
vt -70.0786 52.5086
vt -12.3508 2565.0266
vt -12.3509 108.2355
vt -10.0108 108.2358
vt -10.0109 2565.0269
vt -168.7694 734.5372
vt -168.7694 732.1878
vt -166.4228 732.1877
vt -46.6071 50.1669
vt 24.9852 108.2709
vt 27.3260 108.2709
vt 27.3258 2564.9917
vt 24.9857 2564.9917
vt 60.5997 2643.3484
vt 60.5990 186.6276
vt -358.2969 302.9362
vt -358.2971 2759.9363
vt -990.2971 2759.9363
vt -990.2969 302.9362
vt 1.4880 108.2534
vt 1.4882 2565.0093
vt 991.2971 2759.9363
vt 359.2971 2759.9363
vt 359.2969 302.9362
vt 991.2969 302.9362
vt -65.2859 78.7493
vt -63.7859 77.2493
vt -52.2859 77.2493
vt -52.2859 77.2493
vt -52.2860 712.2493
vt -63.7860 712.2493
vt -65.2859 78.7493
vt -52.2859 77.2493
vt -63.7860 712.2493
vt -65.2860 710.7493
vt -65.2859 78.7493
vt -63.7860 712.2493
vt 58.8752 38.3376
vt 58.8751 673.3376
vt 70.3752 673.3376
vt 70.3752 673.3376
vt 71.8752 671.8376
vt 71.8751 39.8376
vt 58.8752 38.3376
vt 70.3752 673.3376
vt 71.8751 39.8376
vt 70.3751 38.3376
vt 58.8752 38.3376
vt 71.8751 39.8376
vt -0.2503 19.5001
vt -0.2503 6.5001
vt 1.2497 6.5001
vt 1.2497 6.5001
vt 1.2497 18.0001
vt -0.2503 19.5001
vt -25.3494 2565.0266
vt -25.3499 108.2356
vt -25.3499 108.2356
vt 1.2497 19.5000
vt -0.2503 18.0000
vt -0.2503 6.5000
vt -0.2503 6.5000
vt 1.2497 6.5000
vt 1.2497 19.5000
vt 120.1796 -930.2612
vt 145.1797 -930.2612
vt 145.1790 -3387.2612
vt 120.1789 -3387.2612
vt 120.1796 -930.2612
vt 8.0566 30.1575
vt 6.5566 30.1575
vt 6.5566 43.1575
vt 6.5566 43.1575
vt 8.0566 41.6575
vt 8.0566 30.1575
vt -34.4182 -115.1170
vt -35.9144 -113.6207
vt -59.3552 -113.6207
vt -59.3552 -113.6207
vt -59.3552 -115.1170
vt -34.4182 -115.1170
vt 78.7857 2749.7175
vt 103.7857 2749.7175
vt 103.7850 292.7175
vt 103.7850 292.7175
vt 78.7850 292.7175
vt 78.7857 2749.7175
vt 218.1785 -52.5819
vt 243.1785 -52.5819
vt 243.1785 -684.5819
vt 218.1784 -684.5819
vt 218.1785 -52.5819
vt 304.7724 -856.8027
vt 291.7724 -856.8027
vt 291.7717 -3313.8027
vt 304.7717 -3313.8027
vt 304.7724 -856.8027
vt -47.1110 14.5566
vt -34.1110 14.5566
vt -34.1110 646.5566
vt -47.1110 646.5566
vt -47.1110 14.5566
vt -27.2859 710.7493
vt -28.7859 712.2493
vt -52.2860 712.2493
vt -27.2859 78.7493
vt -27.2859 710.7493
vt -52.2860 712.2493
vt -28.7859 77.2493
vt -27.2859 78.7493
vt -52.2860 712.2493
vt -52.2859 77.2493
vt -28.7859 77.2493
vt -52.2860 712.2493
vt 33.8750 671.8376
vt 35.3750 673.3376
vt 58.8751 673.3376
vt 33.8751 39.8376
vt 33.8750 671.8376
vt 58.8751 673.3376
vt 35.3751 38.3376
vt 33.8751 39.8376
vt 58.8751 673.3376
vt 58.8752 38.3376
vt 35.3751 38.3376
vt 58.8751 673.3376
vt -0.2503 -18.5000
vt 1.2497 -17.0000
vt 1.2497 6.5001
vt 1.2497 6.5001
vt -0.2503 -18.5000
vt -50.3472 2565.0269
vt -50.3479 108.2356
vt -25.3499 108.2356
vt -25.3499 108.2356
vt -50.3472 2565.0269
vt -0.2503 -17.0001
vt 1.2497 -18.5001
vt 1.2497 6.5000
vt 1.2497 6.5000
vt -0.2503 6.5000
vt -0.2503 -17.0001
vt 158.1797 -930.2612
vt 158.1790 -3387.2612
vt 158.1797 -930.2612
vt 8.0566 6.6574
vt 6.5566 5.1574
vt 8.0566 30.1575
vt 8.0566 6.6574
vt -9.4481 48.9020
vt -10.9481 50.4020
vt -10.9481 37.4020
vt -10.9481 37.4020
vt -9.4481 37.4020
vt -9.4481 48.9020
vt 116.7857 2749.7175
vt 116.7850 292.7175
vt 103.7850 292.7175
vt 103.7850 292.7175
vt 103.7857 2749.7175
vt 116.7857 2749.7175
vt 256.1785 -52.5819
vt 256.1785 -684.5819
vt 256.1785 -52.5819
vt 266.7723 -856.8027
vt 266.7716 -3313.8027
vt 266.7723 -856.8027
vt -9.1109 14.5566
vt -9.1110 646.5566
vt -9.1109 14.5566
vn 0.9667 0.2003 0.1594
vn 0.9867 0.0000 0.1627
vn -0.9671 0.1992 0.1585
vn -0.9868 0.0000 0.1617
vn -0.9794 0.2017 -0.0000
vn -0.0000 0.7825 0.6227
vn 0.9667 -0.2003 0.1594
vn -0.9671 -0.1992 0.1585
vn -0.9794 -0.2017 0.0000
vn 0.0000 -0.7825 0.6227
vn 0.9667 0.2003 -0.1594
vn 0.9867 0.0000 -0.1627
vn 0.9792 0.2029 -0.0000
vn -0.9671 0.1992 -0.1585
vn -0.9868 0.0000 -0.1617
vn -0.0000 0.7825 -0.6227
vn 0.9667 -0.2003 -0.1594
vn 0.9792 -0.2029 0.0000
vn -0.9671 -0.1992 -0.1585
vn 0.0000 -0.7825 -0.6227
vn 1.0000 0.0000 0.0000
vn -0.0000 0.0000 1.0000
vn -0.0000 1.0000 -0.0000
vn 0.0000 0.0000 -1.0000
vn -1.0000 0.0000 0.0000
vn 0.0000 -1.0000 0.0000
usemtl MAT000441V1-ICOM
s off
f 21/1/1 2/2/1 22/3/1
f 2/2/2 21/1/2 29/4/2
f 29/4/2 18/5/2 2/2/2
f 31/6/3 32/7/3 3/8/3
f 3/8/4 17/9/4 39/10/4
f 39/10/4 31/6/4 3/8/4
f 36/11/5 12/12/5 3/8/5
f 3/8/5 32/7/5 36/11/5
f 51/13/6 52/14/6 54/15/6
f 54/15/6 53/16/6 51/13/6
f 23/17/7 24/18/7 5/19/7
f 33/20/8 7/21/8 34/22/8
f 34/22/9 7/21/9 14/23/9
f 14/23/9 38/24/9 34/22/9
f 58/25/10 56/26/10 55/27/10
f 55/27/10 57/28/10 58/25/10
f 25/29/11 26/30/11 9/31/11
f 9/31/12 19/32/12 30/33/12
f 30/33/12 25/29/12 9/31/12
f 26/30/13 22/3/13 2/2/13
f 2/2/13 9/31/13 26/30/13
f 35/34/14 12/12/14 36/11/14
f 12/12/15 35/34/15 40/35/15
f 40/35/15 20/36/15 12/12/15
f 44/37/16 42/38/16 41/39/16
f 41/39/16 43/40/16 44/37/16
f 27/41/17 11/42/17 28/43/17
f 28/43/18 11/42/18 5/19/18
f 5/19/18 24/18/18 28/43/18
f 37/44/19 38/24/19 14/23/19
f 45/45/20 46/46/20 48/47/20
f 48/47/20 47/48/20 45/45/20
f 18/5/21 19/32/21 9/31/21
f 9/31/21 2/2/21 18/5/21
f 53/16/22 60/49/22 59/50/22
f 59/50/22 51/13/22 53/16/22
f 10/51/23 13/52/23 4/53/23
f 4/53/23 1/54/23 10/51/23
f 49/55/24 50/56/24 43/40/24
f 43/40/24 41/39/24 49/55/24
f 12/12/25 20/36/25 17/9/25
f 17/9/25 3/8/25 12/12/25
f 8/57/26 16/58/26 15/59/26
f 15/59/26 6/60/26 8/57/26
f 29/4/2 23/17/2 5/19/2
f 5/19/2 18/5/2 29/4/2
f 7/21/4 33/20/4 39/10/4
f 39/10/4 17/9/4 7/21/4
f 11/42/12 27/41/12 30/33/12
f 30/33/12 19/32/12 11/42/12
f 40/35/15 37/44/15 14/23/15
f 14/23/15 20/36/15 40/35/15
f 5/19/21 11/42/21 19/32/21
f 19/32/21 18/5/21 5/19/21
f 57/28/22 55/27/22 59/50/22
f 59/50/22 60/49/22 57/28/22
f 45/45/24 47/48/24 50/56/24
f 50/56/24 49/55/24 45/45/24
f 14/23/25 7/21/25 17/9/25
f 17/9/25 20/36/25 14/23/25
f 73/61/25 74/62/25 75/63/25
f 76/64/25 77/65/25 78/66/25
f 79/67/25 80/68/25 81/69/25
f 82/70/25 83/71/25 84/72/25
f 85/73/21 86/74/21 87/75/21
f 88/76/21 89/77/21 90/78/21
f 91/79/21 92/80/21 93/81/21
f 94/82/21 95/83/21 96/84/21
f 97/85/21 61/86/21 98/87/21
f 99/88/21 100/89/21 101/90/21
f 44/37/22 62/91/22 102/92/22
f 103/93/22 42/38/22 44/37/22
f 104/94/25 105/95/25 106/96/25
f 107/97/25 108/98/25 109/99/25
f 110/100/24 64/101/24 66/102/24
f 66/102/24 111/103/24 112/104/24
f 113/105/21 68/106/21 114/107/21
f 115/108/21 116/109/21 117/110/21
f 118/111/25 119/112/25 120/113/25
f 121/114/25 67/115/25 122/116/25
f 123/117/24 124/118/24 125/119/24
f 126/120/24 127/121/24 128/122/24
f 129/123/21 65/124/21 69/125/21
f 69/125/21 130/126/21 131/127/21
f 132/128/22 72/129/22 70/130/22
f 70/130/22 133/131/22 134/132/22
f 135/133/25 63/134/25 71/135/25
f 71/135/25 136/136/25 137/137/25
f 138/138/25 139/139/25 140/140/25
f 141/141/25 142/142/25 143/143/25
f 144/144/25 145/145/25 146/146/25
f 147/147/25 148/148/25 149/149/25
f 150/150/21 151/151/21 152/152/21
f 153/153/21 154/154/21 155/155/21
f 156/156/21 157/157/21 158/158/21
f 159/159/21 160/160/21 161/161/21
f 162/162/21 163/163/21 164/164/21
f 165/165/21 61/86/21 166/166/21
f 167/167/22 168/168/22 169/169/22
f 170/170/22 62/91/22 171/171/22
f 172/172/25 173/173/25 174/174/25
f 175/175/25 176/176/25 177/177/25
f 178/178/24 179/179/24 66/102/24
f 66/102/24 64/101/24 180/180/24
f 181/181/21 182/182/21 68/106/21
f 68/106/21 183/183/21 184/184/21
f 185/185/25 186/186/25 187/187/25
f 188/188/25 189/189/25 190/190/25
f 191/191/24 192/192/24 193/193/24
f 194/194/24 195/195/24 196/196/24
f 197/197/21 198/198/21 69/125/21
f 69/125/21 65/124/21 199/199/21
f 200/200/22 201/201/22 70/130/22
f 70/130/22 72/129/22 202/202/22
f 203/203/25 204/204/25 71/135/25
f 71/135/25 63/134/25 205/205/25
