# Blender v2.78 (sub 0) OBJ File: ''
# www.blender.org
mtllib IKEA.ART.30226903_127x63_5cm.mtl
o model_model.080
v 0.984221 0.019000 -0.316000
v -0.284226 0.019000 -0.316000
v -0.284226 0.019000 0.316000
v 0.984221 0.019000 0.316000
v -0.284226 -0.019000 0.316000
v -0.284226 -0.019000 -0.316000
v 0.984221 -0.019000 -0.316000
v 0.984221 -0.019000 0.316000
v 0.985000 0.006000 0.316000
v 0.985000 0.006000 -0.316000
v 0.985000 0.017500 -0.316000
v 0.985000 0.017500 0.316000
v -0.284226 0.017500 0.317500
v -0.284226 0.006000 0.317500
v 0.984221 0.006000 0.317500
v 0.984221 0.017500 0.317500
v 0.984221 0.006000 -0.317500
v -0.284226 0.006000 -0.317500
v -0.284226 0.017500 -0.317500
v 0.984221 0.017500 -0.317500
v -0.285000 0.017500 -0.316000
v -0.285000 0.006000 -0.316000
v -0.285000 0.006000 0.316000
v -0.285000 0.017500 0.316000
v 0.985000 -0.017500 0.316000
v 0.985000 -0.017500 -0.316000
v -0.284226 -0.017500 0.317500
v 0.984221 -0.017500 0.317500
v 0.984221 -0.017500 -0.317500
v -0.284226 -0.017500 -0.317500
v -0.285000 -0.017500 -0.316000
v -0.285000 -0.017500 0.316000
v 0.984221 0.019000 -0.316000
v 0.984221 0.017500 -0.317500
v 0.984221 0.006000 -0.317500
v 0.984221 0.006000 -0.317500
v 0.984221 0.006000 0.317500
v 0.984221 0.017500 0.317500
v 0.984221 0.019000 -0.316000
v 0.984221 0.006000 -0.317500
v 0.984221 0.017500 0.317500
v 0.984221 0.019000 0.316000
v 0.984221 0.019000 -0.316000
v 0.984221 0.017500 0.317500
v -0.284226 0.006000 0.317500
v -0.284226 0.006000 -0.317500
v -0.284226 0.017500 -0.317500
v -0.284226 0.017500 -0.317500
v -0.284226 0.019000 -0.316000
v -0.284226 0.019000 0.316000
v -0.284226 0.006000 0.317500
v -0.284226 0.017500 -0.317500
v -0.284226 0.019000 0.316000
v -0.284226 0.017500 0.317500
v -0.284226 0.006000 0.317500
v -0.284226 0.019000 0.316000
v -0.284226 0.019000 -0.316000
v -0.284226 0.006000 -0.316000
v 0.984221 0.006000 -0.316000
v 0.984221 0.006000 -0.316000
v 0.984221 0.019000 -0.316000
v -0.284226 -0.019000 -0.316000
v -0.284226 0.006000 -0.316000
v 0.984221 0.006000 -0.316000
v 0.984221 -0.019000 -0.316000
v -0.284226 -0.019000 -0.316000
v -0.284226 -0.019000 0.316000
v -0.284226 0.006000 0.316000
v 0.984221 0.006000 0.316000
v 0.984221 0.006000 0.316000
v 0.984221 -0.019000 0.316000
v -0.284226 -0.019000 0.316000
v 0.984221 -0.019000 -0.316000
v 0.984221 0.006000 -0.316000
v 0.984221 0.006000 0.316000
v 0.984221 -0.019000 0.316000
v 0.984221 -0.019000 -0.316000
v -0.284226 0.019000 0.316000
v -0.284226 0.006000 0.316000
v 0.984221 0.006000 0.316000
v 0.984221 0.019000 0.316000
v -0.284226 0.019000 0.316000
v -0.284226 0.019000 -0.316000
v -0.284226 0.006000 -0.316000
v -0.284226 0.006000 0.316000
v -0.284226 0.019000 0.316000
v -0.284226 0.019000 -0.316000
v 0.984221 -0.019000 0.316000
v 0.984221 -0.017500 0.317500
v 0.984221 0.006000 0.317500
v 0.984221 -0.019000 -0.316000
v 0.984221 -0.019000 0.316000
v 0.984221 0.006000 0.317500
v 0.984221 -0.017500 -0.317500
v 0.984221 -0.019000 -0.316000
v 0.984221 0.006000 0.317500
v 0.984221 0.006000 -0.317500
v 0.984221 -0.017500 -0.317500
v 0.984221 0.006000 0.317500
v -0.284226 -0.019000 -0.316000
v -0.284226 -0.017500 -0.317500
v -0.284226 0.006000 -0.317500
v -0.284226 -0.019000 0.316000
v -0.284226 -0.019000 -0.316000
v -0.284226 0.006000 -0.317500
v -0.284226 -0.017500 0.317500
v -0.284226 -0.019000 0.316000
v -0.284226 0.006000 -0.317500
v -0.284226 0.006000 0.317500
v -0.284226 -0.017500 0.317500
v -0.284226 0.006000 -0.317500
v -0.284226 -0.019000 -0.316000
v 0.984221 -0.019000 -0.316000
v 0.984221 0.006000 -0.316000
v 0.984221 0.006000 -0.316000
v -0.284226 -0.019000 -0.316000
v -0.284226 0.019000 -0.316000
v 0.984221 0.019000 -0.316000
v -0.284226 0.019000 -0.316000
v -0.284226 0.019000 0.316000
v 0.984221 0.019000 0.316000
v 0.984221 0.006000 0.316000
v 0.984221 0.006000 0.316000
v -0.284226 0.006000 0.316000
v -0.284226 0.019000 0.316000
v 0.984221 0.019000 -0.316000
v 0.984221 0.019000 0.316000
v 0.984221 0.019000 -0.316000
v -0.284226 -0.019000 0.316000
v 0.984221 -0.019000 0.316000
v -0.284226 -0.019000 0.316000
v -0.284226 -0.019000 -0.316000
v -0.284226 -0.019000 0.316000
v -0.284226 -0.019000 -0.316000
v 0.984221 0.017500 0.317500
v 0.984221 0.019000 0.316000
v 0.984221 0.006000 0.317500
v -0.284226 0.017500 0.317500
v -0.284226 0.019000 0.316000
v -0.284226 0.006000 0.317500
v -0.284226 0.019000 -0.316000
v 0.984221 0.019000 0.316000
v -0.284226 0.019000 0.316000
v 0.984221 -0.017500 0.317500
v 0.984221 -0.019000 0.316000
v -0.284226 -0.017500 0.317500
v -0.284226 -0.019000 0.316000
v -0.284226 -0.019000 -0.316000
v -0.284226 -0.019000 0.316000
v 0.984221 -0.019000 0.316000
v 0.984221 0.017500 -0.317500
v 0.984221 0.019000 -0.316000
v 0.984221 0.006000 -0.317500
v -0.284226 0.017500 -0.317500
v -0.284226 0.006000 -0.317500
v 0.984221 -0.017500 -0.317500
v 0.984221 -0.019000 -0.316000
v -0.284226 -0.017500 -0.317500
v 0.984221 -0.019000 -0.316000
v -0.284226 -0.019000 -0.316000
v 0.984221 0.019000 -0.316000
v 0.984221 0.006000 -0.316000
v 0.984221 0.006000 -0.317500
v 0.984221 0.006000 -0.317500
v 0.984221 0.017500 -0.317500
v 0.984221 0.019000 -0.316000
v -0.284226 0.019000 -0.316000
v -0.284226 0.017500 -0.317500
v -0.284226 0.006000 -0.317500
v -0.284226 0.006000 -0.317500
v -0.284226 0.006000 -0.316000
v -0.284226 0.019000 -0.316000
v 0.984221 0.006000 0.317500
v 0.984221 0.006000 0.316000
v 0.984221 0.019000 0.316000
v 0.984221 0.019000 0.316000
v 0.984221 0.017500 0.317500
v 0.984221 0.006000 0.317500
v -0.284226 -0.019000 0.316000
v -0.284226 -0.017500 0.317500
v -0.284226 0.006000 0.317500
v -0.284226 0.006000 0.317500
v -0.284226 0.006000 0.316000
v -0.284226 -0.019000 0.316000
v 0.984221 -0.019000 -0.316000
v 0.984221 -0.017500 -0.317500
v 0.984221 0.006000 -0.317500
v 0.984221 0.006000 -0.317500
v 0.984221 -0.019000 -0.316000
v -0.284226 -0.017500 -0.317500
v -0.284226 -0.019000 -0.316000
v -0.284226 0.006000 -0.316000
v -0.284226 0.006000 -0.316000
v -0.284226 0.006000 -0.317500
v -0.284226 -0.017500 -0.317500
v 0.984221 -0.017500 0.317500
v 0.984221 -0.019000 0.316000
v 0.984221 0.006000 0.317500
v 0.984221 -0.017500 0.317500
v -0.284226 0.017500 0.317500
v -0.284226 0.019000 0.316000
v -0.284226 0.006000 0.316000
v -0.284226 0.006000 0.316000
v -0.284226 0.006000 0.317500
v -0.284226 0.017500 0.317500
vt 0.7291 0.7273
vt 0.0004 0.7273
vt 0.0004 0.3642
vt 0.7291 0.3642
vt 0.0004 0.3635
vt 0.0004 0.0004
vt 0.7291 0.0004
vt 0.7291 0.3635
vt 0.7457 0.6904
vt 0.7461 0.3653
vt 0.7531 0.3656
vt 0.7527 0.6901
vt 0.0004 0.7979
vt 0.0004 0.7895
vt 0.4819 0.7895
vt 0.4819 0.7979
vt 0.4909 0.7538
vt 0.0004 0.7536
vt 0.0005 0.7450
vt 0.4910 0.7452
vt 0.7322 0.0017
vt 0.7392 0.0014
vt 0.7386 0.3267
vt 0.7315 0.3264
vt 0.7314 0.6899
vt 0.7316 0.3661
vt 0.0004 0.7806
vt 0.4819 0.7806
vt 0.4909 0.7629
vt 0.0004 0.7627
vt 0.7534 0.0020
vt 0.7532 0.3260
vt 0.6901 0.7281
vt 0.6891 0.7289
vt 0.6826 0.7281
vt 0.9207 0.3642
vt 0.9207 0.7291
vt 0.9141 0.7291
vt 0.8895 0.3652
vt 0.8970 0.3642
vt 0.8970 0.7291
vt 0.7670 0.2689
vt 0.7693 0.1352
vt 0.7693 0.2693
vt 0.9215 0.7291
vt 0.9215 0.3642
vt 0.9281 0.3642
vt 0.7670 0.0004
vt 0.7693 0.0007
vt 0.7670 0.1344
vt 0.8977 0.7292
vt 0.8977 0.3642
vt 0.9052 0.7282
vt 0.6974 0.7289
vt 0.6908 0.7281
vt 0.6983 0.7281
vt 0.0004 0.9996
vt 0.0004 0.9899
vt 0.5588 0.9931
vt 0.4911 0.7281
vt 0.4911 0.7367
vt 0.0006 0.7365
vt 0.0007 0.8564
vt 0.0005 0.8435
vt 0.6547 0.8321
vt 0.7293 0.8874
vt 0.7290 0.9018
vt 0.0004 0.8874
vt 0.0004 0.8867
vt 0.0007 0.8723
vt 0.7293 0.8867
vt 0.7293 0.8572
vt 0.7290 0.8716
vt 0.0004 0.8572
vt 0.7555 0.3642
vt 0.7699 0.3648
vt 0.7555 0.7276
vt 0.8451 0.7276
vt 0.8308 0.7271
vt 0.8451 0.3642
vt 0.0004 0.8314
vt 0.0005 0.8200
vt 0.6547 0.8314
vt 0.5588 0.9689
vt 0.5588 0.9786
vt 0.0004 0.9786
vt 0.7781 0.3642
vt 0.7855 0.3644
vt 0.7781 0.7274
vt 0.7631 0.3635
vt 0.7556 0.3635
vt 0.7556 0.0004
vt 0.5826 0.7289
vt 0.5835 0.7281
vt 0.5970 0.7289
vt 0.8157 0.3642
vt 0.8300 0.7271
vt 0.8157 0.7285
vt 0.7639 0.0004
vt 0.7663 0.0007
vt 0.7639 0.1372
vt 0.8610 0.3647
vt 0.8745 0.3642
vt 0.8745 0.7293
vt 0.5523 0.7289
vt 0.5532 0.7281
vt 0.5667 0.7289
vt 0.8150 0.7285
vt 0.8007 0.3657
vt 0.8150 0.3642
vt 0.7663 0.2748
vt 0.7639 0.2745
vt 0.7663 0.1380
vt 0.8888 0.7291
vt 0.8753 0.7291
vt 0.8888 0.3642
vt 0.0004 0.9320
vt 0.7289 0.9176
vt 0.7292 0.9320
vt 0.7291 0.9471
vt 0.0004 0.9471
vt 0.0004 0.9328
vt 0.0004 0.9681
vt 0.5588 0.9584
vt 0.5589 0.9681
vt 0.0004 0.8321
vt 0.0004 0.9576
vt 0.5588 0.9479
vt 0.5589 0.9576
vt 0.5588 0.9851
vt 0.0004 0.9891
vt 0.0004 0.9794
vt 0.9059 0.3642
vt 0.9134 0.7273
vt 0.9059 0.7274
vt 0.7773 0.3651
vt 0.0004 0.9169
vt 0.7289 0.9025
vt 0.7292 0.9169
vt 0.0007 0.8071
vt 0.8459 0.3642
vt 0.8603 0.7271
vt 0.8459 0.7276
vt 0.7999 0.3647
vt 0.7528 0.6914
vt 0.7543 0.6902
vt 0.7457 0.6915
vt 0.7314 0.3276
vt 0.7299 0.3264
vt 0.7386 0.3278
vt 0.7306 0.0016
vt 0.4820 0.8063
vt 0.0005 0.8063
vt 0.7313 0.6911
vt 0.7299 0.6899
vt 0.7534 0.3272
vt 0.7549 0.3260
vt 0.7549 0.0020
vt 0.0005 0.7722
vt 0.4820 0.7722
vt 0.7533 0.3644
vt 0.7548 0.3655
vt 0.7461 0.3642
vt 0.7321 0.0005
vt 0.7392 0.0004
vt 0.7314 0.3648
vt 0.7299 0.3660
vt 0.7535 0.0008
vt 0.4910 0.7714
vt 0.0004 0.7713
vt 0.6489 0.7290
vt 0.6414 0.7290
vt 0.6414 0.7281
vt 0.7074 0.7289
vt 0.7139 0.7281
vt 0.7149 0.7289
vt 0.6818 0.7281
vt 0.6808 0.7289
vt 0.6743 0.7281
vt 0.6661 0.7290
vt 0.6661 0.7281
vt 0.6735 0.7281
vt 0.6578 0.7290
vt 0.6578 0.7281
vt 0.6653 0.7281
vt 0.7066 0.7281
vt 0.7057 0.7289
vt 0.6991 0.7281
vt 0.5977 0.7289
vt 0.5987 0.7281
vt 0.6121 0.7289
vt 0.5213 0.7281
vt 0.5213 0.7290
vt 0.5070 0.7290
vt 0.5675 0.7289
vt 0.5684 0.7281
vt 0.5818 0.7289
vt 0.5062 0.7281
vt 0.5062 0.7290
vt 0.4919 0.7290
vt 0.5381 0.7290
vt 0.5372 0.7281
vt 0.5516 0.7281
vt 0.6406 0.7281
vt 0.6406 0.7290
vt 0.6271 0.7290
vt 0.5229 0.7290
vt 0.5221 0.7281
vt 0.5364 0.7281
vt 0.6264 0.7281
vt 0.6264 0.7290
vt 0.6129 0.7290
vt 0.6562 0.7281
vt 0.6571 0.7290
vt 0.6496 0.7290
vt 0.7156 0.7290
vt 0.7156 0.7281
vt 0.7222 0.7281
vn 0.0000 1.0000 0.0000
vn 0.0000 -1.0000 -0.0000
vn 1.0000 0.0000 0.0000
vn 0.0000 0.0000 1.0000
vn 0.0000 0.0000 -1.0000
vn -1.0000 0.0000 0.0000
vn -1.0000 0.0001 0.0000
vn 0.8060 0.4185 0.4186
vn 0.8875 0.0000 0.4609
vn 0.8874 0.0000 0.4609
vn -0.8076 0.4170 0.4170
vn -0.8887 0.0000 0.4586
vn -0.8887 0.4585 0.0000
vn -0.8887 0.4586 0.0000
vn 0.0000 0.7071 0.7071
vn 0.8060 -0.4185 0.4186
vn -0.8078 -0.4168 0.4168
vn -0.8887 -0.4585 -0.0000
vn -0.8887 -0.4586 -0.0000
vn 0.0000 -0.7071 0.7071
vn 0.8060 0.4185 -0.4186
vn 0.8875 0.0000 -0.4609
vn 0.8874 0.0000 -0.4609
vn 0.8875 0.4609 0.0000
vn -0.8078 0.4168 -0.4168
vn -0.8887 0.0000 -0.4586
vn 0.0000 0.7071 -0.7071
vn 0.8060 -0.4185 -0.4186
vn 0.8875 -0.4609 -0.0000
vn -0.8075 -0.4172 -0.4170
vn 0.0000 -0.7071 -0.7071
vn -0.8887 0.0000 0.4585
vn -0.8887 0.0000 -0.4585
usemtl Material.011
s 1
f 1/1/1 2/2/1 3/3/1
f 3/3/1 4/4/1 1/1/1
f 5/5/2 6/6/2 7/7/2
f 7/7/2 8/8/2 5/5/2
f 9/9/3 10/10/3 11/11/3
f 11/11/3 12/12/3 9/9/3
f 13/13/4 14/14/4 15/15/4
f 15/15/4 16/16/4 13/13/4
f 17/17/5 18/18/5 19/19/5
f 19/19/5 20/20/5 17/17/5
f 21/21/6 22/22/6 23/23/6
f 23/23/6 24/24/6 21/21/6
f 25/25/3 26/26/3 10/10/3
f 10/10/3 9/9/3 25/25/3
f 27/27/4 28/28/4 15/15/4
f 15/15/4 14/14/4 27/27/4
f 29/29/5 30/30/5 18/18/5
f 18/18/5 17/17/5 29/29/5
f 31/31/6 32/32/6 23/23/6
f 23/23/6 22/22/6 31/31/6
f 33/33/6 34/34/6 35/35/6
f 36/36/6 37/37/6 38/38/6
f 39/39/6 40/40/6 41/41/6
f 42/42/6 43/43/6 44/44/6
f 45/45/3 46/46/3 47/47/3
f 48/48/3 49/49/3 50/50/3
f 51/51/3 52/52/3 53/53/3
f 54/54/3 55/55/3 56/56/3
f 57/57/4 58/58/4 59/59/4
f 60/60/4 61/61/4 57/62/4
f 62/63/5 63/64/5 64/65/5
f 64/66/5 65/67/5 66/68/5
f 67/69/5 68/70/5 69/71/5
f 70/72/5 71/73/5 72/74/5
f 73/75/3 74/76/3 75/77/3
f 75/78/3 76/79/3 77/80/3
f 78/81/4 79/82/4 80/83/4
f 80/84/4 81/85/4 82/86/4
f 83/87/6 84/88/6 85/89/6
f 85/90/6 86/91/6 87/92/6
f 88/93/6 89/94/6 90/95/6
f 91/96/6 92/97/6 93/98/6
f 94/99/7 95/100/7 96/101/7
f 97/102/6 98/103/6 99/104/6
f 100/105/3 101/106/3 102/107/3
f 103/108/3 104/109/3 105/110/3
f 106/111/3 107/112/3 108/113/3
f 109/114/3 110/115/3 111/116/3
f 112/117/4 113/118/4 114/119/4
f 115/120/4 58/121/4 116/122/4
f 117/123/5 118/124/5 64/125/5
f 64/65/5 63/64/5 119/126/5
f 120/127/5 121/128/5 122/129/5
f 123/130/5 124/131/5 125/132/5
f 126/133/3 127/134/3 75/135/3
f 75/77/3 74/76/3 128/136/3
f 129/137/4 130/138/4 80/139/4
f 80/83/4 79/82/4 131/140/4
f 132/141/6 133/142/6 85/143/6
f 85/89/6 84/88/6 134/144/6
f 135/145/8 12/12/8 136/146/8
f 12/12/9 135/145/9 137/147/10
f 137/147/10 9/9/10 12/12/9
f 138/148/11 139/149/11 24/24/11
f 24/24/12 23/23/12 140/150/12
f 140/150/12 138/148/12 24/24/12
f 141/151/13 21/21/13 24/24/13
f 24/24/14 139/149/14 141/151/14
f 16/16/15 142/152/15 143/153/15
f 143/153/15 13/13/15 16/16/15
f 144/154/16 145/155/16 25/25/16
f 146/156/17 32/32/17 147/157/17
f 147/157/18 32/32/18 31/31/18
f 31/31/19 148/158/19 147/157/19
f 149/159/20 150/160/20 28/28/20
f 28/28/20 27/27/20 149/159/20
f 151/161/21 152/162/21 11/11/21
f 11/11/22 10/10/23 153/163/23
f 153/163/23 151/161/22 11/11/22
f 152/162/24 136/146/24 12/12/24
f 12/12/24 11/11/24 152/162/24
f 154/164/25 21/21/25 141/151/25
f 21/21/26 154/164/26 155/165/26
f 155/165/26 22/22/26 21/21/26
f 57/62/27 61/61/27 20/20/27
f 20/20/27 19/19/27 57/62/27
f 156/166/28 26/26/28 157/167/28
f 157/167/29 26/26/29 25/25/29
f 25/25/29 145/155/29 157/167/29
f 158/168/30 148/158/30 31/31/30
f 29/29/31 159/169/31 160/170/31
f 160/170/31 30/30/31 29/29/31
f 137/147/10 144/154/9 25/25/9
f 25/25/9 9/9/10 137/147/10
f 32/32/32 146/156/32 140/150/12
f 140/150/12 23/23/12 32/32/32
f 26/26/22 156/166/22 153/163/23
f 153/163/23 10/10/23 26/26/22
f 155/165/26 158/168/33 31/31/33
f 31/31/33 22/22/26 155/165/26
f 161/171/3 162/172/3 163/173/3
f 164/174/3 165/175/3 166/176/3
f 167/177/6 168/178/6 169/179/6
f 170/180/6 171/181/6 172/182/6
f 173/183/3 174/184/3 175/185/3
f 176/186/3 177/187/3 178/188/3
f 179/189/6 180/190/6 181/191/6
f 182/192/6 183/193/6 184/194/6
f 185/195/3 186/196/3 187/197/3
f 188/198/3 162/199/3 189/200/3
f 190/201/6 191/202/6 192/203/6
f 193/204/6 194/205/6 195/206/6
f 196/207/3 197/208/3 174/209/3
f 174/210/3 198/211/3 199/212/3
f 200/213/6 201/214/6 202/215/6
f 203/216/6 204/217/6 205/218/6
