# Blender v2.78 (sub 0) OBJ File: ''
# www.blender.org
mtllib IKEA.ART.30226903_40x63_5cm.mtl
o model_model.006
v 0.199755 0.027816 0.315000
v 0.200000 0.027816 0.313512
v 0.199755 0.029000 0.313512
v 0.199755 0.018737 0.315000
v 0.200000 0.018737 0.313512
v -0.199756 0.027816 0.315000
v -0.199756 0.029000 0.313512
v -0.200000 0.027816 0.313512
v -0.200000 0.018737 0.313512
v -0.199756 0.018737 0.315000
v -0.199756 0.029000 -0.313512
v -0.200000 0.027816 -0.313512
v 0.199755 0.027816 0.315000
v 0.199755 0.029000 0.313512
v -0.199756 0.029000 0.313512
v -0.199756 0.027816 0.315000
v 0.199755 0.000184 0.315000
v 0.199755 -0.001000 0.313512
v 0.200000 0.000184 0.313512
v -0.199756 0.000184 0.315000
v -0.200000 0.000184 0.313512
v -0.199756 -0.001000 0.313512
v -0.200000 0.000184 -0.313512
v -0.199756 -0.001000 -0.313512
v -0.199756 -0.001000 0.313512
v 0.199755 -0.001000 0.313512
v 0.199755 0.000184 0.315000
v -0.199756 0.000184 0.315000
v 0.199755 0.027816 -0.315000
v 0.199755 0.029000 -0.313512
v 0.200000 0.027816 -0.313512
v 0.200000 0.018737 -0.313512
v 0.199755 0.018737 -0.315000
v -0.199756 0.027816 -0.315000
v -0.199756 0.018737 -0.315000
v -0.200000 0.018737 -0.313512
v -0.199756 0.029000 -0.313512
v 0.199755 0.029000 -0.313512
v 0.199755 0.027816 -0.315000
v -0.199756 0.027816 -0.315000
v 0.199755 0.000184 -0.315000
v 0.200000 0.000184 -0.313512
v 0.199755 -0.001000 -0.313512
v -0.199756 0.000184 -0.315000
v 0.199755 0.000184 -0.315000
v 0.199755 -0.001000 -0.313512
v -0.199756 -0.001000 -0.313512
v -0.199756 0.000184 -0.315000
v -0.199756 0.018737 0.315000
v 0.199755 0.018737 0.315000
v 0.199755 0.029000 -0.313512
v -0.199756 0.029000 -0.313512
v -0.199756 0.029000 0.313512
v 0.199755 0.029000 0.313512
v 0.199755 0.018737 -0.315000
v -0.199756 0.018737 -0.315000
v -0.199756 -0.001000 0.313512
v -0.199756 -0.001000 -0.313512
v 0.199755 -0.001000 -0.313512
v 0.199755 -0.001000 0.313512
v 0.199755 0.029000 -0.313512
v 0.199755 0.027816 -0.315000
v 0.199755 0.018737 -0.315000
v 0.199755 0.018737 -0.315000
v 0.199755 0.018737 0.315000
v 0.199755 0.027816 0.315000
v 0.199755 0.029000 -0.313512
v 0.199755 0.018737 -0.315000
v 0.199755 0.027816 0.315000
v 0.199755 0.029000 0.313512
v 0.199755 0.029000 -0.313512
v 0.199755 0.027816 0.315000
v -0.199756 0.018737 0.315000
v -0.199756 0.018737 -0.315000
v -0.199756 0.027816 -0.315000
v -0.199756 0.027816 -0.315000
v -0.199756 0.029000 -0.313512
v -0.199756 0.029000 0.313512
v -0.199756 0.018737 0.315000
v -0.199756 0.027816 -0.315000
v -0.199756 0.029000 0.313512
v -0.199756 0.027816 0.315000
v -0.199756 0.018737 0.315000
v -0.199756 0.029000 0.313512
v 0.199755 0.029000 -0.313512
v 0.199755 0.018737 -0.313512
v 0.199755 0.018737 -0.315000
v 0.199755 0.018737 -0.315000
v 0.199755 0.027816 -0.315000
v 0.199755 0.029000 -0.313512
v -0.199756 0.018737 -0.313512
v 0.199755 0.018737 -0.313512
v 0.199755 0.018737 -0.313512
v -0.199756 0.029000 -0.313512
v -0.199756 0.027816 -0.315000
v -0.199756 0.018737 -0.315000
v -0.199756 0.018737 -0.315000
v -0.199756 0.018737 -0.313512
v -0.199756 0.029000 -0.313512
v -0.199756 -0.001000 -0.313512
v -0.199756 0.018737 -0.313512
v 0.199755 0.018737 -0.313512
v 0.199755 -0.001000 -0.313512
v -0.199756 -0.001000 -0.313512
v 0.199755 0.018737 0.315000
v 0.199755 0.018737 0.313512
v 0.199755 0.029000 0.313512
v 0.199755 0.029000 0.313512
v 0.199755 0.027816 0.315000
v 0.199755 0.018737 0.315000
v -0.199756 -0.001000 0.313512
v -0.199756 0.000184 0.315000
v -0.199756 0.018737 0.315000
v -0.199756 0.018737 0.315000
v -0.199756 0.018737 0.313512
v -0.199756 -0.001000 0.313512
v -0.199756 -0.001000 0.313512
v -0.199756 0.018737 0.313512
v 0.199755 0.018737 0.313512
v 0.199755 0.018737 0.313512
v 0.199755 -0.001000 0.313512
v -0.199756 -0.001000 0.313512
v 0.199755 -0.001000 -0.313512
v 0.199755 0.018737 -0.313512
v 0.199755 0.018737 0.313512
v 0.199755 -0.001000 0.313512
v 0.199755 -0.001000 -0.313512
v -0.199756 0.029000 0.313512
v -0.199756 0.018737 0.313512
v 0.199755 0.018737 0.313512
v 0.199755 0.029000 0.313512
v -0.199756 0.029000 0.313512
v -0.199756 0.029000 -0.313512
v -0.199756 0.018737 -0.313512
v -0.199756 0.018737 0.313512
v -0.199756 0.029000 0.313512
v -0.199756 0.029000 -0.313512
v 0.199755 -0.001000 0.313512
v 0.199755 0.000184 0.315000
v 0.199755 0.018737 0.315000
v 0.199755 -0.001000 -0.313512
v 0.199755 -0.001000 0.313512
v 0.199755 0.018737 0.315000
v 0.199755 0.000184 -0.315000
v 0.199755 -0.001000 -0.313512
v 0.199755 0.018737 0.315000
v 0.199755 0.018737 -0.315000
v 0.199755 0.000184 -0.315000
v 0.199755 0.018737 0.315000
v -0.199756 -0.001000 -0.313512
v -0.199756 0.000184 -0.315000
v -0.199756 0.018737 -0.315000
v -0.199756 -0.001000 0.313512
v -0.199756 -0.001000 -0.313512
v -0.199756 0.018737 -0.315000
v -0.199756 0.000184 0.315000
v -0.199756 -0.001000 0.313512
v -0.199756 0.018737 -0.315000
v -0.199756 0.018737 0.315000
v -0.199756 0.000184 0.315000
v -0.199756 0.018737 -0.315000
v 0.199755 -0.001000 -0.313512
v 0.199755 0.000184 -0.315000
v 0.199755 0.018737 -0.315000
v 0.199755 0.018737 -0.315000
v 0.199755 -0.001000 -0.313512
v -0.199756 -0.001000 -0.313512
v 0.199755 -0.001000 -0.313512
v 0.199755 0.018737 -0.313512
v 0.199755 0.018737 -0.313512
v -0.199756 -0.001000 -0.313512
v -0.199756 0.000184 -0.315000
v -0.199756 -0.001000 -0.313512
v -0.199756 0.018737 -0.313512
v -0.199756 0.018737 -0.313512
v -0.199756 0.018737 -0.315000
v -0.199756 0.000184 -0.315000
v -0.199756 0.029000 -0.313512
v 0.199755 0.029000 -0.313512
v -0.199756 0.029000 -0.313512
v 0.199755 0.000184 0.315000
v 0.199755 -0.001000 0.313512
v 0.199755 0.018737 0.315000
v 0.199755 0.000184 0.315000
v -0.199756 0.027816 0.315000
v -0.199756 0.029000 0.313512
v -0.199756 0.018737 0.313512
v -0.199756 0.018737 0.313512
v -0.199756 0.018737 0.315000
v -0.199756 0.027816 0.315000
v -0.199756 0.029000 0.313512
v 0.199755 0.029000 0.313512
v 0.199755 0.018737 0.313512
v 0.199755 0.018737 0.313512
v -0.199756 0.018737 0.313512
v -0.199756 0.029000 0.313512
v 0.199755 0.029000 -0.313512
v 0.199755 0.029000 0.313512
v 0.199755 0.029000 -0.313512
v -0.199756 -0.001000 0.313512
v 0.199755 -0.001000 0.313512
v -0.199756 -0.001000 0.313512
v -0.199756 -0.001000 -0.313512
v -0.199756 -0.001000 0.313512
v -0.199756 -0.001000 -0.313512
vt 0.4386 0.5275
vt 0.4386 0.5256
vt 0.4404 0.5256
vt 0.4286 0.5274
vt 0.4285 0.5258
vt 0.3781 0.5276
vt 0.3762 0.5257
vt 0.3781 0.5257
vt 0.3881 0.5258
vt 0.3881 0.5274
vt 0.3764 0.0023
vt 0.3782 0.0023
vt 0.3265 0.9939
vt 0.3266 0.9996
vt 0.0004 0.9996
vt 0.0004 0.9939
vt 0.4103 0.5273
vt 0.4088 0.5257
vt 0.4104 0.5257
vt 0.4064 0.5272
vt 0.4064 0.5255
vt 0.4080 0.5255
vt 0.4064 0.0023
vt 0.4080 0.0023
vt 0.0005 0.9657
vt 0.3266 0.9657
vt 0.3265 0.9714
vt 0.0004 0.9714
vt 0.4386 0.0004
vt 0.4404 0.0023
vt 0.4386 0.0023
vt 0.4286 0.0022
vt 0.4286 0.0006
vt 0.3782 0.0004
vt 0.3882 0.0006
vt 0.3882 0.0021
vt 0.4998 0.0089
vt 0.8317 0.0089
vt 0.8316 0.0147
vt 0.4997 0.0147
vt 0.4103 0.0008
vt 0.4104 0.0024
vt 0.4088 0.0024
vt 0.4064 0.0006
vt 0.8316 0.0377
vt 0.8316 0.0435
vt 0.4998 0.0435
vt 0.4997 0.0377
vt 0.0004 0.9865
vt 0.3265 0.9865
vt 0.0004 0.9649
vt 0.0004 0.5898
vt 0.5890 0.5898
vt 0.5890 0.9649
vt 0.8316 0.0223
vt 0.4997 0.0223
vt 0.0004 0.5890
vt 0.0004 0.0004
vt 0.3754 0.0004
vt 0.3754 0.5890
vt 0.5298 0.4547
vt 0.5285 0.4559
vt 0.5201 0.4547
vt 0.5099 0.0442
vt 0.5193 0.5816
vt 0.5099 0.5817
vt 0.7167 0.0458
vt 0.7266 0.0442
vt 0.7266 0.6158
vt 0.5243 0.4322
vt 0.5277 0.2389
vt 0.5277 0.4327
vt 0.4997 0.5817
vt 0.4997 0.0442
vt 0.5091 0.0443
vt 0.5243 0.0442
vt 0.5277 0.0447
vt 0.5243 0.2381
vt 0.7274 0.6158
vt 0.7274 0.0442
vt 0.7374 0.6142
vt 0.5285 0.4599
vt 0.5201 0.4587
vt 0.5298 0.4587
vt 0.5297 0.4495
vt 0.5201 0.4495
vt 0.5201 0.4481
vt 0.4307 0.5296
vt 0.4391 0.5283
vt 0.4404 0.5296
vt 0.5898 0.7888
vt 0.5898 0.7792
vt 0.9649 0.7793
vt 0.8317 0.0004
vt 0.4053 0.5284
vt 0.4040 0.5296
vt 0.3956 0.5284
vt 0.5201 0.4473
vt 0.5201 0.4459
vt 0.5297 0.4459
vt 0.5905 0.9649
vt 0.5901 0.9464
vt 0.9650 0.9367
vt 0.9649 0.8402
vt 0.9649 0.8587
vt 0.5898 0.8587
vt 0.5201 0.4539
vt 0.5201 0.4525
vt 0.5297 0.4525
vt 0.5298 0.4567
vt 0.5285 0.4579
vt 0.5201 0.4567
vt 0.3762 0.5362
vt 0.3775 0.5348
vt 0.3948 0.5362
vt 0.4273 0.5283
vt 0.4273 0.5297
vt 0.4088 0.5297
vt 0.5898 0.8394
vt 0.5898 0.8209
vt 0.9649 0.8209
vt 0.9649 0.8595
vt 0.9649 0.8781
vt 0.5898 0.8781
vt 0.4705 0.0004
vt 0.4888 0.0010
vt 0.4705 0.5827
vt 0.7931 0.6329
vt 0.7746 0.6329
vt 0.7746 0.0442
vt 0.3274 0.9938
vt 0.3276 0.9842
vt 0.7026 0.9938
vt 0.9649 0.7688
vt 0.9649 0.7784
vt 0.5898 0.7784
vt 0.4412 0.0013
vt 0.4514 0.0010
vt 0.4697 0.5828
vt 0.7052 0.6143
vt 0.6952 0.6143
vt 0.6952 0.0442
vt 0.4088 0.5361
vt 0.4100 0.5348
vt 0.4273 0.5361
vt 0.8325 0.0004
vt 0.8509 0.5887
vt 0.8325 0.5907
vt 0.5201 0.2429
vt 0.5235 0.2434
vt 0.5201 0.4408
vt 0.7564 0.0448
vt 0.7738 0.0442
vt 0.7738 0.6359
vt 0.3762 0.5341
vt 0.3775 0.5327
vt 0.3948 0.5341
vt 0.8317 0.6346
vt 0.8132 0.0462
vt 0.8317 0.0442
vt 0.5235 0.2421
vt 0.5201 0.2416
vt 0.5235 0.0442
vt 0.7556 0.6357
vt 0.7382 0.6357
vt 0.7556 0.0442
vt 0.4088 0.5340
vt 0.4100 0.5327
vt 0.4273 0.5340
vt 0.3948 0.5284
vt 0.3948 0.5298
vt 0.3762 0.5298
vt 0.5898 0.9359
vt 0.9644 0.9174
vt 0.9653 0.9359
vt 0.9653 0.8788
vt 0.5907 0.8973
vt 0.5898 0.8788
vt 0.4099 0.5319
vt 0.4088 0.5305
vt 0.4273 0.5305
vt 0.5375 0.4416
vt 0.5375 0.4430
vt 0.5201 0.4430
vt 0.5898 0.8097
vt 0.9647 0.8001
vt 0.9650 0.8097
vt 0.5898 0.9367
vt 0.3773 0.5320
vt 0.3762 0.5306
vt 0.3948 0.5306
vt 0.5375 0.4437
vt 0.5375 0.4451
vt 0.5201 0.4451
vt 0.5286 0.4503
vt 0.5297 0.4517
vt 0.5201 0.4517
vt 0.5201 0.4621
vt 0.5201 0.4607
vt 0.5286 0.4607
vt 0.5898 0.8201
vt 0.9647 0.8105
vt 0.9650 0.8201
vt 0.9650 0.7896
vt 0.5901 0.7993
vt 0.5898 0.7896
vt 0.7153 0.0442
vt 0.7159 0.6143
vt 0.7060 0.6143
vt 0.4990 0.0013
vt 0.5898 0.9166
vt 0.9644 0.8981
vt 0.9653 0.9166
vt 0.3281 0.9657
vt 0.7939 0.0442
vt 0.8124 0.6326
vt 0.7939 0.6332
vt 0.4697 0.0004
vn 0.9668 0.2000 0.1592
vn 0.9866 -0.0000 0.1629
vn 0.9867 0.0000 0.1628
vn 0.9867 0.0000 0.1625
vn -0.9670 0.1993 0.1586
vn -0.9868 0.0000 0.1618
vn -0.9869 0.0000 0.1615
vn -0.9795 0.2015 0.0000
vn 0.0000 0.7825 0.6226
vn 0.9668 -0.2000 0.1592
vn -0.9670 -0.1993 0.1586
vn -0.9795 -0.2015 -0.0000
vn 0.0000 -0.7825 0.6226
vn 0.9668 0.2000 -0.1592
vn 0.9866 0.0000 -0.1629
vn 0.9867 0.0000 -0.1625
vn 0.9793 0.2026 0.0000
vn 0.9792 0.2030 -0.0000
vn -0.9670 0.1993 -0.1586
vn -0.9868 0.0000 -0.1618
vn -0.9869 -0.0000 -0.1615
vn 0.0000 0.7825 -0.6226
vn 0.9668 -0.2000 -0.1592
vn 0.9792 -0.2030 0.0000
vn -0.9670 -0.1993 -0.1586
vn 0.0000 -0.7825 -0.6226
vn 1.0000 0.0000 0.0000
vn 0.0000 0.0000 1.0000
vn 0.0000 1.0000 0.0000
vn 0.0000 0.0000 -1.0000
vn -1.0000 0.0000 0.0000
vn 0.0000 -1.0000 -0.0000
vn 0.9867 0.0000 -0.1628
usemtl Material.008
s 1
f 1/1/1 2/2/1 3/3/1
f 2/2/2 1/1/2 4/4/3
f 4/4/3 5/5/4 2/2/2
f 6/6/5 7/7/5 8/8/5
f 8/8/6 9/9/6 10/10/6
f 10/10/6 6/6/7 8/8/6
f 11/11/8 12/12/8 8/8/8
f 8/8/8 7/7/8 11/11/8
f 13/13/9 14/14/9 15/15/9
f 15/15/9 16/16/9 13/13/9
f 17/17/10 18/18/10 19/19/10
f 20/20/11 21/21/11 22/22/11
f 22/22/12 21/21/12 23/23/12
f 23/23/12 24/24/12 22/22/12
f 25/25/13 26/26/13 27/27/13
f 27/27/13 28/28/13 25/25/13
f 29/29/14 30/30/14 31/31/14
f 31/31/15 32/32/16 33/33/16
f 33/33/16 29/29/15 31/31/15
f 30/30/17 3/3/18 2/2/17
f 2/2/17 31/31/18 30/30/17
f 34/34/19 12/12/19 11/11/19
f 12/12/20 34/34/21 35/35/20
f 35/35/20 36/36/20 12/12/20
f 37/37/22 38/38/22 39/39/22
f 39/39/22 40/40/22 37/37/22
f 41/41/23 42/42/23 43/43/23
f 43/43/24 42/42/24 19/19/24
f 19/19/24 18/18/24 43/43/24
f 44/44/25 24/24/25 23/23/25
f 45/45/26 46/46/26 47/47/26
f 47/47/26 48/48/26 45/45/26
f 5/5/27 32/32/27 31/31/27
f 31/31/27 2/2/27 5/5/27
f 16/16/28 49/49/28 50/50/28
f 50/50/28 13/13/28 16/16/28
f 51/51/29 52/52/29 53/53/29
f 53/53/29 54/54/29 51/51/29
f 55/55/30 56/56/30 40/40/30
f 40/40/30 39/39/30 55/55/30
f 12/12/31 36/36/31 9/9/31
f 9/9/31 8/8/31 12/12/31
f 57/57/32 58/58/32 59/59/32
f 59/59/32 60/60/32 57/57/32
f 4/4/3 17/17/3 19/19/2
f 19/19/2 5/5/4 4/4/3
f 21/21/6 20/20/7 10/10/6
f 10/10/6 9/9/6 21/21/6
f 42/42/15 41/41/33 33/33/16
f 33/33/16 32/32/16 42/42/15
f 35/35/20 44/44/21 23/23/20
f 23/23/20 36/36/20 35/35/20
f 19/19/27 42/42/27 32/32/27
f 32/32/27 5/5/27 19/19/27
f 28/28/28 27/27/28 50/50/28
f 50/50/28 49/49/28 28/28/28
f 45/45/30 48/48/30 56/56/30
f 56/56/30 55/55/30 45/45/30
f 23/23/31 21/21/31 9/9/31
f 9/9/31 36/36/31 23/23/31
f 61/61/31 62/62/31 63/63/31
f 64/64/31 65/65/31 66/66/31
f 67/67/31 68/68/31 69/69/31
f 70/70/31 71/71/31 72/72/31
f 73/73/27 74/74/27 75/75/27
f 76/76/27 77/77/27 78/78/27
f 79/79/27 80/80/27 81/81/27
f 82/82/27 83/83/27 84/84/27
f 85/85/27 86/86/27 87/87/27
f 88/88/27 89/89/27 90/90/27
f 37/91/28 91/92/28 92/93/28
f 93/94/28 38/38/28 37/37/28
f 94/95/31 95/96/31 96/97/31
f 97/98/31 98/99/31 99/100/31
f 100/101/30 101/102/30 102/103/30
f 102/104/30 103/105/30 104/106/30
f 105/107/27 106/108/27 107/109/27
f 108/110/27 109/111/27 110/112/27
f 111/113/31 112/114/31 113/115/31
f 114/116/31 115/117/31 116/118/31
f 117/119/30 118/120/30 119/121/30
f 120/122/30 121/123/30 122/124/30
f 123/125/27 124/126/27 125/127/27
f 125/128/27 126/129/27 127/130/27
f 128/131/28 129/132/28 130/133/28
f 130/134/28 131/135/28 132/136/28
f 133/137/31 134/138/31 135/139/31
f 135/140/31 136/141/31 137/142/31
f 138/143/31 139/144/31 140/145/31
f 141/146/31 142/147/31 143/148/31
f 144/149/31 145/150/31 146/151/31
f 147/152/31 148/153/31 149/154/31
f 150/155/27 151/156/27 152/157/27
f 153/158/27 154/159/27 155/160/27
f 156/161/27 157/162/27 158/163/27
f 159/164/27 160/165/27 161/166/27
f 162/167/27 163/168/27 164/169/27
f 165/170/27 86/171/27 166/172/27
f 167/173/28 168/174/28 169/175/28
f 170/176/28 91/177/28 171/178/28
f 172/179/31 173/180/31 174/181/31
f 175/182/31 176/183/31 177/184/31
f 178/185/30 179/186/30 102/187/30
f 102/103/30 101/102/30 180/188/30
f 181/189/27 182/190/27 106/191/27
f 106/192/27 183/193/27 184/194/27
f 185/195/31 186/196/31 187/197/31
f 188/198/31 189/199/31 190/200/31
f 191/201/30 192/202/30 193/203/30
f 194/204/30 195/205/30 196/206/30
f 197/207/27 198/208/27 125/209/27
f 125/127/27 124/126/27 199/210/27
f 200/211/28 201/212/28 130/213/28
f 130/133/28 129/132/28 202/214/28
f 203/215/31 204/216/31 135/217/31
f 135/139/31 134/138/31 205/218/31
