# Blender v2.78 (sub 0) OBJ File: ''
# www.blender.org
mtllib IKEA.ART.40205434.mtl
o model_model.027
v 0.298500 -0.298500 -0.008000
v 0.298500 0.298500 -0.008000
v 0.298500 0.298500 0.008000
v 0.298500 -0.298500 0.008000
v -0.298500 0.298500 -0.008000
v -0.298500 0.298500 0.008000
v -0.298500 -0.298500 -0.008000
v -0.298500 -0.298500 0.008000
v -0.258000 -0.250000 -0.008000
v -0.266750 -0.265156 -0.008000
v -0.284250 -0.265156 -0.008000
v -0.293000 -0.250000 -0.008000
v -0.284250 -0.234845 -0.008000
v -0.266750 -0.234845 -0.008000
v -0.284250 -0.234845 0.004630
v -0.293000 -0.250000 0.004630
v -0.284250 -0.265156 0.004630
v -0.266750 -0.265156 0.004630
v -0.258000 -0.250000 0.004630
v -0.266750 -0.234845 0.004630
v -0.258000 0.249988 -0.008000
v -0.266750 0.234833 -0.008000
v -0.284250 0.234833 -0.008000
v -0.293000 0.249988 -0.008000
v -0.284250 0.265143 -0.008000
v -0.266750 0.265143 -0.008000
v -0.284250 0.234833 0.004630
v -0.266750 0.234833 0.004630
v -0.258000 0.249988 0.004630
v -0.266750 0.265143 0.004630
v -0.284250 0.265143 0.004630
v -0.293000 0.249988 0.004630
v 0.298500 0.249988 0.008000
v -0.298500 0.249988 0.008000
v 0.298500 0.249988 -0.008000
v -0.298500 0.249988 -0.008000
v -0.298500 -0.250000 0.008000
v 0.298500 -0.250000 -0.008000
v 0.298500 -0.250000 0.008000
v -0.298500 -0.250000 -0.008000
v -0.298500 0.298500 -0.008000
v -0.298500 0.298500 0.008000
v -0.298500 0.298500 -0.008000
v 0.298500 -0.298500 -0.008000
v 0.298500 -0.298500 0.008000
v 0.298500 -0.298500 0.008000
v 0.298500 -0.250000 0.008000
v -0.298500 -0.298500 0.008000
v -0.298500 -0.298500 0.008000
v 0.298500 -0.298500 0.008000
v 0.298500 -0.250000 0.008000
v -0.284250 -0.234845 -0.008000
v -0.284250 -0.234845 0.004630
v -0.284250 -0.234845 -0.008000
v -0.284250 0.265143 0.004630
v -0.284250 0.265143 -0.008000
v -0.284250 0.265143 0.004630
v 0.298500 -0.250000 -0.008000
v 0.298500 -0.298500 -0.008000
v -0.298500 -0.298500 -0.008000
v -0.298500 -0.298500 -0.008000
v -0.293000 -0.250000 -0.008000
v -0.298500 -0.298500 -0.008000
v -0.293000 -0.250000 -0.008000
v -0.284250 -0.265156 -0.008000
v -0.298500 -0.298500 -0.008000
v -0.284250 -0.265156 -0.008000
v -0.266750 -0.265156 -0.008000
v 0.298500 -0.250000 -0.008000
v -0.298500 -0.298500 -0.008000
v -0.266750 -0.265156 -0.008000
v 0.298500 -0.250000 -0.008000
v -0.266750 -0.265156 -0.008000
v -0.258000 -0.250000 -0.008000
v -0.284250 -0.265156 0.004630
v -0.293000 -0.250000 0.004630
v -0.258000 -0.250000 0.004630
v -0.258000 -0.250000 0.004630
v -0.266750 -0.265156 0.004630
v -0.284250 -0.265156 0.004630
v -0.258000 0.249988 0.004630
v -0.266750 0.234833 0.004630
v -0.284250 0.234833 0.004630
v -0.284250 0.234833 0.004630
v -0.293000 0.249988 0.004630
v -0.258000 0.249988 0.004630
v 0.298500 0.298500 -0.008000
v 0.298500 0.298500 0.008000
v 0.298500 0.298500 -0.008000
v -0.298500 -0.250000 -0.008000
v -0.298500 -0.250000 0.008000
v -0.298500 -0.250000 -0.008000
v 0.298500 0.298500 0.008000
v -0.298500 0.298500 0.008000
v -0.298500 0.249988 0.008000
v -0.298500 0.249988 0.008000
v 0.298500 0.249988 0.008000
v 0.298500 0.298500 0.008000
v -0.298500 0.298500 -0.008000
v 0.298500 0.298500 -0.008000
v 0.298500 0.249988 -0.008000
v 0.298500 0.249988 -0.008000
v -0.258000 0.249988 -0.008000
v -0.266750 0.265143 -0.008000
v -0.298500 0.298500 -0.008000
v 0.298500 0.249988 -0.008000
v -0.266750 0.265143 -0.008000
v -0.298500 0.298500 -0.008000
v -0.266750 0.265143 -0.008000
v -0.284250 0.265143 -0.008000
v -0.298500 0.298500 -0.008000
v -0.284250 0.265143 -0.008000
v -0.293000 0.249988 -0.008000
v -0.298500 0.249988 -0.008000
v -0.298500 0.298500 -0.008000
v -0.293000 0.249988 -0.008000
v -0.284250 0.265143 0.004630
v -0.266750 0.265143 0.004630
v -0.258000 0.249988 0.004630
v -0.258000 0.249988 0.004630
v -0.293000 0.249988 0.004630
v -0.284250 0.265143 0.004630
v 0.298500 0.249988 0.008000
v -0.298500 0.249988 0.008000
v 0.298500 -0.250000 0.008000
v 0.298500 0.249988 0.008000
v -0.266750 0.234833 -0.008000
v -0.258000 0.249988 -0.008000
v 0.298500 0.249988 -0.008000
v -0.266750 0.234833 -0.008000
v 0.298500 0.249988 -0.008000
v 0.298500 -0.250000 -0.008000
v -0.284250 0.234833 -0.008000
v -0.266750 0.234833 -0.008000
v 0.298500 -0.250000 -0.008000
v -0.284250 0.234833 -0.008000
v 0.298500 -0.250000 -0.008000
v -0.258000 -0.250000 -0.008000
v -0.293000 0.249988 -0.008000
v -0.284250 0.234833 -0.008000
v -0.258000 -0.250000 -0.008000
v -0.293000 0.249988 -0.008000
v -0.258000 -0.250000 -0.008000
v -0.266750 -0.234845 -0.008000
v -0.293000 0.249988 -0.008000
v -0.266750 -0.234845 -0.008000
v -0.284250 -0.234845 -0.008000
v -0.298500 0.249988 -0.008000
v -0.293000 0.249988 -0.008000
v -0.284250 -0.234845 -0.008000
v -0.298500 0.249988 -0.008000
v -0.284250 -0.234845 -0.008000
v -0.293000 -0.250000 -0.008000
v -0.298500 0.249988 -0.008000
v -0.293000 -0.250000 -0.008000
v -0.284250 -0.234845 0.004630
v -0.266750 -0.234845 0.004630
v -0.258000 -0.250000 0.004630
v -0.258000 -0.250000 0.004630
v -0.293000 -0.250000 0.004630
v -0.284250 -0.234845 0.004630
v -0.298500 -0.298500 -0.008000
v -0.298500 -0.298500 0.008000
v -0.298500 -0.250000 0.008000
v -0.298500 -0.250000 0.008000
v -0.298500 -0.250000 -0.008000
v -0.298500 -0.298500 -0.008000
vt 445.3069 740.3680
vt 464.8167 740.3680
vt 464.8167 754.8607
vt 445.3069 754.8607
vt 425.7972 740.3680
vt 425.7972 754.8607
vt 406.2874 754.8607
vt 406.2874 740.3680
vt 484.3266 754.8607
vt 484.3266 740.3680
vt 367.2676 754.8607
vt 367.2676 740.3680
vt 386.7775 740.3680
vt 386.7775 754.8607
vt 367.2676 754.8607
vt 346.0295 655.8638
vt 346.0295 669.3984
vt 327.8094 669.3984
vt 327.8094 655.8638
vt 418.9099 655.8638
vt 418.9099 669.3984
vt 400.6898 669.3984
vt 400.6898 655.8638
vt 364.2496 669.3984
vt 364.2496 655.8638
vt 382.4696 669.3984
vt 382.4696 655.8638
vt 437.1299 655.8638
vt 437.1299 669.3984
vt 437.1299 655.8638
vt 417.1718 712.1875
vt 408.4218 727.3429
vt 443.4218 727.3429
vt 443.4218 727.3429
vt 434.6718 712.1875
vt 417.1718 712.1875
vt 451.2231 635.0557
vt 442.4731 619.9003
vt 424.9731 619.9003
vt 424.9731 619.9003
vt 416.2231 635.0557
vt 451.2231 635.0557
vt 424.9731 650.2112
vt 442.4731 650.2112
vt 451.2231 635.0557
vt 451.2231 635.0557
vt 416.2231 635.0557
vt 424.9731 650.2112
vt 417.1718 742.4984
vt 434.6718 742.4984
vt 443.4218 727.3429
vt 443.4218 727.3429
vt 408.4218 727.3429
vt 417.1718 742.4984
vt 1284.1008 50.8553
vt 1267.7308 50.8552
vt 1267.7308 2.3556
vt 1284.1008 2.3557
vt 1465.3710 0.9187
vt 1465.3711 597.9088
vt 1449.0011 597.9088
vt 1449.0010 0.9187
vt 1329.4702 599.1965
vt 1329.4703 550.6846
vt 1345.8403 550.6846
vt 1345.8403 599.1965
vt 1329.4702 599.1965
vt 1403.8831 1.0221
vt 1403.8831 598.0121
vt 1387.5131 598.0121
vt 1387.5131 598.0121
vt 1387.5131 1.0221
vt -5.5682 48.5608
vt 588.4318 48.5608
vt 588.4318 0.0612
vt 588.4318 0.0612
vt -5.5682 0.0612
vt -5.5682 48.5608
vt 590.3898 48.4939
vt 590.3898 -0.0057
vt 1184.3899 -0.0058
vt 1184.3899 -0.0058
vt 1184.3899 48.4938
vt 1178.8896 48.4939
vt 1184.3899 -0.0058
vt 1178.8896 48.4939
vt 1170.1396 33.3384
vt 1184.3899 -0.0058
vt 1170.1396 33.3384
vt 1152.6395 33.3384
vt 590.3898 48.4939
vt 1184.3899 -0.0058
vt 1152.6395 33.3384
vt 590.3898 48.4939
vt 1152.6395 33.3384
vt 1143.8895 48.4939
vt 1284.1008 602.3560
vt 1267.7308 602.3560
vt 1267.7308 553.8440
vt 1284.1008 553.8440
vt 1284.1008 602.3560
vt 1329.4703 47.6958
vt 1345.8403 47.6958
vt 1329.4703 47.6958
vt -5.5682 600.0615
vt 588.4318 600.0615
vt 588.4318 551.5496
vt 588.4318 551.5496
vt -5.5682 551.5496
vt -5.5682 600.0615
vt 1184.3899 599.9946
vt 590.3898 599.9946
vt 590.3898 551.4827
vt 590.3898 551.4827
vt 1143.8895 551.4827
vt 1152.6395 566.6381
vt 1184.3899 599.9946
vt 590.3898 551.4827
vt 1152.6395 566.6381
vt 1184.3899 599.9946
vt 1152.6395 566.6381
vt 1170.1396 566.6381
vt 1184.3899 599.9946
vt 1170.1396 566.6381
vt 1178.8896 551.4827
vt 1184.3899 551.4827
vt 1184.3899 599.9946
vt 1178.8896 551.4827
vt -5.5682 551.5496
vt 588.4318 551.5496
vt -5.5682 48.5608
vt -5.5682 551.5496
vt 1152.6395 536.3271
vt 1143.8895 551.4827
vt 590.3898 551.4827
vt 1152.6395 536.3271
vt 590.3898 551.4827
vt 590.3898 48.4939
vt 1170.1396 536.3271
vt 1152.6395 536.3271
vt 590.3898 48.4939
vt 1170.1396 536.3271
vt 590.3898 48.4939
vt 1143.8895 48.4939
vt 1178.8896 551.4827
vt 1170.1396 536.3271
vt 1143.8895 48.4939
vt 1178.8896 551.4827
vt 1143.8895 48.4939
vt 1152.6395 63.6493
vt 1178.8896 551.4827
vt 1152.6395 63.6493
vt 1170.1396 63.6493
vt 1184.3899 551.4827
vt 1178.8896 551.4827
vt 1170.1396 63.6493
vt 1184.3899 551.4827
vt 1170.1396 63.6493
vt 1178.8896 48.4939
vt 1184.3899 551.4827
vt 1178.8896 48.4939
vt 1329.4703 -0.8038
vt 1345.8403 -0.8038
vt 1345.8403 47.6958
vt 1345.8403 47.6958
vt 1329.4703 47.6958
vt 1329.4703 -0.8038
vn -0.8660 -0.5000 0.0000
vn 0.0000 1.0000 0.0000
vn 0.0000 -1.0000 0.0000
vn 0.8660 -0.5000 0.0000
vn 0.8660 0.5000 0.0000
vn -0.8660 0.5000 0.0000
vn 0.0000 0.0000 -1.0000
vn 1.0000 0.0000 0.0000
vn -1.0000 0.0000 0.0000
vn 0.0000 0.0000 1.0000
usemtl MAT003775V1-ICOM
s off
f 19/1/1 20/2/1 14/3/1
f 14/3/1 9/4/1 19/1/1
f 18/5/2 10/6/2 11/7/2
f 11/7/2 17/8/2 18/5/2
f 13/9/3 14/3/3 20/2/3
f 20/2/3 15/10/3 13/9/3
f 52/11/4 53/12/4 16/13/4
f 16/13/4 12/14/4 54/15/4
f 12/14/5 16/13/5 17/8/5
f 17/8/5 11/7/5 12/14/5
f 18/5/6 19/1/6 9/4/6
f 9/4/6 10/6/6 18/5/6
f 32/16/4 24/17/4 25/18/4
f 25/18/4 31/19/4 32/16/4
f 30/20/1 26/21/1 21/22/1
f 21/22/1 29/23/1 30/20/1
f 23/24/5 24/17/5 32/16/5
f 32/16/5 27/25/5 23/24/5
f 22/26/2 23/24/2 27/25/2
f 27/25/2 28/27/2 22/26/2
f 21/22/6 22/26/6 28/27/6
f 28/27/6 29/23/6 21/22/6
f 55/28/3 56/29/3 26/21/3
f 26/21/3 30/20/3 57/30/3
f 75/31/7 76/32/7 77/33/7
f 78/34/7 79/35/7 80/36/7
f 81/37/7 82/38/7 83/39/7
f 84/40/7 85/41/7 86/42/7
f 117/43/7 118/44/7 119/45/7
f 120/46/7 121/47/7 122/48/7
f 156/49/7 157/50/7 158/51/7
f 159/52/7 160/53/7 161/54/7
usemtl MAT003015V1-Appl
f 38/55/8 39/56/8 4/57/8
f 4/57/8 1/58/8 38/55/8
f 2/59/2 5/60/2 6/61/2
f 6/61/2 3/62/2 2/59/2
f 41/63/9 36/64/9 34/65/9
f 34/65/9 42/66/9 43/67/9
f 7/68/3 44/69/3 45/70/3
f 46/71/3 8/72/3 7/68/3
f 47/73/10 37/74/10 48/75/10
f 49/76/10 50/77/10 51/78/10
f 58/79/7 59/80/7 60/81/7
f 61/82/7 40/83/7 62/84/7
f 63/85/7 64/86/7 65/87/7
f 66/88/7 67/89/7 68/90/7
f 69/91/7 70/92/7 71/93/7
f 72/94/7 73/95/7 74/96/7
f 87/97/8 88/98/8 33/99/8
f 33/99/8 35/100/8 89/101/8
f 90/102/9 91/103/9 34/65/9
f 34/65/9 36/64/9 92/104/9
f 93/105/10 94/106/10 95/107/10
f 96/108/10 97/109/10 98/110/10
f 99/111/7 100/112/7 101/113/7
f 102/114/7 103/115/7 104/116/7
f 105/117/7 106/118/7 107/119/7
f 108/120/7 109/121/7 110/122/7
f 111/123/7 112/124/7 113/125/7
f 114/126/7 115/127/7 116/128/7
f 35/100/8 33/99/8 39/56/8
f 39/56/8 38/55/8 35/100/8
f 123/129/10 124/130/10 37/74/10
f 37/74/10 125/131/10 126/132/10
f 127/133/7 128/134/7 129/135/7
f 130/136/7 131/137/7 132/138/7
f 133/139/7 134/140/7 135/141/7
f 136/142/7 137/143/7 138/144/7
f 139/145/7 140/146/7 141/147/7
f 142/148/7 143/149/7 144/150/7
f 145/151/7 146/152/7 147/153/7
f 148/154/7 149/155/7 150/156/7
f 151/157/7 152/158/7 153/159/7
f 40/83/7 154/160/7 155/161/7
f 162/162/9 163/163/9 164/164/9
f 165/165/9 166/166/9 167/167/9
