# Blender v2.78 (sub 0) OBJ File: ''
# www.blender.org
mtllib IKEA.ART.30245223.mtl
o model_model.006
v -0.100450 0.000550 0.029800
v -0.097950 0.000550 0.029800
v -0.097950 -0.000449 0.030000
v -0.097950 -0.000449 0.029800
v -0.100450 -0.000449 0.030000
v -0.100450 0.000550 0.030000
v -0.097950 0.000550 0.030000
v -0.100450 -0.000449 0.029800
v -0.100450 -0.000449 -0.030000
v -0.100450 0.000550 -0.030000
v -0.100450 0.000550 -0.029800
v -0.097950 0.000550 -0.029800
v -0.097950 -0.000449 -0.029800
v -0.097950 -0.000449 -0.030000
v -0.100450 -0.000449 -0.029800
v -0.097950 0.000550 -0.030000
v -0.098829 0.000410 -0.029799
v -0.098829 0.000290 -0.029799
v -0.098829 0.000290 0.028849
v -0.098829 0.000410 0.028849
v -0.099629 0.000410 -0.029799
v -0.099629 0.000290 0.028849
v -0.099629 0.000410 0.028849
v -0.099629 0.000290 -0.029799
v -0.099531 0.000227 0.029457
v -0.099531 0.000372 0.029457
v -0.099531 0.000372 0.029773
v -0.099531 0.000227 0.029774
v 0.100450 0.000227 0.029457
v 0.100450 0.000372 0.029457
v 0.100450 0.000372 0.029773
v 0.100450 0.000227 0.029774
v -0.100389 0.000550 0.029800
v -0.097989 0.000550 0.029800
v -0.100389 0.000550 -0.029799
v -0.097989 0.000550 -0.029799
v -0.100194 0.000411 0.029800
v -0.098184 0.000411 0.029800
v -0.100194 0.000411 -0.029799
v -0.098184 0.000411 -0.029799
v -0.100389 -0.000550 0.029800
v -0.097989 -0.000550 0.029800
v -0.100389 -0.000550 -0.029799
v -0.097989 -0.000550 -0.029799
v -0.100194 -0.000411 0.029800
v -0.098184 -0.000411 0.029800
v -0.100194 -0.000411 -0.029799
v -0.098184 -0.000411 -0.029799
v -0.100450 0.000550 0.029800
v -0.100450 0.000550 0.030000
v -0.100450 0.000550 0.029800
v -0.097950 0.000550 0.029800
v -0.097950 0.000550 0.030000
v -0.097950 0.000550 0.030000
v -0.100450 0.000550 0.030000
v -0.100450 -0.000449 0.030000
v -0.097950 -0.000449 0.030000
v -0.097950 -0.000449 0.030000
v -0.097950 0.000550 0.030000
v -0.100450 0.000550 0.030000
v -0.097950 -0.000449 0.029800
v -0.100450 -0.000449 0.029800
v -0.100450 0.000550 0.029800
v -0.100450 0.000550 0.029800
v -0.097950 0.000550 0.029800
v -0.097950 -0.000449 0.029800
v -0.100450 0.000550 -0.029800
v -0.100450 0.000550 -0.030000
v -0.100450 0.000550 -0.029800
v -0.097950 0.000550 -0.030000
v -0.097950 0.000550 -0.030000
v -0.097950 0.000550 -0.029800
v -0.100450 0.000550 -0.030000
v -0.097950 0.000550 -0.030000
v -0.097950 -0.000449 -0.030000
v -0.097950 -0.000449 -0.030000
v -0.100450 -0.000449 -0.030000
v -0.100450 0.000550 -0.030000
v -0.098829 0.000290 0.028849
v -0.098829 0.000290 -0.029799
v -0.098829 0.000410 -0.029799
v -0.098829 0.000410 -0.029799
v -0.098829 0.000410 0.028849
v -0.098829 0.000290 0.028849
v -0.098829 0.000410 0.028849
v -0.098829 0.000410 -0.029799
v -0.099629 0.000410 -0.029799
v -0.099629 0.000410 -0.029799
v -0.099629 0.000410 0.028849
v -0.098829 0.000410 0.028849
v -0.099629 0.000410 0.028849
v -0.099629 0.000410 -0.029799
v -0.099629 0.000290 -0.029799
v -0.099629 0.000290 -0.029799
v -0.099629 0.000290 0.028849
v -0.099629 0.000410 0.028849
v 0.100450 0.000227 0.029457
v 0.100450 0.000227 0.029457
v -0.099531 0.000227 0.029457
v 0.100450 0.000372 0.029457
v 0.100450 0.000372 0.029457
v -0.099531 0.000372 0.029457
v -0.099531 0.000227 0.029774
v 0.100450 0.000227 0.029774
v 0.100450 0.000372 0.029773
v 0.100450 0.000372 0.029773
v -0.099531 0.000372 0.029773
v -0.099531 0.000227 0.029774
v -0.099531 0.000227 0.029457
v -0.099531 0.000227 0.029774
v -0.099531 0.000372 0.029773
v -0.099531 0.000372 0.029773
v -0.099531 0.000372 0.029457
v -0.099531 0.000227 0.029457
v -0.099629 0.000290 0.028849
v -0.099629 0.000290 -0.029799
v -0.098829 0.000290 -0.029799
v -0.098829 0.000290 -0.029799
v -0.098829 0.000290 0.028849
v -0.099629 0.000290 0.028849
v -0.097950 -0.000449 0.030000
v -0.100450 -0.000449 0.030000
v -0.100450 -0.000449 0.029800
v -0.100450 -0.000449 0.029800
v -0.097950 -0.000449 0.029800
v -0.097950 -0.000449 0.030000
v -0.100450 -0.000449 -0.029800
v -0.100450 -0.000449 -0.030000
v -0.097950 -0.000449 -0.030000
v -0.097950 -0.000449 -0.030000
v -0.097950 -0.000449 -0.029800
v -0.100450 -0.000449 -0.029800
v -0.100450 -0.000449 -0.029800
v -0.097950 -0.000449 -0.029800
v -0.097950 0.000550 -0.029800
v -0.097950 0.000550 -0.029800
v -0.100450 0.000550 -0.029800
v -0.100450 -0.000449 -0.029800
v -0.100194 0.000411 0.029800
v -0.098184 0.000411 0.029800
v -0.097989 0.000550 0.029800
v -0.097989 0.000550 0.029800
v -0.100389 0.000550 0.029800
v -0.100194 0.000411 0.029800
v -0.098184 0.000411 -0.029799
v -0.100194 0.000411 -0.029799
v -0.100389 0.000550 -0.029799
v -0.100389 0.000550 -0.029799
v -0.097989 0.000550 -0.029799
v -0.098184 0.000411 -0.029799
v -0.097989 -0.000550 0.029800
v -0.097989 -0.000550 -0.029799
v -0.097989 0.000550 -0.029799
v -0.097989 0.000550 -0.029799
v -0.097989 0.000550 0.029800
v -0.097989 -0.000550 0.029800
v -0.100389 0.000550 0.029800
v -0.100389 0.000550 -0.029799
v -0.100389 -0.000550 -0.029799
v -0.100389 -0.000550 -0.029799
v -0.100389 -0.000550 0.029800
v -0.100389 0.000550 0.029800
v -0.098184 -0.000411 0.029800
v -0.098184 0.000411 0.029800
v -0.098184 0.000411 -0.029799
v -0.098184 0.000411 -0.029799
v -0.098184 -0.000411 -0.029799
v -0.098184 -0.000411 0.029800
v -0.100194 -0.000411 -0.029799
v -0.100194 0.000411 -0.029799
v -0.100194 0.000411 0.029800
v -0.100194 0.000411 0.029800
v -0.100194 -0.000411 0.029800
v -0.100194 -0.000411 -0.029799
v -0.100194 -0.000411 0.029800
v -0.100389 -0.000550 0.029800
v -0.097989 -0.000550 0.029800
v -0.097989 -0.000550 0.029800
v -0.098184 -0.000411 0.029800
v -0.100194 -0.000411 0.029800
v -0.098184 -0.000411 -0.029799
v -0.097989 -0.000550 -0.029799
v -0.100389 -0.000550 -0.029799
v -0.100389 -0.000550 -0.029799
v -0.100194 -0.000411 -0.029799
v -0.098184 -0.000411 -0.029799
v -0.097989 0.000550 0.029800
v -0.098184 0.000411 0.029800
v -0.098184 -0.000411 0.029800
v -0.098184 -0.000411 0.029800
v -0.097989 -0.000550 0.029800
v -0.097989 0.000550 0.029800
v -0.097989 -0.000550 -0.029799
v -0.098184 -0.000411 -0.029799
v -0.098184 0.000411 -0.029799
v -0.098184 0.000411 -0.029799
v -0.097989 0.000550 -0.029799
v -0.097989 -0.000550 -0.029799
v -0.100389 -0.000550 0.029800
v -0.100194 -0.000411 0.029800
v -0.100194 0.000411 0.029800
v -0.100194 0.000411 0.029800
v -0.100389 0.000550 0.029800
v -0.100389 -0.000550 0.029800
v -0.100389 0.000550 -0.029799
v -0.100194 0.000411 -0.029799
v -0.100194 -0.000411 -0.029799
v -0.100194 -0.000411 -0.029799
v -0.100389 -0.000550 -0.029799
v -0.100389 0.000550 -0.029799
vt -3.2254 -2.4066
vt -3.2254 -3.6066
vt 4.7746 -3.6066
vt 4.7746 -2.4066
vt 4.2156 -3.6066
vt 4.2156 -2.4066
vt -3.7844 -2.4066
vt -3.7844 -3.6066
vt 5.5374 -289.0676
vt 5.5374 297.4143
vt 4.3374 297.4143
vt 4.3374 297.4143
vt 4.3374 -289.0676
vt 5.5374 -289.0676
vt 4.7916 -287.9903
vt 4.7916 298.4917
vt -3.2084 298.4917
vt -3.2084 298.4917
vt -3.2084 -287.9903
vt 4.7916 -287.9903
vt 4.3374 287.9129
vt 4.3374 -298.5692
vt 5.5374 -298.5692
vt 5.5374 -298.5692
vt 5.5374 287.9129
vt 4.3374 287.9129
vt 4.4927 -292.7410
vt 4.4927 293.7410
vt -3.5073 293.7410
vt -3.5073 293.7410
vt -3.5073 -292.7410
vt 4.4927 -292.7410
vt 12.4997 298.4973
vt -11.4996 298.4973
vt -11.4997 -297.4973
vt 12.4997 -297.4973
vt 10.5772 -297.4973
vt 10.5772 298.4973
vt -9.5189 298.4973
vt -9.5188 -297.4973
vt 10.5481 -3.6136
vt -9.5479 -3.6136
vt -11.4997 -5.0066
vt -11.4997 -5.0066
vt 12.4997 -5.0066
vt 10.5481 -3.6136
vt 10.5480 -3.6136
vt -9.5481 -3.6136
vt -11.4997 -5.0066
vt -11.4997 -5.0066
vt 12.4997 -5.0066
vt 10.5480 -3.6136
vt 6.0212 -297.9630
vt 6.0212 298.0316
vt -4.9921 298.0316
vt -4.9921 298.0316
vt -4.9921 -297.9630
vt 6.0212 -297.9630
vt 6.0066 -297.9630
vt 6.0066 298.0316
vt -5.0066 298.0316
vt -5.0066 298.0316
vt -5.0067 -297.9630
vt 6.0066 -297.9630
vt -3.6136 -297.4973
vt 4.6137 -297.4973
vt 4.6136 298.4973
vt 4.6136 298.4973
vt -3.6136 298.4973
vt -3.6136 -297.4973
vt 4.6064 298.0316
vt -3.6209 298.0316
vt -3.6209 -297.9630
vt -3.6209 -297.9630
vt 4.6063 -297.9630
vt 4.6064 298.0316
vt 10.5480 4.5991
vt 12.4997 5.9921
vt -11.4997 5.9921
vt -11.4997 5.9921
vt -9.5481 4.5991
vt 10.5480 4.5991
vt -11.4997 -5.0066
vt -9.5479 -3.6136
vt -9.5479 4.6136
vt -9.5479 4.6136
vt -11.4997 6.0066
vt -11.4997 -5.0066
vt 12.5579 6.0139
vt 10.6062 4.6209
vt 10.6062 -3.6064
vt 10.6062 -3.6064
vt 12.5579 -4.9994
vt 12.5579 6.0139
vt 12.4997 6.0066
vt 10.5481 4.6136
vt 10.5481 -3.6136
vt 10.5481 -3.6136
vt 12.4997 -5.0066
vt 12.4997 6.0066
vt -11.4997 -5.0212
vt -9.5481 -3.6282
vt -9.5481 4.5991
vt -9.5481 4.5991
vt -11.4997 5.9921
vt -11.4997 -5.0212
vt -11.4997 298.0316
vt -11.4997 -297.9630
vt 12.4997 -297.9630
vt 12.4996 298.0316
vt -9.5772 -297.9630
vt 10.5188 -297.9630
vt 10.5189 298.0316
vt -9.5772 298.0316
vt 10.5481 4.6282
vt 12.4997 6.0212
vt -11.4997 6.0212
vt -11.4997 6.0212
vt -9.5479 4.6282
vt 10.5481 4.6282
vt -999.5109 -1.0821
vt 1000.5109 -1.0823
vt 1000.5109 2.0821
vt -999.5109 2.0823
vt 1000.5001 1.2239
vt -999.5001 1.2238
vt -999.5001 -0.2238
vt -999.5001 -0.2238
vt 1000.5001 -0.2237
vt 1000.4917 2.0797
vt -999.4917 2.0795
vt -999.4917 -1.0809
vt -999.4917 -1.0809
vt 1000.4917 -1.0808
vt -999.5002 -0.2213
vt 1000.5002 -0.2214
vt 1000.5002 1.2256
vt 1000.5002 1.2256
vt -999.5002 1.2257
vt -999.5002 -0.2213
vt -1.0824 -0.2241
vt 2.0819 -0.2235
vt 2.0806 1.2235
vt 2.0806 1.2235
vt -1.0798 1.2235
vt -1.0824 -0.2241
vt 1.5000 -4.4927
vt 1.5000 5.5073
vt -0.5000 5.5073
vt -0.5000 -4.4927
vt 13.0000 -0.5000
vt 13.0000 1.5000
vt -12.0000 1.5000
vt -12.0000 -0.5000
vt 13.0000 -0.5000
vt -0.5982 5.5073
vt -0.5982 -4.4927
vt 1.4018 -4.4927
vt 1.4018 -4.4927
vt 1.4018 5.5073
vt -12.0000 5.5000
vt -12.0000 -4.5000
vt 13.0000 -4.5000
vt 13.0000 -4.5000
vt 13.0000 5.5000
vt -12.0000 5.5000
vt -12.0000 -4.4927
vt 13.0000 -4.4927
vt 13.0000 5.5073
vt 13.0000 5.5073
vt -12.0000 5.5073
vt -12.0000 -4.4927
vt -0.5000 -4.5000
vt 1.5000 -4.5000
vt 1.5000 5.5000
vt -0.5000 5.5000
vt 13.0000 1.5000
vt -12.0000 1.5000
vt -12.0000 -0.5000
vt 13.0000 -0.5000
vt 13.0000 1.5000
vt 1.5000 5.5000
vt -0.5000 5.5000
vt -0.5000 -4.5000
vt -0.5000 -4.5000
vt 1.5000 -4.5000
vt 13.0000 5.5000
vt -12.0000 5.5000
vt -12.0000 -4.5000
vt -12.0000 -4.5000
vt 13.0000 -4.5000
vt 13.0000 5.5000
vt 13.0000 1.4018
vt -12.0000 1.4018
vt -12.0000 -0.5982
vt -12.0000 -0.5982
vt 13.0000 -0.5982
vt 13.0000 1.4018
vt -12.0000 1.5000
vt -12.0000 -0.5000
vt 13.0000 -0.5000
vt 13.0000 -0.5000
vt 13.0000 1.5000
vt -12.0000 1.5000
vt -12.0000 -4.5000
vt 13.0000 -4.5000
vt 13.0000 5.5000
vt 13.0000 5.5000
vt -12.0000 5.5000
vt -12.0000 -4.5000
vn 0.0000 0.0000 -1.0000
vn 0.0000 0.0000 1.0000
vn 1.0000 0.0000 0.0000
vn 0.0000 1.0000 -0.0000
vn -1.0000 0.0000 0.0000
vn 0.0000 -1.0000 0.0000
vn -0.0000 -1.0000 0.0002
vn -0.0000 0.0019 -1.0000
vn 0.0000 0.0010 1.0000
vn 0.0000 0.0008 1.0000
vn -1.0000 -0.0001 0.0000
usemtl MAT003071V1-Ikea
s off
f 17/1/1 18/2/1 24/3/1
f 24/3/1 21/4/1 17/1/1
f 19/5/2 20/6/2 23/7/2
f 23/7/2 22/8/2 19/5/2
f 79/9/3 80/10/3 81/11/3
f 82/12/3 83/13/3 84/14/3
f 85/15/4 86/16/4 87/17/4
f 88/18/4 89/19/4 90/20/4
f 91/21/5 92/22/5 93/23/5
f 94/24/5 95/25/5 96/26/5
f 115/27/6 116/28/6 117/29/6
f 118/30/6 119/31/6 120/32/6
f 36/33/4 35/34/4 33/35/4
f 33/35/4 34/36/4 36/33/4
f 37/37/6 39/38/6 40/39/6
f 40/39/6 38/40/6 37/37/6
f 139/41/2 140/42/2 141/43/2
f 142/44/2 143/45/2 144/46/2
f 145/47/1 146/48/1 147/49/1
f 148/50/1 149/51/1 150/52/1
f 151/53/3 152/54/3 153/55/3
f 154/56/3 155/57/3 156/58/3
f 157/59/5 158/60/5 159/61/5
f 160/62/5 161/63/5 162/64/5
f 163/65/5 164/66/5 165/67/5
f 166/68/5 167/69/5 168/70/5
f 169/71/3 170/72/3 171/73/3
f 172/74/3 173/75/3 174/76/3
f 181/77/1 182/78/1 183/79/1
f 184/80/1 185/81/1 186/82/1
f 187/83/2 188/84/2 189/85/2
f 190/86/2 191/87/2 192/88/2
f 193/89/1 194/90/1 195/91/1
f 196/92/1 197/93/1 198/94/1
f 199/95/2 200/96/2 201/97/2
f 202/98/2 203/99/2 204/100/2
f 205/101/1 206/102/1 207/103/1
f 208/104/1 209/105/1 210/106/1
usemtl MAT003206V1-ICOM
f 44/107/6 42/108/6 41/109/6
f 41/109/6 43/110/6 44/107/6
f 45/111/4 46/112/4 48/113/4
f 48/113/4 47/114/4 45/111/4
f 175/115/2 176/116/2 177/117/2
f 178/118/2 179/119/2 180/120/2
usemtl MAT001132V1-IKEA
f 25/121/7 29/122/7 32/123/7
f 32/123/7 28/124/7 25/121/7
f 26/125/8 30/126/8 97/127/8
f 98/128/8 99/129/8 26/125/8
f 27/130/4 31/131/4 100/132/4
f 101/133/4 102/134/4 27/130/4
f 103/135/9 104/136/9 105/137/9
f 106/138/10 107/139/10 108/140/10
f 109/141/11 110/142/11 111/143/11
f 112/144/5 113/145/5 114/146/5
usemtl MAT001137V1-IKEA
f 1/147/5 8/148/5 5/149/5
f 1/147/5 5/149/5 6/150/5
f 49/151/4 50/152/4 7/153/4
f 7/153/4 2/154/4 51/155/4
f 4/156/3 52/157/3 53/158/3
f 54/159/3 3/160/3 4/156/3
f 55/161/2 56/162/2 57/163/2
f 58/164/2 59/165/2 60/166/2
f 61/167/1 62/168/1 63/169/1
f 64/170/1 65/171/1 66/172/1
f 11/173/5 10/174/5 9/175/5
f 9/175/5 15/176/5 11/173/5
f 67/177/4 12/178/4 16/179/4
f 16/179/4 68/180/4 69/181/4
f 13/182/3 14/183/3 70/184/3
f 71/185/3 72/186/3 13/182/3
f 73/187/1 74/188/1 75/189/1
f 76/190/1 77/191/1 78/192/1
f 121/193/6 122/194/6 123/195/6
f 124/196/6 125/197/6 126/198/6
f 127/199/6 128/200/6 129/201/6
f 130/202/6 131/203/6 132/204/6
f 133/205/2 134/206/2 135/207/2
f 136/208/2 137/209/2 138/210/2
