# Blender v2.78 (sub 0) OBJ File: ''
# www.blender.org
mtllib IKEA.ART.70221055.mtl
o model_model.042
v 0.291461 0.891476 0.008989
v 0.243484 0.504061 0.004375
v 0.291461 -0.291476 0.008989
v 0.243484 -0.243492 0.004375
v 0.243484 0.448974 0.004375
v 0.233947 0.439441 0.004348
v 0.247265 -0.249003 0.008989
v 0.243484 0.843492 0.004375
v 0.247265 0.849003 0.008989
v 0.218446 0.818458 0.008989
v 0.233947 0.833959 0.004348
v 0.218446 0.529094 0.008989
v 0.233947 0.513594 0.004348
v 0.247265 0.498550 0.008989
v 0.233947 -0.233959 0.004348
v 0.218446 -0.218459 0.008989
v 0.218446 0.423941 0.008989
v 0.247265 0.454485 0.008989
v 0.298490 0.898498 0.003390
v 0.298490 -0.298498 0.003390
v -0.000004 0.843492 0.004375
v -0.000004 0.833959 0.004348
v -0.000004 0.818458 0.008989
v -0.000004 0.529094 0.008989
v -0.000004 0.498550 0.008989
v -0.000004 -0.233959 0.004348
v -0.000004 -0.249003 0.008989
v -0.000004 -0.218459 0.008989
v -0.000004 -0.291476 0.008989
v -0.000004 0.439441 0.004348
v -0.000004 0.454485 0.008989
v -0.000004 0.898498 0.003390
v -0.000004 -0.298498 0.003390
v -0.291470 0.891476 0.008989
v -0.298499 0.898498 0.003390
v -0.233956 0.513594 0.004348
v -0.233956 0.833959 0.004348
v -0.218455 0.818458 0.008989
v -0.218455 0.529094 0.008989
v -0.243493 0.504061 0.004375
v -0.247274 0.498550 0.008989
v -0.247274 0.849003 0.008989
v -0.243493 0.843492 0.004375
v -0.291470 -0.291476 0.008989
v -0.298499 -0.298498 0.003390
v -0.233956 -0.233959 0.004348
v -0.233956 0.439441 0.004348
v -0.218455 0.423941 0.008989
v -0.218455 -0.218459 0.008989
v -0.247274 -0.249003 0.008989
v -0.247274 0.454485 0.008989
v -0.243493 0.448974 0.004375
v -0.243493 -0.243492 0.004375
v -0.000004 0.849003 0.008989
v -0.000004 0.513593 0.004348
v -0.000004 0.891476 0.008989
v -0.000004 0.448974 0.004375
v -0.000004 0.504061 0.004375
v -0.000004 -0.243492 0.004375
v -0.000004 0.423941 0.008989
v 0.298499 0.898497 -0.008989
v 0.298490 -0.298498 -0.008988
v -0.000004 0.898498 -0.008989
v -0.000004 -0.298498 -0.008988
v -0.298495 0.898497 -0.008989
v -0.298495 -0.298497 -0.008989
v -0.291764 0.856439 0.003811
v -0.291764 0.856439 -0.008989
v -0.281934 0.866269 0.003811
v -0.281934 0.866269 -0.008989
v -0.269051 0.866269 0.003811
v -0.269051 0.866269 -0.008989
v -0.259221 0.856439 0.003811
v -0.259221 0.856439 -0.008989
v -0.259221 0.843556 0.003811
v -0.259221 0.843556 -0.008989
v -0.269051 0.833727 0.003811
v -0.269051 0.833727 -0.008989
v -0.281934 0.833727 0.003811
v -0.281934 0.833727 -0.008989
v -0.291764 0.843556 0.003811
v -0.291764 0.843556 -0.008989
v -0.292922 0.401574 0.003811
v -0.292922 0.401574 -0.008989
v -0.289079 0.388972 -0.008989
v -0.289079 0.388972 0.003811
v -0.277065 0.382573 -0.008989
v -0.277065 0.382573 0.003811
v -0.264462 0.386416 -0.008989
v -0.264462 0.386416 0.003811
v -0.258063 0.398429 -0.008989
v -0.258063 0.398429 0.003811
v -0.261906 0.411032 -0.008989
v -0.261906 0.411032 0.003811
v -0.273920 0.417431 -0.008989
v -0.273920 0.417431 0.003811
v -0.286523 0.413588 -0.008989
v -0.286523 0.413588 0.003811
v -0.291764 -0.243556 0.003811
v -0.291764 -0.243556 -0.008989
v -0.291764 -0.256440 -0.008989
v -0.291764 -0.256440 0.003811
v -0.281934 -0.266269 -0.008989
v -0.281934 -0.266269 0.003811
v -0.269051 -0.266269 -0.008989
v -0.269051 -0.266269 0.003811
v -0.259221 -0.256440 -0.008989
v -0.259221 -0.256440 0.003811
v -0.259221 -0.243556 -0.008989
v -0.259221 -0.243556 0.003811
v -0.269051 -0.233727 -0.008989
v -0.269051 -0.233727 0.003811
v -0.281934 -0.233727 -0.008989
v -0.281934 -0.233727 0.003811
v 0.291461 0.474530 0.008989
v 0.247265 0.474530 0.008989
v 0.298490 0.474530 0.003390
v -0.298499 0.474530 0.003390
v -0.291470 0.474530 0.008989
v -0.247274 0.474530 0.008989
v -0.000004 0.474530 0.008989
v 0.298494 0.474530 -0.008988
v -0.298495 0.474530 -0.008988
v 0.298499 0.898497 -0.008989
v -0.298495 -0.298497 -0.008989
v -0.269051 0.866269 -0.008989
v -0.269051 0.866269 0.003811
v -0.269051 0.866269 -0.008989
v -0.286523 0.413588 -0.008989
v -0.286523 0.413588 -0.008989
v -0.286523 0.413588 0.003811
v -0.281934 -0.233727 -0.008989
v -0.281934 -0.233727 -0.008989
v -0.281934 -0.233727 0.003811
v -0.281934 -0.233727 -0.008989
v -0.289079 0.388972 -0.008989
v -0.277065 0.382573 -0.008989
v -0.277065 0.382573 -0.008989
v -0.269051 -0.233727 -0.008989
v -0.281934 -0.233727 -0.008989
v -0.281934 0.866269 0.003811
v -0.269051 0.866269 0.003811
v -0.259221 0.856439 0.003811
v -0.259221 0.856439 0.003811
v -0.259221 0.843556 0.003811
v -0.269051 0.833727 0.003811
v -0.269051 0.833727 0.003811
v -0.281934 0.833727 0.003811
v -0.291764 0.843556 0.003811
v -0.259221 0.856439 0.003811
v -0.269051 0.833727 0.003811
v -0.291764 0.843556 0.003811
v -0.281934 0.866269 0.003811
v -0.259221 0.856439 0.003811
v -0.291764 0.843556 0.003811
v -0.291764 0.856439 0.003811
v -0.281934 0.866269 0.003811
v -0.291764 0.843556 0.003811
v -0.286523 0.413588 0.003811
v -0.273920 0.417431 0.003811
v -0.261906 0.411032 0.003811
v -0.261906 0.411032 0.003811
v -0.258063 0.398429 0.003811
v -0.264462 0.386416 0.003811
v -0.264462 0.386416 0.003811
v -0.277065 0.382573 0.003811
v -0.289079 0.388972 0.003811
v -0.261906 0.411032 0.003811
v -0.264462 0.386416 0.003811
v -0.289079 0.388972 0.003811
v -0.286523 0.413588 0.003811
v -0.261906 0.411032 0.003811
v -0.289079 0.388972 0.003811
v -0.292922 0.401574 0.003811
v -0.286523 0.413588 0.003811
v -0.289079 0.388972 0.003811
v -0.281934 -0.233727 0.003811
v -0.269051 -0.233727 0.003811
v -0.259221 -0.243556 0.003811
v -0.259221 -0.243556 0.003811
v -0.259221 -0.256440 0.003811
v -0.269051 -0.266269 0.003811
v -0.269051 -0.266269 0.003811
v -0.281934 -0.266269 0.003811
v -0.291764 -0.256440 0.003811
v -0.259221 -0.243556 0.003811
v -0.269051 -0.266269 0.003811
v -0.291764 -0.256440 0.003811
v -0.281934 -0.233727 0.003811
v -0.259221 -0.243556 0.003811
v -0.291764 -0.256440 0.003811
v -0.291764 -0.243556 0.003811
v -0.281934 -0.233727 0.003811
v -0.291764 -0.256440 0.003811
v -0.269051 0.866269 -0.008989
v -0.281934 0.866269 -0.008989
v -0.298495 0.898497 -0.008989
v -0.298495 0.898497 -0.008989
v -0.000004 0.898498 -0.008989
v -0.269051 0.866269 -0.008989
v -0.269051 -0.266269 -0.008989
v -0.000004 -0.298498 -0.008988
v -0.298495 -0.298497 -0.008989
v -0.298495 -0.298497 -0.008989
v -0.281934 -0.266269 -0.008989
v -0.269051 -0.266269 -0.008989
v 0.298490 -0.298498 -0.008988
v -0.000004 -0.298498 -0.008988
v -0.269051 -0.266269 -0.008989
v 0.298490 -0.298498 -0.008988
v -0.269051 -0.266269 -0.008989
v -0.259221 -0.256440 -0.008989
v 0.298490 -0.298498 -0.008988
v -0.259221 -0.256440 -0.008989
v -0.259221 -0.243556 -0.008989
v -0.259221 -0.243556 -0.008989
v -0.269051 -0.233727 -0.008989
v -0.277065 0.382573 -0.008989
v -0.259221 -0.243556 -0.008989
v -0.277065 0.382573 -0.008989
v -0.264462 0.386416 -0.008989
v -0.259221 -0.243556 -0.008989
v -0.264462 0.386416 -0.008989
v -0.258063 0.398429 -0.008989
v 0.298490 -0.298498 -0.008988
v -0.259221 -0.243556 -0.008989
v -0.258063 0.398429 -0.008989
v 0.298490 -0.298498 -0.008988
v -0.258063 0.398429 -0.008989
v -0.261906 0.411032 -0.008989
v -0.292922 0.401574 -0.008989
v -0.289079 0.388972 -0.008989
v -0.281934 -0.233727 -0.008989
v -0.292922 0.401574 -0.008989
v -0.281934 -0.233727 -0.008989
v -0.291764 -0.243556 -0.008989
v -0.291764 -0.256440 -0.008989
v -0.281934 -0.266269 -0.008989
v -0.298495 -0.298497 -0.008989
v -0.291764 -0.243556 -0.008989
v -0.291764 -0.256440 -0.008989
v -0.298495 -0.298497 -0.008989
v -0.292922 0.401574 -0.008989
v -0.291764 -0.243556 -0.008989
v -0.298495 -0.298497 -0.008989
v -0.292922 0.401574 -0.008989
v -0.298495 -0.298497 -0.008989
v -0.298495 0.474530 -0.008988
v -0.286523 0.413588 -0.008989
v -0.292922 0.401574 -0.008989
v -0.298495 0.474530 -0.008988
v -0.273920 0.417431 -0.008989
v -0.286523 0.413588 -0.008989
v -0.298495 0.474530 -0.008988
v -0.261906 0.411032 -0.008989
v -0.273920 0.417431 -0.008989
v -0.298495 0.474530 -0.008988
v 0.298490 -0.298498 -0.008988
v -0.261906 0.411032 -0.008989
v -0.298495 0.474530 -0.008988
v 0.298490 -0.298498 -0.008988
v -0.298495 0.474530 -0.008988
v 0.298494 0.474530 -0.008988
v -0.298495 0.898497 -0.008989
v 0.298490 -0.298498 -0.008988
v 0.298499 0.898497 -0.008989
v 0.298494 0.474530 -0.008988
v -0.298495 0.474530 -0.008988
v -0.298495 0.898497 -0.008989
v -0.281934 0.866269 -0.008989
v -0.291764 0.856439 -0.008989
v -0.298495 0.474530 -0.008988
v -0.298495 0.898497 -0.008989
v -0.291764 0.856439 -0.008989
v -0.298495 0.474530 -0.008988
v -0.291764 0.856439 -0.008989
v -0.291764 0.843556 -0.008989
v -0.298495 0.474530 -0.008988
v -0.291764 0.843556 -0.008989
v -0.281934 0.833727 -0.008989
v -0.298495 0.474530 -0.008988
v -0.281934 0.833727 -0.008989
v -0.269051 0.833727 -0.008989
v 0.298499 0.898497 -0.008989
v -0.298495 0.474530 -0.008988
v -0.269051 0.833727 -0.008989
v 0.298499 0.898497 -0.008989
v -0.269051 0.833727 -0.008989
v -0.259221 0.843556 -0.008989
v 0.298499 0.898497 -0.008989
v -0.259221 0.843556 -0.008989
v -0.259221 0.856439 -0.008989
v 0.298499 0.898497 -0.008989
v -0.259221 0.856439 -0.008989
v -0.269051 0.866269 -0.008989
v 0.298499 0.898497 -0.008989
v -0.269051 0.866269 -0.008989
v -0.000004 0.898498 -0.008989
vt 334.4518 134.4570
vt 318.9509 118.9562
vt 318.9509 -170.4078
vt 334.4518 -185.9086
vt 347.7694 -200.9521
vt 347.7694 149.5005
vt 343.9886 143.9899
vt 343.9886 -195.4415
vt 391.9654 -990.9780
vt 398.9941 -997.9999
vt 398.9941 -224.9720
vt 391.9654 -224.9720
vt 334.4518 -260.0609
vt 318.9509 -275.5616
vt 318.9509 -917.9607
vt 334.4518 -933.4615
vt 347.7694 -245.0174
vt 343.9886 -250.5280
vt 343.9886 -942.9944
vt 347.7694 -948.5049
vt 100.5000 134.4569
vt 100.5000 118.9562
vt 100.5000 143.9899
vt 391.9654 191.9735
vt 100.5000 191.9735
vt 100.5000 149.5005
vt 100.5000 -170.4078
vt 100.5000 -185.9088
vt 398.9941 198.9955
vt 100.5000 198.9955
vt 100.5000 -250.5280
vt 100.5000 -260.0609
vt 347.7695 -224.9720
vt 100.5000 -224.9720
vt 100.5000 -245.0174
vt 100.5000 -195.4415
vt 100.5000 -200.9520
vt 100.5000 -933.4615
vt 100.5000 -917.9607
vt 100.5000 -942.9944
vt 100.5000 -990.9780
vt 100.5000 -948.5049
vt 100.5000 -275.5616
vt 100.5000 -998.0000
vt -117.9509 -170.4078
vt -117.9509 118.9562
vt -133.4518 134.4570
vt -133.4518 -185.9086
vt -142.9885 143.9899
vt -146.7694 149.5005
vt -146.7694 -200.9521
vt -142.9885 -195.4415
vt -190.9653 191.9735
vt -197.9941 198.9955
vt -197.9941 -224.9720
vt -190.9653 -224.9720
vt -117.9509 -917.9607
vt -117.9509 -275.5616
vt -133.4518 -260.0609
vt -133.4518 -933.4615
vt -142.9885 -942.9944
vt -142.9885 -250.5280
vt -146.7694 -245.0174
vt -146.7694 -948.5049
vt -146.7694 -224.9720
vt -190.9653 -990.9780
vt -197.9941 -998.0001
vt 411.3728 -224.9720
vt 411.3728 198.9952
vt 399.0031 211.3741
vt 100.5000 211.3742
vt 100.5000 -1010.3787
vt 398.9941 -1010.3785
vt -197.9910 211.3742
vt -210.3727 -224.9720
vt -210.3727 -997.9997
vt -197.9910 -1010.3788
vt -181.4295 -933.2289
vt -188.5741 -310.5306
vt -176.5603 -316.9296
vt -176.5603 -316.9296
vt -168.5462 -933.2289
vt -181.4295 -933.2289
vt -168.5462 166.7667
vt -181.4295 166.7667
vt -197.9910 198.9952
vt -197.9910 198.9952
vt 100.5000 198.9955
vt -168.5462 166.7667
vt -168.5462 -965.7714
vt 100.5000 -998.0000
vt -197.9910 -997.9997
vt -197.9910 -997.9997
vt -181.4295 -965.7714
vt -168.5462 -965.7714
vt 398.9941 -998.0000
vt 100.5000 -998.0000
vt -168.5462 -965.7714
vt 398.9941 -998.0000
vt -168.5462 -965.7714
vt -158.7166 -955.9418
vt 398.9941 -998.0000
vt -158.7166 -955.9418
vt -158.7166 -943.0585
vt -158.7166 -943.0585
vt -168.5462 -933.2289
vt -176.5603 -316.9296
vt -158.7166 -943.0585
vt -176.5603 -316.9296
vt -163.9577 -313.0866
vt -158.7166 -943.0585
vt -163.9577 -313.0866
vt -157.5587 -301.0728
vt 398.9941 -998.0000
vt -158.7166 -943.0585
vt -157.5587 -301.0728
vt 398.9941 -998.0000
vt -157.5587 -301.0728
vt -161.4017 -288.4702
vt -192.4171 -297.9279
vt -188.5741 -310.5306
vt -181.4295 -933.2289
vt -192.4171 -297.9279
vt -181.4295 -933.2289
vt -191.2592 -943.0585
vt -191.2592 -955.9418
vt -181.4295 -965.7714
vt -197.9910 -997.9997
vt -191.2592 -943.0585
vt -191.2592 -955.9418
vt -197.9910 -997.9997
vt -192.4171 -297.9279
vt -191.2592 -943.0585
vt -197.9910 -997.9997
vt -192.4171 -297.9279
vt -197.9910 -997.9997
vt -197.9910 -224.9720
vt -186.0181 -285.9142
vt -192.4171 -297.9279
vt -197.9910 -224.9720
vt -173.4154 -282.0712
vt -186.0181 -285.9142
vt -197.9910 -224.9720
vt -161.4017 -288.4702
vt -173.4154 -282.0712
vt -197.9910 -224.9720
vt 398.9941 -998.0000
vt -161.4017 -288.4702
vt -197.9910 -224.9720
vt 398.9941 -998.0000
vt -197.9910 -224.9720
vt 398.9987 -224.9720
vt -210.3727 198.9953
vt 411.3727 -998.0000
vt 399.0031 198.9952
vt 398.9987 -224.9720
vt -197.9910 -224.9720
vt -197.9910 198.9952
vt -181.4295 166.7667
vt -191.2592 156.9371
vt -197.9910 -224.9720
vt -197.9910 198.9952
vt -191.2592 156.9371
vt -197.9910 -224.9720
vt -191.2592 156.9371
vt -191.2592 144.0538
vt -197.9910 -224.9720
vt -191.2592 144.0538
vt -181.4295 134.2242
vt -197.9910 -224.9720
vt -181.4295 134.2242
vt -168.5462 134.2242
vt 399.0031 198.9952
vt -197.9910 -224.9720
vt -168.5462 134.2242
vt 399.0031 198.9952
vt -168.5462 134.2242
vt -158.7166 144.0538
vt 399.0031 198.9952
vt -158.7166 144.0538
vt -158.7166 156.9371
vt 399.0031 198.9952
vt -158.7166 156.9371
vt -168.5462 166.7667
vt 399.0031 198.9952
vt -168.5462 166.7667
vt 100.5000 198.9955
vt 34.1630 -5.9000
vt 21.5066 -5.9000
vt 21.5066 6.9000
vt 34.1630 6.9000
vt 7.7932 -5.9000
vt 7.7932 6.9000
vt -4.8632 -5.9000
vt -4.8632 6.9000
vt 100.6161 -5.9000
vt 86.9027 -5.9000
vt 86.9027 6.9000
vt 100.6161 6.9000
vt 100.6161 -5.9000
vt 74.2463 -5.9000
vt 74.2463 6.9000
vt 60.5329 -5.9000
vt 60.5329 6.9000
vt 47.8764 -5.9000
vt 47.8764 6.9000
vt 40.9906 6.9000
vt 40.9906 -5.9000
vt 27.4687 -5.9000
vt 27.4687 6.9000
vt 54.9852 6.9000
vt 54.9852 -5.9000
vt 68.5071 6.9000
vt 68.5071 -5.9000
vt 82.5017 6.9000
vt 82.5017 -5.9000
vt 96.0235 6.9000
vt 96.0235 -5.9000
vt 110.0178 6.9000
vt 110.0178 -5.9000
vt 123.5397 6.9000
vt 123.5397 -5.9000
vt 13.4744 -5.9000
vt 13.4744 -5.9000
vt 13.4744 6.9000
vt 34.1629 6.9000
vt 34.1629 -5.9000
vt 21.5065 -5.9000
vt 21.5065 6.9000
vt 47.8764 6.9000
vt 47.8764 -5.9000
vt 60.5329 6.9000
vt 60.5329 -5.9000
vt 74.2465 6.9000
vt 74.2465 -5.9000
vt 86.9028 6.9000
vt 86.9028 -5.9000
vt 100.6161 6.9000
vt 100.6161 -5.9000
vt 113.2725 6.9000
vt 113.2725 -5.9000
vt 7.7932 -5.9000
vt 7.7932 -5.9000
vt 7.7932 6.9000
vt -181.4295 166.7667
vt -168.5462 166.7667
vt -158.7166 156.9371
vt -158.7166 156.9371
vt -158.7166 144.0538
vt -168.5462 134.2242
vt -168.5462 134.2242
vt -181.4295 134.2242
vt -191.2592 144.0538
vt -158.7166 156.9371
vt -168.5462 134.2242
vt -191.2592 144.0538
vt -181.4295 166.7667
vt -158.7166 156.9371
vt -191.2592 144.0538
vt -191.2592 156.9371
vt -181.4295 166.7667
vt -191.2592 144.0538
vt -186.0181 -285.9142
vt -173.4154 -282.0712
vt -161.4017 -288.4702
vt -161.4017 -288.4702
vt -157.5587 -301.0728
vt -163.9577 -313.0866
vt -163.9577 -313.0866
vt -176.5603 -316.9296
vt -188.5741 -310.5306
vt -161.4017 -288.4702
vt -163.9577 -313.0866
vt -188.5741 -310.5306
vt -186.0181 -285.9142
vt -161.4017 -288.4702
vt -188.5741 -310.5306
vt -192.4171 -297.9279
vt -186.0181 -285.9142
vt -188.5741 -310.5306
vt -181.4295 -933.2289
vt -168.5462 -933.2289
vt -158.7166 -943.0585
vt -158.7166 -943.0585
vt -158.7166 -955.9418
vt -168.5462 -965.7714
vt -168.5462 -965.7714
vt -181.4295 -965.7714
vt -191.2592 -955.9418
vt -158.7166 -943.0585
vt -168.5462 -965.7714
vt -191.2592 -955.9418
vt -181.4295 -933.2289
vt -158.7166 -943.0585
vt -191.2592 -955.9418
vt -191.2592 -943.0585
vt -181.4295 -933.2289
vt -191.2592 -955.9418
vn 0.2868 0.0000 0.9580
vn -0.7734 0.0000 0.6339
vn 0.6230 0.0000 0.7822
vn -0.0029 0.0000 1.0000
vn -0.0000 0.2868 0.9580
vn 0.0000 -0.0029 1.0000
vn 0.0000 0.0000 1.0000
vn 0.0000 -0.6419 0.7668
vn 0.0000 -0.2868 0.9580
vn 0.0000 0.6234 0.7819
vn 0.0000 0.0029 1.0000
vn 0.0000 0.6419 0.7668
vn 0.0000 -0.6234 0.7819
vn -0.2868 0.0000 0.9580
vn 0.7734 0.0000 0.6339
vn -0.6230 0.0000 0.7822
vn 0.0029 0.0000 1.0000
vn 1.0000 -0.0000 0.0004
vn 1.0000 -0.0000 0.0007
vn 0.0000 1.0000 0.0000
vn 0.0000 -1.0000 0.0000
vn -1.0000 0.0000 -0.0003
vn 0.0000 0.0000 -1.0000
vn -0.0750 0.0000 0.9972
vn 1.0000 -0.0000 0.0000
vn 0.7071 -0.7071 0.0000
vn -0.7071 -0.7071 0.0000
vn -1.0000 0.0000 0.0000
vn -0.7071 0.7071 0.0000
vn 0.7071 0.7071 0.0000
vn 0.9565 0.2917 0.0000
vn 0.4701 0.8826 0.0000
vn -0.2917 0.9565 0.0000
vn -0.8826 0.4701 0.0000
vn -0.9565 -0.2917 0.0000
vn -0.4701 -0.8826 0.0000
vn 0.2917 -0.9565 0.0000
vn 0.8826 -0.4701 0.0000
usemtl MAT005966V1-IKEA
s off
f 11/1/1 10/2/1 12/3/1
f 12/3/1 13/4/1 11/1/1
f 14/5/2 9/6/2 8/7/2
f 8/7/2 2/8/2 14/5/2
f 3/9/3 20/10/3 117/11/3
f 117/11/3 115/12/3 3/9/3
f 13/4/4 2/8/4 8/7/4
f 8/7/4 11/1/4 13/4/4
f 6/13/1 17/14/1 16/15/1
f 16/15/1 15/16/1 6/13/1
f 18/17/2 5/18/2 4/19/2
f 4/19/2 7/20/2 18/17/2
f 6/13/4 15/16/4 4/19/4
f 4/19/4 5/18/4 6/13/4
f 22/21/5 23/22/5 10/2/5
f 10/2/5 11/1/5 22/21/5
f 11/1/6 8/7/6 21/23/6
f 21/23/6 22/21/6 11/1/6
f 9/6/7 1/24/7 56/25/7
f 56/25/7 54/26/7 9/6/7
f 54/26/8 21/23/8 8/7/8
f 8/7/8 9/6/8 54/26/8
f 23/22/7 24/27/7 12/3/7
f 12/3/7 10/2/7 23/22/7
f 12/3/9 24/27/9 55/28/9
f 55/28/9 13/4/9 12/3/9
f 1/24/10 19/29/10 32/30/10
f 1/24/10 32/30/10 56/25/10
f 6/13/6 5/18/6 57/31/6
f 57/31/6 30/32/6 6/13/6
f 116/33/7 121/34/7 31/35/7
f 31/35/7 18/17/7 116/33/7
f 5/18/8 18/17/8 31/35/8
f 31/35/8 57/31/8 5/18/8
f 58/36/11 2/8/11 13/4/11
f 13/4/11 55/28/11 58/36/11
f 25/37/12 14/5/12 2/8/12
f 2/8/12 58/36/12 25/37/12
f 26/38/9 15/16/9 16/15/9
f 16/15/9 28/39/9 26/38/9
f 59/40/11 4/19/11 15/16/11
f 15/16/11 26/38/11 59/40/11
f 29/41/7 3/9/7 7/20/7
f 7/20/7 27/42/7 29/41/7
f 27/42/12 7/20/12 4/19/12
f 4/19/12 59/40/12 27/42/12
f 16/15/7 17/14/7 60/43/7
f 60/43/7 28/39/7 16/15/7
f 17/14/5 6/13/5 30/32/5
f 30/32/5 60/43/5 17/14/5
f 33/44/13 20/10/13 3/9/13
f 3/9/13 29/41/13 33/44/13
f 39/45/14 38/46/14 37/47/14
f 37/47/14 36/48/14 39/45/14
f 43/49/15 42/50/15 41/51/15
f 41/51/15 40/52/15 43/49/15
f 34/53/16 35/54/16 118/55/16
f 118/55/16 119/56/16 34/53/16
f 43/49/17 40/52/17 36/48/17
f 36/48/17 37/47/17 43/49/17
f 49/57/14 48/58/14 47/59/14
f 47/59/14 46/60/14 49/57/14
f 53/61/15 52/62/15 51/63/15
f 51/63/15 50/64/15 53/61/15
f 53/61/17 46/60/17 47/59/17
f 47/59/17 52/62/17 53/61/17
f 38/46/5 23/22/5 22/21/5
f 22/21/5 37/47/5 38/46/5
f 37/47/6 22/21/6 21/23/6
f 21/23/6 43/49/6 37/47/6
f 42/50/7 54/26/7 56/25/7
f 56/25/7 34/53/7 42/50/7
f 43/49/8 21/23/8 54/26/8
f 54/26/8 42/50/8 43/49/8
f 39/45/7 24/27/7 23/22/7
f 23/22/7 38/46/7 39/45/7
f 39/45/9 36/48/9 55/28/9
f 55/28/9 24/27/9 39/45/9
f 32/30/10 35/54/10 34/53/10
f 34/53/10 56/25/10 32/30/10
f 47/59/6 30/32/6 57/31/6
f 57/31/6 52/62/6 47/59/6
f 31/35/7 121/34/7 120/65/7
f 120/65/7 51/63/7 31/35/7
f 52/62/8 57/31/8 31/35/8
f 31/35/8 51/63/8 52/62/8
f 58/36/11 55/28/11 36/48/11
f 36/48/11 40/52/11 58/36/11
f 41/51/7 120/65/7 121/34/7
f 121/34/7 25/37/7 41/51/7
f 25/37/12 58/36/12 40/52/12
f 40/52/12 41/51/12 25/37/12
f 26/38/9 28/39/9 49/57/9
f 49/57/9 46/60/9 26/38/9
f 59/40/11 26/38/11 46/60/11
f 46/60/11 53/61/11 59/40/11
f 50/64/7 44/66/7 29/41/7
f 29/41/7 27/42/7 50/64/7
f 27/42/12 59/40/12 53/61/12
f 53/61/12 50/64/12 27/42/12
f 60/43/7 48/58/7 49/57/7
f 49/57/7 28/39/7 60/43/7
f 30/32/5 47/59/5 48/58/5
f 48/58/5 60/43/5 30/32/5
f 44/66/13 45/67/13 33/44/13
f 33/44/13 29/41/13 44/66/13
f 117/11/18 122/68/18 61/69/18
f 61/69/19 19/29/19 117/11/19
f 19/29/20 124/70/20 63/71/20
f 63/71/20 32/30/20 19/29/20
f 33/44/21 64/72/21 62/73/21
f 62/73/21 20/10/21 33/44/21
f 32/30/20 63/71/20 65/74/20
f 65/74/20 35/54/20 32/30/20
f 118/55/22 123/75/22 66/76/22
f 66/76/22 45/67/22 118/55/22
f 45/67/21 125/77/21 64/72/21
f 64/72/21 33/44/21 45/67/21
f 135/78/23 136/79/23 137/80/23
f 138/81/23 139/82/23 140/83/23
f 195/84/23 196/85/23 197/86/23
f 198/87/23 199/88/23 200/89/23
f 201/90/23 202/91/23 203/92/23
f 204/93/23 205/94/23 206/95/23
f 207/96/23 208/97/23 209/98/23
f 210/99/23 211/100/23 212/101/23
f 213/102/23 214/103/23 215/104/23
f 216/105/23 217/106/23 218/107/23
f 219/108/23 220/109/23 221/110/23
f 222/111/23 223/112/23 224/113/23
f 225/114/23 226/115/23 227/116/23
f 228/117/23 229/118/23 230/119/23
f 231/120/23 232/121/23 233/122/23
f 234/123/23 235/124/23 236/125/23
f 237/126/23 238/127/23 239/128/23
f 240/129/23 241/130/23 242/131/23
f 243/132/23 244/133/23 245/134/23
f 246/135/23 247/136/23 248/137/23
f 249/138/23 250/139/23 251/140/23
f 252/141/23 253/142/23 254/143/23
f 255/144/23 256/145/23 257/146/23
f 258/147/23 259/148/23 260/149/23
f 261/150/23 262/151/23 263/152/23
f 1/24/3 117/11/3 19/29/3
f 1/24/3 115/12/3 117/11/3
f 9/6/24 14/5/24 116/33/24
f 1/24/7 9/6/7 116/33/7
f 115/12/7 1/24/7 116/33/7
f 14/5/7 25/37/7 121/34/7
f 121/34/7 116/33/7 14/5/7
f 41/51/7 42/50/7 34/53/7
f 120/65/7 41/51/7 34/53/7
f 120/65/7 34/53/7 119/56/7
f 35/54/22 264/153/22 123/75/22
f 123/75/22 118/55/22 35/54/22
f 7/20/7 3/9/7 115/12/7
f 18/17/7 7/20/7 115/12/7
f 116/33/7 18/17/7 115/12/7
f 119/56/7 44/66/7 50/64/7
f 119/56/7 50/64/7 51/63/7
f 119/56/7 51/63/7 120/65/7
f 118/55/16 45/67/16 44/66/16
f 44/66/16 119/56/16 118/55/16
f 20/10/25 265/154/25 122/68/25
f 122/68/18 117/11/18 20/10/18
f 266/155/23 267/156/23 268/157/23
f 269/158/23 270/159/23 271/160/23
f 272/161/23 273/162/23 274/163/23
f 275/164/23 276/165/23 277/166/23
f 278/167/23 279/168/23 280/169/23
f 281/170/23 282/171/23 283/172/23
f 284/173/23 285/174/23 286/175/23
f 287/176/23 288/177/23 289/178/23
f 290/179/23 291/180/23 292/181/23
f 293/182/23 294/183/23 295/184/23
f 296/185/23 297/186/23 298/187/23
usemtl MAT003824V1-ICOM
f 82/188/25 68/189/25 67/190/25
f 67/190/25 81/191/25 82/188/25
f 68/189/26 70/192/26 69/193/26
f 69/193/26 67/190/26 68/189/26
f 70/192/21 72/194/21 71/195/21
f 71/195/21 69/193/21 70/192/21
f 126/196/27 74/197/27 73/198/27
f 73/198/27 127/199/27 128/200/27
f 74/197/28 76/201/28 75/202/28
f 75/202/28 73/198/28 74/197/28
f 76/201/29 78/203/29 77/204/29
f 77/204/29 75/202/29 76/201/29
f 78/203/20 80/205/20 79/206/20
f 79/206/20 77/204/20 78/203/20
f 80/205/30 82/188/30 81/191/30
f 81/191/30 79/206/30 80/205/30
f 86/207/31 85/208/31 84/209/31
f 84/209/31 83/210/31 86/207/31
f 88/211/32 87/212/32 85/208/32
f 85/208/32 86/207/32 88/211/32
f 90/213/33 89/214/33 87/212/33
f 87/212/33 88/211/33 90/213/33
f 92/215/34 91/216/34 89/214/34
f 89/214/34 90/213/34 92/215/34
f 94/217/35 93/218/35 91/216/35
f 91/216/35 92/215/35 94/217/35
f 96/219/36 95/220/36 93/218/36
f 93/218/36 94/217/36 96/219/36
f 98/221/37 97/222/37 95/220/37
f 95/220/37 96/219/37 98/221/37
f 83/210/38 84/209/38 129/223/38
f 130/224/38 131/225/38 83/210/38
f 102/226/25 101/227/25 100/228/25
f 100/228/25 99/229/25 102/226/25
f 104/230/30 103/231/30 101/227/30
f 101/227/30 102/226/30 104/230/30
f 106/232/20 105/233/20 103/231/20
f 103/231/20 104/230/20 106/232/20
f 108/234/29 107/235/29 105/233/29
f 105/233/29 106/232/29 108/234/29
f 110/236/28 109/237/28 107/235/28
f 107/235/28 108/234/28 110/236/28
f 112/238/27 111/239/27 109/237/27
f 109/237/27 110/236/27 112/238/27
f 114/240/21 113/241/21 111/239/21
f 111/239/21 112/238/21 114/240/21
f 99/229/26 100/228/26 132/242/26
f 133/243/26 134/244/26 99/229/26
f 141/245/23 142/246/23 143/247/23
f 144/248/23 145/249/23 146/250/23
f 147/251/23 148/252/23 149/253/23
f 150/254/23 151/255/23 152/256/23
f 153/257/23 154/258/23 155/259/23
f 156/260/23 157/261/23 158/262/23
f 159/263/23 160/264/23 161/265/23
f 162/266/23 163/267/23 164/268/23
f 165/269/23 166/270/23 167/271/23
f 168/272/23 169/273/23 170/274/23
f 171/275/23 172/276/23 173/277/23
f 174/278/23 175/279/23 176/280/23
f 177/281/23 178/282/23 179/283/23
f 180/284/23 181/285/23 182/286/23
f 183/287/23 184/288/23 185/289/23
f 186/290/23 187/291/23 188/292/23
f 189/293/23 190/294/23 191/295/23
f 192/296/23 193/297/23 194/298/23
