# Blender v2.78 (sub 0) OBJ File: ''
# www.blender.org
mtllib IKEA.ART.00204653.mtl
o model_model.001
v -0.177500 -0.107000 0.007000
v 0.177500 -0.107000 0.007000
v -0.177500 -0.107000 -0.007000
v 0.177500 -0.107000 -0.007000
v -0.177500 0.107000 0.007000
v 0.177500 0.107000 0.007000
v -0.177500 0.107000 -0.007000
v 0.177500 0.107000 -0.007000
v 0.177500 -0.107000 -0.007000
v 0.177500 0.107000 -0.007000
v 0.177500 0.107000 -0.007000
v 0.177500 -0.107000 -0.007000
v -0.177500 -0.107000 -0.007000
v -0.177500 0.107000 -0.007000
v -0.177500 0.107000 -0.007000
v 0.177500 0.107000 -0.007000
v 0.177500 -0.107000 -0.007000
v -0.177500 -0.107000 -0.007000
v -0.177500 0.107000 -0.007000
v -0.177500 -0.107000 -0.007000
vt -339.7270 -508.7232
vt -325.7270 -509.8433
vt -325.7270 -154.8433
vt -339.7270 -153.7232
vt -553.7270 -508.7232
vt -553.7269 -153.7232
vt -567.7271 -154.8433
vt -567.7269 -509.8434
vt -339.7270 -138.6031
vt -553.7269 -138.6031
vt -553.7269 -138.6031
vt -292.4549 -477.1844
vt -292.4550 -122.1843
vt -506.4550 -122.1844
vt -506.4550 -122.1844
vt -506.4548 -477.1844
vt -292.4549 -477.1844
vt -339.7270 -521.6031
vt -553.7269 -521.6031
vt -339.7270 -521.6031
vn -0.0000 -1.0000 0.0000
vn 0.0000 1.0000 0.0000
vn -0.0000 0.0000 1.0000
vn 1.0000 0.0000 0.0000
vn -0.0000 0.0000 -1.0000
vn -1.0000 0.0000 0.0000
usemtl MAT003015V1-Appl
s off
f 1/1/1 3/2/1 4/3/1
f 1/1/1 4/3/1 2/4/1
f 5/5/2 6/6/2 8/7/2
f 8/7/2 7/8/2 5/5/2
f 1/1/3 2/4/3 6/6/3
f 1/1/3 6/6/3 5/5/3
f 2/4/4 9/9/4 10/10/4
f 11/11/4 6/6/4 2/4/4
f 12/12/5 13/13/5 14/14/5
f 15/15/5 16/16/5 17/17/5
f 18/18/6 1/1/6 5/5/6
f 5/5/6 19/19/6 20/20/6
