# Blender v2.78 (sub 0) OBJ File: ''
# www.blender.org
mtllib IKEA.ART.30245218.mtl
o model_model.011
v -1.004594 -0.005503 -0.198009
v -0.979594 -0.005503 -0.198009
v -0.979594 0.004497 -0.200009
v -0.979594 0.004497 -0.198009
v -1.004594 0.004497 -0.200009
v -1.004594 -0.005503 -0.200009
v -0.979594 -0.005503 -0.200009
v -1.004594 0.004497 -0.198009
v -1.004594 0.004497 0.200009
v -1.004594 -0.005503 0.200009
v -1.004594 -0.005503 0.198009
v -0.979594 -0.005503 0.198009
v -0.979594 0.004497 0.198009
v -0.979594 0.004497 0.200009
v -1.004594 0.004497 0.198009
v -0.979594 -0.005503 0.200009
v -0.988379 -0.004103 0.198001
v -0.988379 -0.002903 0.198001
v -0.988379 -0.002903 -0.188499
v -0.988379 -0.004103 -0.188499
v -0.996379 -0.004103 0.198001
v -0.996379 -0.002903 -0.188499
v -0.996379 -0.004103 -0.188499
v -0.996379 -0.002903 0.198001
v -0.995406 -0.002273 -0.194580
v -0.995406 -0.003720 -0.194583
v -0.995406 -0.003720 -0.197743
v -0.995406 -0.002273 -0.197745
v 1.004594 -0.002273 -0.194580
v 1.004594 -0.003720 -0.194583
v 1.004594 -0.003720 -0.197743
v 1.004594 -0.002273 -0.197745
v -1.003981 -0.005507 -0.198011
v -0.979982 -0.005507 -0.198011
v -1.003981 -0.005507 0.198001
v -0.979982 -0.005507 0.198001
v -1.002029 -0.004114 -0.198011
v -0.981933 -0.004114 -0.198011
v -1.002029 -0.004114 0.198001
v -0.981933 -0.004114 0.198001
v -1.003981 0.005507 -0.198011
v -0.979982 0.005507 -0.198011
v -1.003981 0.005507 0.198001
v -0.979982 0.005507 0.198001
v -1.002029 0.004114 -0.198011
v -0.981933 0.004114 -0.198011
v -1.002029 0.004114 0.198001
v -0.981933 0.004114 0.198001
v -1.004594 -0.005503 -0.198009
v -1.004594 -0.005503 -0.200009
v -1.004594 -0.005503 -0.198009
v -0.979594 -0.005503 -0.198009
v -0.979594 -0.005503 -0.200009
v -0.979594 -0.005503 -0.200009
v -1.004594 -0.005503 -0.200009
v -1.004594 0.004497 -0.200009
v -0.979594 0.004497 -0.200009
v -0.979594 0.004497 -0.200009
v -0.979594 -0.005503 -0.200009
v -1.004594 -0.005503 -0.200009
v -0.979594 0.004497 -0.198009
v -1.004594 0.004497 -0.198009
v -1.004594 -0.005503 -0.198009
v -1.004594 -0.005503 -0.198009
v -0.979594 -0.005503 -0.198009
v -0.979594 0.004497 -0.198009
v -1.004594 -0.005503 0.198009
v -1.004594 -0.005503 0.200009
v -1.004594 -0.005503 0.198009
v -0.979594 -0.005503 0.200009
v -0.979594 -0.005503 0.200009
v -0.979594 -0.005503 0.198009
v -1.004594 -0.005503 0.200009
v -0.979594 -0.005503 0.200009
v -0.979594 0.004497 0.200009
v -0.979594 0.004497 0.200009
v -1.004594 0.004497 0.200009
v -1.004594 -0.005503 0.200009
v -0.988379 -0.002903 -0.188499
v -0.988379 -0.002903 0.198001
v -0.988379 -0.004103 0.198001
v -0.988379 -0.004103 0.198001
v -0.988379 -0.004103 -0.188499
v -0.988379 -0.002903 -0.188499
v -0.988379 -0.004103 -0.188499
v -0.988379 -0.004103 0.198001
v -0.996379 -0.004103 0.198001
v -0.996379 -0.004103 0.198001
v -0.996379 -0.004103 -0.188499
v -0.988379 -0.004103 -0.188499
v -0.996379 -0.004103 -0.188499
v -0.996379 -0.004103 0.198001
v -0.996379 -0.002903 0.198001
v -0.996379 -0.002903 0.198001
v -0.996379 -0.002903 -0.188499
v -0.996379 -0.004103 -0.188499
v 1.004594 -0.002273 -0.194580
v 1.004594 -0.002273 -0.194580
v -0.995406 -0.002273 -0.194580
v 1.004594 -0.003720 -0.194583
v 1.004594 -0.003720 -0.194583
v -0.995406 -0.003720 -0.194583
v -0.995406 -0.002273 -0.197745
v 1.004594 -0.002273 -0.197745
v 1.004594 -0.003720 -0.197743
v 1.004594 -0.003720 -0.197743
v -0.995406 -0.003720 -0.197743
v -0.995406 -0.002273 -0.197745
v -0.995406 -0.002273 -0.194580
v -0.995406 -0.002273 -0.197745
v -0.995406 -0.003720 -0.197743
v -0.995406 -0.003720 -0.197743
v -0.995406 -0.003720 -0.194583
v -0.995406 -0.002273 -0.194580
v -0.996379 -0.002903 -0.188499
v -0.996379 -0.002903 0.198001
v -0.988379 -0.002903 0.198001
v -0.988379 -0.002903 0.198001
v -0.988379 -0.002903 -0.188499
v -0.996379 -0.002903 -0.188499
v -0.979594 0.004497 -0.200009
v -1.004594 0.004497 -0.200009
v -1.004594 0.004497 -0.198009
v -1.004594 0.004497 -0.198009
v -0.979594 0.004497 -0.198009
v -0.979594 0.004497 -0.200009
v -1.004594 0.004497 0.198009
v -1.004594 0.004497 0.200009
v -0.979594 0.004497 0.200009
v -0.979594 0.004497 0.200009
v -0.979594 0.004497 0.198009
v -1.004594 0.004497 0.198009
v -1.004594 0.004497 0.198009
v -0.979594 0.004497 0.198009
v -0.979594 -0.005503 0.198009
v -0.979594 -0.005503 0.198009
v -1.004594 -0.005503 0.198009
v -1.004594 0.004497 0.198009
v -1.002029 -0.004114 -0.198011
v -0.981933 -0.004114 -0.198011
v -0.979982 -0.005507 -0.198011
v -0.979982 -0.005507 -0.198011
v -1.003981 -0.005507 -0.198011
v -1.002029 -0.004114 -0.198011
v -0.981933 -0.004114 0.198001
v -1.002029 -0.004114 0.198001
v -1.003981 -0.005507 0.198001
v -1.003981 -0.005507 0.198001
v -0.979982 -0.005507 0.198001
v -0.981933 -0.004114 0.198001
v -0.979982 0.005507 -0.198011
v -0.979982 0.005507 0.198001
v -0.979982 -0.005507 0.198001
v -0.979982 -0.005507 0.198001
v -0.979982 -0.005507 -0.198011
v -0.979982 0.005507 -0.198011
v -1.003981 -0.005507 -0.198011
v -1.003981 -0.005507 0.198001
v -1.003981 0.005507 0.198001
v -1.003981 0.005507 0.198001
v -1.003981 0.005507 -0.198011
v -1.003981 -0.005507 -0.198011
v -0.981933 0.004114 -0.198011
v -0.981933 -0.004114 -0.198011
v -0.981933 -0.004114 0.198001
v -0.981933 -0.004114 0.198001
v -0.981933 0.004114 0.198001
v -0.981933 0.004114 -0.198011
v -1.002029 0.004114 0.198001
v -1.002029 -0.004114 0.198001
v -1.002029 -0.004114 -0.198011
v -1.002029 -0.004114 -0.198011
v -1.002029 0.004114 -0.198011
v -1.002029 0.004114 0.198001
v -1.002029 0.004114 -0.198011
v -1.003981 0.005507 -0.198011
v -0.979982 0.005507 -0.198011
v -0.979982 0.005507 -0.198011
v -0.981933 0.004114 -0.198011
v -1.002029 0.004114 -0.198011
v -0.981933 0.004114 0.198001
v -0.979982 0.005507 0.198001
v -1.003981 0.005507 0.198001
v -1.003981 0.005507 0.198001
v -1.002029 0.004114 0.198001
v -0.981933 0.004114 0.198001
v -0.979982 -0.005507 -0.198011
v -0.981933 -0.004114 -0.198011
v -0.981933 0.004114 -0.198011
v -0.981933 0.004114 -0.198011
v -0.979982 0.005507 -0.198011
v -0.979982 -0.005507 -0.198011
v -0.979982 0.005507 0.198001
v -0.981933 0.004114 0.198001
v -0.981933 -0.004114 0.198001
v -0.981933 -0.004114 0.198001
v -0.979982 -0.005507 0.198001
v -0.979982 0.005507 0.198001
v -1.003981 0.005507 -0.198011
v -1.002029 0.004114 -0.198011
v -1.002029 -0.004114 -0.198011
v -1.002029 -0.004114 -0.198011
v -1.003981 -0.005507 -0.198011
v -1.003981 0.005507 -0.198011
v -1.003981 -0.005507 0.198001
v -1.002029 -0.004114 0.198001
v -1.002029 0.004114 0.198001
v -1.002029 0.004114 0.198001
v -1.003981 0.005507 0.198001
v -1.003981 -0.005507 0.198001
vt -3.2157 -3.6066
vt -3.2157 -2.4066
vt 4.7843 -2.4066
vt 4.7843 -3.6066
vt 4.2156 -2.4066
vt 4.2156 -3.6066
vt -3.7844 -3.6066
vt -3.7844 -2.4066
vt 4.3374 -189.0766
vt 4.3374 197.4234
vt 5.5374 197.4234
vt 5.5374 197.4234
vt 5.5374 -189.0766
vt 4.3374 -189.0766
vt -3.2156 -187.9993
vt -3.2157 198.5008
vt 4.7843 198.5008
vt 4.7843 198.5008
vt 4.7844 -187.9993
vt -3.2156 -187.9993
vt 5.5374 187.9219
vt 5.5374 -198.5781
vt 4.3374 -198.5781
vt 4.3374 -198.5781
vt 4.3374 187.9219
vt 5.5374 187.9219
vt -3.5000 -192.7500
vt -3.5000 193.7500
vt 4.5000 193.7500
vt 4.5000 193.7500
vt 4.5000 -192.7500
vt -3.5000 -192.7500
vt 12.4997 198.5063
vt -11.4997 198.5063
vt -11.4997 -197.5063
vt 12.4997 -197.5063
vt 10.5481 -197.5063
vt 10.5481 198.5063
vt -9.5480 198.5063
vt -9.5480 -197.5063
vt 10.5481 -3.6136
vt -9.5480 -3.6136
vt -11.4997 -5.0066
vt -11.4997 -5.0066
vt 12.4997 -5.0066
vt 10.5481 -3.6136
vt 10.5480 -3.6136
vt -9.5481 -3.6136
vt -11.4997 -5.0066
vt -11.4997 -5.0066
vt 12.4997 -5.0066
vt 10.5480 -3.6136
vt 6.0066 -197.5063
vt 6.0066 198.5063
vt -5.0066 198.5063
vt -5.0066 198.5063
vt -5.0066 -197.5063
vt 6.0066 -197.5063
vt 6.0066 -197.5063
vt 6.0066 198.5063
vt -5.0066 198.5063
vt -5.0066 198.5063
vt -5.0066 -197.5063
vt 6.0066 -197.5063
vt -3.6136 -197.5063
vt 4.6136 -197.5063
vt 4.6136 198.5063
vt 4.6136 198.5063
vt -3.6136 198.5063
vt -3.6136 -197.5063
vt 4.6136 198.5063
vt -3.6136 198.5063
vt -3.6136 -197.5063
vt -3.6136 -197.5063
vt 4.6136 -197.5063
vt 4.6136 198.5063
vt 10.5480 4.6136
vt 12.4997 6.0066
vt -11.4997 6.0066
vt -11.4997 6.0066
vt -9.5481 4.6136
vt 10.5480 4.6136
vt -11.4997 -5.0066
vt -9.5480 -3.6136
vt -9.5480 4.6136
vt -9.5480 4.6136
vt -11.4997 6.0066
vt -11.4997 -5.0066
vt 12.4997 6.0066
vt 10.5480 4.6136
vt 10.5480 -3.6136
vt 10.5480 -3.6136
vt 12.4997 -5.0066
vt 12.4997 6.0066
vt 12.4997 6.0066
vt 10.5481 4.6136
vt 10.5481 -3.6136
vt 10.5481 -3.6136
vt 12.4997 -5.0066
vt 12.4997 6.0066
vt -11.4997 -5.0066
vt -9.5481 -3.6136
vt -9.5481 4.6136
vt -9.5481 4.6136
vt -11.4997 6.0066
vt -11.4997 -5.0066
vt -11.4997 198.5063
vt -11.4997 -197.5063
vt 12.4997 -197.5063
vt 12.4997 198.5063
vt -9.5481 -197.5063
vt 10.5480 -197.5063
vt 10.5480 198.5063
vt -9.5481 198.5063
vt 10.5481 4.6136
vt 12.4997 6.0066
vt -11.4997 6.0066
vt -11.4997 6.0066
vt -9.5480 4.6136
vt 10.5481 4.6136
vt -999.5001 2.0824
vt 1000.5001 2.0819
vt 1000.5001 -1.0824
vt -999.5000 -1.0819
vt 1000.5001 -0.2238
vt -999.5001 -0.2238
vt -999.5001 1.2238
vt -999.5001 1.2238
vt 1000.5001 1.2238
vt 1000.5001 -1.0806
vt -999.5001 -1.0811
vt -999.5001 2.0794
vt -999.5001 2.0794
vt 1000.5001 2.0798
vt -999.5000 1.2232
vt 1000.5001 1.2232
vt 1000.5001 -0.2238
vt 1000.5001 -0.2238
vt -999.5001 -0.2238
vt -999.5000 1.2232
vt -1.0824 1.2238
vt 2.0819 1.2232
vt 2.0806 -0.2238
vt 2.0806 -0.2238
vt -1.0798 -0.2238
vt -1.0824 1.2238
vt -0.5000 -4.5000
vt -0.5000 5.5000
vt 1.5000 5.5000
vt 1.5000 -4.5000
vt 13.0000 1.5000
vt 13.0000 -0.5000
vt -12.0000 -0.5000
vt -12.0000 1.5000
vt 13.0000 1.5000
vt 1.5000 5.5000
vt 1.5000 -4.5000
vt -0.5000 -4.5000
vt -0.5000 -4.5000
vt -0.5000 5.5000
vt -12.0000 -4.5000
vt -12.0000 5.5000
vt 13.0000 5.5000
vt 13.0000 5.5000
vt 13.0000 -4.5000
vt -12.0000 -4.5000
vt -12.0000 5.5000
vt 13.0000 5.5000
vt 13.0000 -4.5000
vt 13.0000 -4.5000
vt -12.0000 -4.5000
vt -12.0000 5.5000
vt 1.5000 -4.5000
vt -0.5000 -4.5000
vt -0.5000 5.5000
vt 1.5000 5.5000
vt 13.0000 -0.5000
vt -12.0000 -0.5000
vt -12.0000 1.5000
vt 13.0000 1.5000
vt 13.0000 -0.5000
vt -0.5000 5.5000
vt 1.5000 5.5000
vt 1.5000 -4.5000
vt 1.5000 -4.5000
vt -0.5000 -4.5000
vt 13.0000 -4.5000
vt -12.0000 -4.5000
vt -12.0000 5.5000
vt -12.0000 5.5000
vt 13.0000 5.5000
vt 13.0000 -4.5000
vt 13.0000 -0.5000
vt -12.0000 -0.5000
vt -12.0000 1.5000
vt -12.0000 1.5000
vt 13.0000 1.5000
vt 13.0000 -0.5000
vt -12.0000 -0.5000
vt -12.0000 1.5000
vt 13.0000 1.5000
vt 13.0000 1.5000
vt 13.0000 -0.5000
vt -12.0000 -0.5000
vt -12.0000 5.5000
vt 13.0000 5.5000
vt 13.0000 -4.5000
vt 13.0000 -4.5000
vt -12.0000 -4.5000
vt -12.0000 5.5000
vn 0.0000 0.0000 1.0000
vn 0.0000 0.0000 -1.0000
vn 1.0000 0.0000 0.0000
vn 0.0000 -1.0000 -0.0000
vn -1.0000 0.0000 0.0000
vn 0.0000 1.0000 0.0000
vn -0.0000 1.0000 -0.0002
vn -0.0000 -0.0018 1.0000
vn 0.0000 -0.0009 -1.0000
usemtl MAT003071V1-Ikea
s off
f 17/1/1 18/2/1 24/3/1
f 24/3/1 21/4/1 17/1/1
f 19/5/2 20/6/2 23/7/2
f 23/7/2 22/8/2 19/5/2
f 79/9/3 80/10/3 81/11/3
f 82/12/3 83/13/3 84/14/3
f 85/15/4 86/16/4 87/17/4
f 88/18/4 89/19/4 90/20/4
f 91/21/5 92/22/5 93/23/5
f 94/24/5 95/25/5 96/26/5
f 115/27/6 116/28/6 117/29/6
f 118/30/6 119/31/6 120/32/6
f 36/33/4 35/34/4 33/35/4
f 33/35/4 34/36/4 36/33/4
f 37/37/6 39/38/6 40/39/6
f 40/39/6 38/40/6 37/37/6
f 139/41/2 140/42/2 141/43/2
f 142/44/2 143/45/2 144/46/2
f 145/47/1 146/48/1 147/49/1
f 148/50/1 149/51/1 150/52/1
f 151/53/3 152/54/3 153/55/3
f 154/56/3 155/57/3 156/58/3
f 157/59/5 158/60/5 159/61/5
f 160/62/5 161/63/5 162/64/5
f 163/65/5 164/66/5 165/67/5
f 166/68/5 167/69/5 168/70/5
f 169/71/3 170/72/3 171/73/3
f 172/74/3 173/75/3 174/76/3
f 181/77/1 182/78/1 183/79/1
f 184/80/1 185/81/1 186/82/1
f 187/83/2 188/84/2 189/85/2
f 190/86/2 191/87/2 192/88/2
f 193/89/1 194/90/1 195/91/1
f 196/92/1 197/93/1 198/94/1
f 199/95/2 200/96/2 201/97/2
f 202/98/2 203/99/2 204/100/2
f 205/101/1 206/102/1 207/103/1
f 208/104/1 209/105/1 210/106/1
usemtl MAT003206V1-ICOM
f 44/107/6 42/108/6 41/109/6
f 41/109/6 43/110/6 44/107/6
f 45/111/4 46/112/4 48/113/4
f 48/113/4 47/114/4 45/111/4
f 175/115/2 176/116/2 177/117/2
f 178/118/2 179/119/2 180/120/2
usemtl MAT001132V1-IKEA
f 25/121/7 29/122/7 32/123/7
f 32/123/7 28/124/7 25/121/7
f 26/125/8 30/126/8 97/127/8
f 98/128/8 99/129/8 26/125/8
f 27/130/4 31/131/4 100/132/4
f 101/133/4 102/134/4 27/130/4
f 103/135/9 104/136/9 105/137/9
f 106/138/9 107/139/9 108/140/9
f 109/141/5 110/142/5 111/143/5
f 112/144/5 113/145/5 114/146/5
usemtl MAT001137V1-IKEA
f 1/147/5 8/148/5 5/149/5
f 1/147/5 5/149/5 6/150/5
f 49/151/4 50/152/4 7/153/4
f 7/153/4 2/154/4 51/155/4
f 4/156/3 52/157/3 53/158/3
f 54/159/3 3/160/3 4/156/3
f 55/161/2 56/162/2 57/163/2
f 58/164/2 59/165/2 60/166/2
f 61/167/1 62/168/1 63/169/1
f 64/170/1 65/171/1 66/172/1
f 11/173/5 10/174/5 9/175/5
f 9/175/5 15/176/5 11/173/5
f 67/177/4 12/178/4 16/179/4
f 16/179/4 68/180/4 69/181/4
f 13/182/3 14/183/3 70/184/3
f 71/185/3 72/186/3 13/182/3
f 73/187/1 74/188/1 75/189/1
f 76/190/1 77/191/1 78/192/1
f 121/193/6 122/194/6 123/195/6
f 124/196/6 125/197/6 126/198/6
f 127/199/6 128/200/6 129/201/6
f 130/202/6 131/203/6 132/204/6
f 133/205/2 134/206/2 135/207/2
f 136/208/2 137/209/2 138/210/2
