# Blender v2.78 (sub 0) OBJ File: ''
# www.blender.org
mtllib IKEA.ART.10205435.mtl
o model_model.038
v 0.198500 -0.098500 0.008000
v -0.198500 -0.098500 0.008000
v 0.198500 0.098500 0.008000
v -0.198500 0.098500 0.008000
v 0.198500 -0.098500 -0.008000
v -0.198500 -0.098500 -0.008000
v 0.198500 0.098500 -0.008000
v -0.198500 0.098500 -0.008000
v -0.198500 0.098500 -0.008000
v -0.198500 -0.098500 -0.008000
v -0.198500 -0.098500 0.008000
v -0.198500 0.098500 0.008000
v -0.198500 -0.098500 -0.008000
v 0.198500 -0.098500 -0.008000
v -0.198500 0.098500 -0.008000
v 0.198500 0.098500 -0.008000
v -0.198500 -0.098500 0.008000
v 0.198500 -0.098500 0.008000
v -0.198500 0.098500 0.008000
v 0.198500 0.098500 0.008000
v 0.198500 -0.098500 -0.008000
v 0.198500 0.098500 -0.008000
v 0.198500 -0.098500 0.008000
v 0.198500 0.098500 0.008000
vt 394.3366 -0.5410
vt 394.3366 196.4590
vt -2.6734 196.4590
vt -2.6734 -0.5410
vt 404.7910 -1.0216
vt 801.8010 -1.0216
vt 801.8010 195.9784
vt 404.7910 195.9784
vt 821.6547 -0.2217
vt 837.6548 -0.2217
vt 837.6545 396.7784
vt 821.6547 396.7784
vt 975.0330 -0.8042
vt 975.0330 196.1958
vt 959.0328 196.1958
vt 959.0330 -0.8042
vt 868.6333 396.8070
vt 868.6333 -0.0084
vt 884.3511 -0.0083
vt 884.3511 396.8070
vt 913.1722 196.1958
vt 913.1724 -0.8042
vt 929.1724 -0.8042
vt 929.1724 196.1958
vn 0.0000 0.0000 1.0000
vn -0.0000 -0.0000 -1.0000
vn 0.0000 -1.0000 0.0000
vn 1.0000 0.0000 0.0000
vn 0.0000 1.0000 0.0000
vn -1.0000 0.0000 0.0000
usemtl MAT003015V1-Appl
s off
f 1/1/1 3/2/1 4/3/1
f 1/1/1 4/3/1 2/4/1
f 5/5/2 6/6/2 8/7/2
f 8/7/2 7/8/2 5/5/2
f 14/9/3 18/10/3 17/11/3
f 17/11/3 13/12/3 14/9/3
f 21/13/4 22/14/4 24/15/4
f 24/15/4 23/16/4 21/13/4
f 16/17/5 15/18/5 19/19/5
f 19/19/5 20/20/5 16/17/5
f 9/21/6 10/22/6 11/23/6
f 11/23/6 12/24/6 9/21/6
