# Blender v2.78 (sub 0) OBJ File: ''
# www.blender.org
mtllib IKEA.ART.60205428.mtl
o model_model.028
v 0.298500 -0.098500 0.008000
v 0.298500 0.098500 0.008000
v -0.298500 0.098500 0.008000
v -0.298500 -0.098500 0.008000
v 0.298500 -0.098500 -0.008000
v -0.298500 -0.098500 -0.008000
v -0.298500 0.098500 -0.008000
v 0.298500 0.098500 -0.008000
v 0.298500 -0.098500 -0.008000
v 0.298500 -0.098500 0.008000
v -0.298500 -0.098500 0.008000
v -0.298500 -0.098500 -0.008000
v 0.298500 -0.098500 -0.008000
v 0.298500 0.098500 -0.008000
v 0.298500 0.098500 0.008000
v 0.298500 -0.098500 0.008000
v 0.298500 0.098500 -0.008000
v -0.298500 0.098500 -0.008000
v -0.298500 0.098500 0.008000
v 0.298500 0.098500 0.008000
v -0.298500 0.098500 -0.008000
v -0.298500 -0.098500 -0.008000
v -0.298500 -0.098500 0.008000
v -0.298500 0.098500 0.008000
vt 0.0000 0.0000
vt 0.3042 0.0000
vt 0.3042 1.0000
vt 0.0000 1.0000
vt 0.6083 0.0000
vt 0.6083 1.0000
vt 0.3042 1.0000
vt 0.3042 0.0000
vt 0.6330 0.0000
vt 0.6577 0.0000
vt 0.6577 1.0000
vt 0.6330 1.0000
vt 0.6824 0.3300
vt 0.6824 0.6600
vt 0.6577 0.6600
vt 0.6577 0.3300
vt 0.6330 0.0000
vt 0.6330 1.0000
vt 0.6083 1.0000
vt 0.6083 0.0000
vt 0.6824 0.0000
vt 0.6824 0.3300
vt 0.6577 0.3300
vt 0.6577 0.0000
vn 0.0000 -0.0000 1.0000
vn 0.0000 0.0000 -1.0000
vn 0.0000 -1.0000 0.0000
vn 1.0000 -0.0000 0.0000
vn 0.0000 1.0000 0.0000
vn -1.0000 0.0000 0.0000
usemtl Material.002
s 1
f 1/1/1 2/2/1 3/3/1
f 1/1/1 3/3/1 4/4/1
f 5/5/2 6/6/2 7/7/2
f 7/7/2 8/8/2 5/5/2
f 9/9/3 10/10/3 11/11/3
f 11/11/3 12/12/3 9/9/3
f 13/13/4 14/14/4 15/15/4
f 15/15/4 16/16/4 13/13/4
f 17/17/5 18/18/5 19/19/5
f 19/19/5 20/20/5 17/17/5
f 21/21/6 22/22/6 23/23/6
f 23/23/6 24/24/6 21/21/6
