# Blender v2.78 (sub 0) OBJ File: ''
# www.blender.org
mtllib IKEA.ART.80221050.mtl
o model_model.004
v -0.000001 0.140376 0.004373
v -0.000001 0.130487 0.004373
v 0.230727 0.130487 0.004373
v 0.240495 0.140376 0.004373
v -0.000001 0.145792 0.008999
v 0.244816 0.145792 0.008999
v -0.000001 0.115181 0.008999
v 0.215153 0.115181 0.008999
v -0.000001 0.198500 0.008998
v 0.244816 0.198500 0.008998
v 0.215155 -0.115169 0.008999
v 0.230865 -0.130585 0.004373
v -0.000001 -0.130585 0.004373
v -0.000001 -0.140410 0.004373
v 0.240495 -0.140410 0.004373
v -0.000001 -0.115169 0.008999
v -0.000001 -0.145789 0.008999
v 0.244816 -0.145789 0.008999
v 0.298500 -0.198500 0.009000
v 0.298500 -0.145789 0.009000
v 0.244816 -0.198500 0.009000
v -0.000001 -0.198500 0.009000
v 0.298500 0.198500 0.008998
v 0.298500 0.145792 0.008998
v 0.244816 -0.198500 -0.009000
v 0.244816 -0.145789 -0.009000
v 0.298500 -0.145789 -0.009000
v 0.298500 -0.198500 -0.009000
v -0.000001 -0.198500 -0.009000
v -0.000001 -0.145789 -0.009000
v 0.298500 0.198500 -0.009000
v 0.298500 0.145792 -0.009000
v 0.244816 0.145792 -0.009000
v 0.244816 0.198500 -0.009000
v 0.244816 0.198500 -0.009000
v 0.244816 0.198500 0.008998
v 0.298500 0.198500 0.008998
v 0.298500 0.198500 0.008998
v 0.298500 0.198500 -0.009000
v 0.244816 0.198500 -0.009000
v -0.000001 0.198500 -0.009000
v -0.000001 0.198500 0.008998
v 0.244816 0.198500 0.008998
v 0.244816 0.198500 0.008998
v 0.244816 0.198500 -0.009000
v 0.298500 -0.198500 -0.009000
v 0.298500 -0.198500 0.009000
v 0.244816 -0.198500 0.009000
v 0.244816 -0.198500 0.009000
v 0.244816 -0.198500 -0.009000
v 0.298500 -0.198500 -0.009000
v 0.298500 -0.198500 -0.009000
v 0.298500 -0.145789 -0.009000
v 0.298500 -0.145789 0.009000
v 0.298500 -0.145789 0.009000
v 0.298500 -0.198500 0.009000
v 0.298500 -0.198500 -0.009000
v 0.298500 0.198500 -0.009000
v 0.298500 0.198500 0.008998
v 0.298500 0.145792 0.008998
v 0.298500 0.145792 0.008998
v 0.298500 0.145792 -0.009000
v 0.298500 0.198500 -0.009000
v 0.298500 0.145792 -0.009000
v 0.298500 0.145792 0.008998
v 0.298500 -0.145789 0.009000
v 0.298500 -0.145789 0.009000
v 0.298500 -0.145789 -0.009000
v 0.298500 0.145792 -0.009000
v -0.000001 0.145792 -0.009000
v -0.000001 0.198500 -0.009000
v 0.244816 -0.198500 -0.009000
v 0.244816 -0.198500 0.009000
v -0.000001 -0.198500 0.009000
v -0.000001 -0.198500 0.009000
v -0.000001 -0.198500 -0.009000
v 0.244816 -0.198500 -0.009000
v -0.230729 0.130487 0.004373
v -0.240498 0.140376 0.004373
v -0.244818 0.145792 0.008999
v -0.215155 0.115181 0.008999
v -0.244818 0.198500 0.008998
v -0.215158 -0.115169 0.008999
v -0.230867 -0.130585 0.004373
v -0.240498 -0.140410 0.004373
v -0.244818 -0.145789 0.008999
v -0.298500 -0.198500 0.009000
v -0.244818 -0.198500 0.009000
v -0.298500 -0.145789 0.009000
v -0.298500 0.198500 0.008998
v -0.298500 0.145792 0.008998
v -0.244818 -0.198500 -0.009000
v -0.298500 -0.198500 -0.009000
v -0.298500 -0.145789 -0.009000
v -0.244818 -0.145789 -0.009000
v -0.298500 0.198500 -0.009000
v -0.244818 0.198500 -0.009000
v -0.244818 0.145792 -0.009000
v -0.298500 0.145792 -0.009000
v -0.244818 0.198500 -0.009000
v -0.298500 0.198500 -0.009000
v -0.298500 0.198500 0.008998
v -0.298500 0.198500 0.008998
v -0.244818 0.198500 0.008998
v -0.244818 0.198500 -0.009000
v -0.244818 0.198500 0.008998
v -0.000001 0.198500 0.008998
v -0.244818 0.198500 -0.009000
v -0.244818 0.198500 0.008998
v -0.298500 -0.198500 -0.009000
v -0.244818 -0.198500 -0.009000
v -0.244818 -0.198500 0.009000
v -0.244818 -0.198500 0.009000
v -0.298500 -0.198500 0.009000
v -0.298500 -0.198500 -0.009000
v -0.298500 -0.198500 -0.009000
v -0.298500 -0.198500 0.009000
v -0.298500 -0.145789 0.009000
v -0.298500 -0.145789 0.009000
v -0.298500 -0.145789 -0.009000
v -0.298500 -0.198500 -0.009000
v -0.298500 0.198500 -0.009000
v -0.298500 0.145792 -0.009000
v -0.298500 0.145792 0.008998
v -0.298500 0.145792 0.008998
v -0.298500 0.198500 0.008998
v -0.298500 0.198500 -0.009000
v -0.298500 0.145792 -0.009000
v -0.298500 -0.145789 -0.009000
v -0.298500 -0.145789 0.009000
v -0.298500 -0.145789 0.009000
v -0.298500 0.145792 0.008998
v -0.298500 0.145792 -0.009000
v -0.000001 0.198500 -0.009000
v -0.000001 0.198500 -0.009000
v -0.244818 -0.198500 0.009000
v -0.244818 -0.198500 -0.009000
v -0.000001 -0.198500 -0.009000
v -0.000001 -0.198500 -0.009000
v -0.000001 -0.198500 0.009000
v -0.244818 -0.198500 0.009000
vt 0.3663 0.3546
vt 0.3743 0.3546
vt 0.3743 0.6287
vt 0.3663 0.6403
vt 0.3619 0.3546
vt 0.3619 0.6454
vt 0.3866 0.3546
vt 0.3866 0.6102
vt 0.3195 0.3546
vt 0.3195 0.6454
vt 0.5720 0.6102
vt 0.5844 0.6288
vt 0.5844 0.3546
vt 0.5923 0.3546
vt 0.5923 0.6403
vt 0.5720 0.3546
vt 0.5966 0.3546
vt 0.5966 0.6454
vt 0.6390 0.7092
vt 0.5966 0.7092
vt 0.6390 0.6454
vt 0.6390 0.3546
vt 0.3195 0.7092
vt 0.3619 0.7092
vt 0.6717 0.0064
vt 0.6755 0.0000
vt 0.6755 0.3464
vt 0.6717 0.3399
vt 0.3195 0.0638
vt 0.2771 0.0638
vt 0.2771 0.0000
vt 0.3195 0.0000
vt 0.3195 0.3546
vt 0.2771 0.3546
vt 0.0000 0.0000
vt 0.0424 0.0000
vt 0.0424 0.0638
vt 0.0000 0.0638
vt 0.1434 0.7730
vt 0.1289 0.7730
vt 0.1289 0.7092
vt 0.1571 0.7764
vt 0.1434 0.7696
vt 0.1571 0.7092
vt 0.0435 0.7092
vt 0.0579 0.7092
vt 0.0579 1.0000
vt 0.0290 1.0000
vt 0.0145 1.0000
vt 0.0145 0.7092
vt 0.1014 0.7730
vt 0.0869 0.7730
vt 0.0869 0.7092
vt 0.0869 0.7730
vt 0.0724 0.7730
vt 0.0724 0.7092
vt 0.2280 0.7092
vt 0.2280 0.7718
vt 0.2135 0.7718
vt 0.2135 0.7092
vt 0.2135 0.7718
vt 0.1991 0.7718
vt 0.2844 0.7718
vt 0.2699 0.7718
vt 0.2699 0.7092
vt 0.2554 0.7092
vt 0.2699 0.7092
vt 0.2699 0.7718
vt 0.6824 0.6934
vt 0.6680 0.6921
vt 0.6824 0.3464
vt 0.6390 0.0000
vt 0.6535 0.0000
vt 0.6535 0.3464
vt 0.0424 0.3546
vt 0.0000 0.3546
vt 0.0000 0.7092
vt 0.0145 0.7092
vt 0.0145 1.0000
vt 0.6390 0.6934
vt 0.6535 0.6934
vt 0.6535 0.9842
vt 0.3743 0.0805
vt 0.3663 0.0689
vt 0.3619 0.0638
vt 0.3866 0.0990
vt 0.3195 0.0638
vt 0.5720 0.0990
vt 0.5844 0.0803
vt 0.5923 0.0689
vt 0.5966 0.0638
vt 0.6390 0.0000
vt 0.6390 0.0638
vt 0.5966 0.0000
vt 0.3195 0.0000
vt 0.3619 0.0000
vt 0.6680 0.3400
vt 0.6680 0.0064
vt 0.6717 0.0000
vt 0.6717 0.3464
vt 0.3195 0.6454
vt 0.3195 0.7092
vt 0.2771 0.7092
vt 0.2771 0.6454
vt 0.0000 0.7092
vt 0.0000 0.6454
vt 0.0424 0.6454
vt 0.0424 0.7092
vt 0.1846 0.7764
vt 0.1708 0.7160
vt 0.1846 0.7092
vt 0.1708 0.7764
vt 0.1571 0.7160
vt 0.1708 0.7092
vt 0.0724 0.7092
vt 0.0724 1.0000
vt 0.0579 1.0000
vt 0.0435 1.0000
vt 0.0290 1.0000
vt 0.1151 0.7764
vt 0.1014 0.7160
vt 0.1151 0.7092
vt 0.1289 0.7764
vt 0.1151 0.7160
vt 0.1289 0.7092
vt 0.2417 0.7753
vt 0.2280 0.7684
vt 0.2417 0.7092
vt 0.1991 0.7718
vt 0.1846 0.7718
vt 0.1846 0.7092
vt 0.2989 0.7092
vt 0.2989 0.7718
vt 0.2844 0.7718
vt 0.2554 0.7753
vt 0.2417 0.7161
vt 0.2554 0.7092
vt 0.6535 0.6934
vt 0.6390 0.3477
vt 0.6535 0.3464
vt 0.6680 0.6934
vt 0.6535 0.3477
vt 0.6680 0.3464
vt 0.0000 0.3546
vt 0.0000 0.3546
vt 0.6535 0.0000
vt 0.6680 0.0000
vt 0.6680 0.2908
vt 0.6535 0.6934
vt 0.6680 0.6934
vt 0.6680 0.9842
vn 0.0000 -0.0000 1.0000
vn 0.0000 -0.6495 0.7604
vn 0.0000 0.2893 0.9572
vn 0.2841 0.0000 0.9588
vn 0.2826 0.0001 0.9592
vn 0.2832 0.0001 0.9591
vn 0.2847 0.0000 0.9586
vn 0.0000 0.6520 0.7582
vn 0.0000 -0.2874 0.9578
vn -0.7308 -0.0000 0.6826
vn 0.0000 0.0000 -1.0000
vn 0.0000 1.0000 0.0000
vn 0.0000 -1.0000 0.0000
vn 1.0000 0.0000 0.0000
vn -0.2841 0.0000 0.9588
vn -0.2847 0.0000 0.9586
vn -0.2833 0.0001 0.9590
vn -0.2826 0.0001 0.9592
vn 0.7309 -0.0000 0.6825
vn -1.0000 0.0000 0.0000
usemtl Material.003
s 1
f 1/1/1 2/2/1 3/3/1
f 3/3/1 4/4/1 1/1/1
f 4/4/2 5/5/2 1/1/2
f 4/4/2 6/6/2 5/5/2
f 2/2/3 7/7/3 8/8/3
f 8/8/3 3/3/3 2/2/3
f 9/9/1 5/5/1 6/6/1
f 6/6/1 10/10/1 9/9/1
f 11/11/4 12/12/5 3/3/6
f 3/3/6 8/8/7 11/11/4
f 12/12/1 13/13/1 14/14/1
f 14/14/1 15/15/1 12/12/1
f 8/8/1 7/7/1 16/16/1
f 16/16/1 11/11/1 8/8/1
f 15/15/8 14/14/8 17/17/8
f 17/17/8 18/18/8 15/15/8
f 19/19/1 20/20/1 18/18/1
f 18/18/1 21/21/1 19/19/1
f 4/4/1 3/3/1 12/12/1
f 4/4/1 12/12/1 15/15/1
f 11/11/9 16/16/9 13/13/9
f 13/13/9 12/12/9 11/11/9
f 17/17/1 22/22/1 21/21/1
f 21/21/1 18/18/1 17/17/1
f 23/23/1 10/10/1 6/6/1
f 6/6/1 24/24/1 23/23/1
f 24/24/1 6/6/1 18/18/1
f 18/18/1 20/20/1 24/24/1
f 15/25/10 18/26/10 6/27/10
f 6/27/10 4/28/10 15/25/10
f 25/29/11 26/30/11 27/31/11
f 27/31/11 28/32/11 25/29/11
f 29/33/11 30/34/11 26/30/11
f 26/30/11 25/29/11 29/33/11
f 31/35/11 32/36/11 33/37/11
f 33/37/11 34/38/11 31/35/11
f 32/36/11 27/31/11 26/30/11
f 26/30/11 33/37/11 32/36/11
f 35/39/12 36/40/12 37/41/12
f 38/42/12 39/43/12 40/44/12
f 41/45/12 42/46/12 43/47/12
f 44/48/12 45/49/12 41/50/12
f 46/51/13 47/52/13 48/53/13
f 49/54/13 50/55/13 51/56/13
f 52/57/14 53/58/14 54/59/14
f 55/60/14 56/61/14 57/62/14
f 58/63/14 59/64/14 60/65/14
f 61/66/14 62/67/14 63/68/14
f 64/69/14 65/70/14 66/71/14
f 67/72/14 68/73/14 69/74/14
f 34/38/11 33/37/11 70/75/11
f 70/75/11 71/76/11 34/38/11
f 33/37/11 26/30/11 30/34/11
f 30/34/11 70/75/11 33/37/11
f 72/77/13 73/78/13 74/79/13
f 75/80/13 76/81/13 77/82/13
f 78/83/1 2/2/1 1/1/1
f 1/1/1 79/84/1 78/83/1
f 79/84/2 1/1/2 5/5/2
f 5/5/2 80/85/2 79/84/2
f 81/86/3 7/7/3 2/2/3
f 2/2/3 78/83/3 81/86/3
f 80/85/1 5/5/1 9/9/1
f 9/9/1 82/87/1 80/85/1
f 83/88/15 81/86/16 78/83/17
f 78/83/17 84/89/18 83/88/15
f 14/14/1 13/13/1 84/89/1
f 84/89/1 85/90/1 14/14/1
f 16/16/1 7/7/1 81/86/1
f 81/86/1 83/88/1 16/16/1
f 85/90/8 86/91/8 17/17/8
f 17/17/8 14/14/8 85/90/8
f 87/92/1 88/93/1 86/91/1
f 86/91/1 89/94/1 87/92/1
f 79/84/1 85/90/1 84/89/1
f 84/89/1 78/83/1 79/84/1
f 13/13/9 16/16/9 83/88/9
f 83/88/9 84/89/9 13/13/9
f 88/93/1 22/22/1 17/17/1
f 17/17/1 86/91/1 88/93/1
f 90/95/1 91/96/1 80/85/1
f 80/85/1 82/87/1 90/95/1
f 91/96/1 89/94/1 86/91/1
f 86/91/1 80/85/1 91/96/1
f 85/97/19 79/98/19 80/99/19
f 80/99/19 86/100/19 85/97/19
f 92/101/11 93/102/11 94/103/11
f 94/103/11 95/104/11 92/101/11
f 95/104/11 30/34/11 29/33/11
f 29/33/11 92/101/11 95/104/11
f 96/105/11 97/106/11 98/107/11
f 98/107/11 99/108/11 96/105/11
f 99/108/11 98/107/11 95/104/11
f 95/104/11 94/103/11 99/108/11
f 100/109/12 101/110/12 102/111/12
f 103/112/12 104/113/12 105/114/12
f 106/115/12 107/116/12 41/117/12
f 41/45/12 108/118/12 109/119/12
f 110/120/13 111/121/13 112/122/13
f 113/123/13 114/124/13 115/125/13
f 116/126/20 117/127/20 118/128/20
f 119/129/20 120/130/20 121/131/20
f 122/132/20 123/133/20 124/134/20
f 125/135/20 126/136/20 127/137/20
f 128/138/20 129/139/20 130/140/20
f 131/141/20 132/142/20 133/143/20
f 98/107/11 97/106/11 134/144/11
f 135/145/11 70/75/11 98/107/11
f 95/104/11 98/107/11 70/75/11
f 70/75/11 30/34/11 95/104/11
f 136/146/13 137/147/13 138/148/13
f 139/149/13 140/150/13 141/151/13
