# Blender v2.78 (sub 0) OBJ File: ''
# www.blender.org
mtllib IKEA.ART.30205420.mtl
o model_model.026
v 0.198500 0.998500 -0.008000
v -0.198500 0.998500 0.008000
v -0.198500 -0.998500 -0.008000
v 0.198500 -0.998500 -0.008000
v 0.198500 -0.998500 0.008000
v -0.198500 -0.998500 0.008000
v 0.198500 0.998500 0.008000
v -0.158445 0.950000 -0.008000
v -0.163440 0.962060 -0.008000
v -0.175500 0.967055 -0.008000
v -0.187560 0.962060 -0.008000
v -0.192555 0.950000 -0.008000
v -0.187560 0.937940 -0.008000
v -0.175500 0.932945 -0.008000
v -0.163440 0.937940 -0.008000
v -0.158445 0.950000 0.005000
v -0.163440 0.962060 0.005000
v -0.175500 0.967055 0.005000
v -0.187560 0.962060 0.005000
v -0.192555 0.950000 0.005000
v -0.187560 0.937940 0.005000
v -0.175500 0.932945 0.005000
v -0.163440 0.937940 0.005000
v -0.158445 0.350000 -0.008000
v -0.158445 0.350000 0.005000
v -0.163440 0.362060 0.005000
v -0.163440 0.362060 -0.008000
v -0.175500 0.367055 0.005000
v -0.175500 0.367055 -0.008000
v -0.187560 0.362060 0.005000
v -0.187560 0.362060 -0.008000
v -0.192555 0.350000 0.005000
v -0.192555 0.350000 -0.008000
v -0.187560 0.337940 0.005000
v -0.187560 0.337940 -0.008000
v -0.175500 0.332945 0.005000
v -0.175500 0.332945 -0.008000
v -0.163440 0.337940 0.005000
v -0.163440 0.337940 -0.008000
v -0.158445 -0.350001 -0.008000
v -0.158445 -0.350001 0.005000
v -0.163440 -0.337941 0.005000
v -0.163440 -0.337941 -0.008000
v -0.175500 -0.332946 0.005000
v -0.175500 -0.332946 -0.008000
v -0.187560 -0.337941 0.005000
v -0.187560 -0.337941 -0.008000
v -0.192555 -0.350001 0.005000
v -0.192555 -0.350001 -0.008000
v -0.187560 -0.362061 0.005000
v -0.187560 -0.362061 -0.008000
v -0.175500 -0.367056 0.005000
v -0.175500 -0.367056 -0.008000
v -0.163440 -0.362061 0.005000
v -0.163440 -0.362061 -0.008000
v -0.158445 -0.950000 -0.008000
v -0.158445 -0.950000 0.005000
v -0.163440 -0.937940 0.005000
v -0.163440 -0.937940 -0.008000
v -0.175500 -0.932945 0.005000
v -0.175500 -0.932945 -0.008000
v -0.187560 -0.937940 0.005000
v -0.187560 -0.937940 -0.008000
v -0.192555 -0.950000 0.005000
v -0.192555 -0.950000 -0.008000
v -0.187560 -0.962060 0.005000
v -0.187560 -0.962060 -0.008000
v -0.175500 -0.967055 0.005000
v -0.175500 -0.967055 -0.008000
v -0.163440 -0.962060 0.005000
v -0.163440 -0.962060 -0.008000
v -0.198500 0.998500 -0.008000
v 0.198500 -0.350002 0.008000
v -0.198500 -0.350001 0.008000
v -0.192555 -0.350002 0.005000
v -0.192555 -0.350002 -0.008000
v -0.158445 -0.350002 0.005000
v -0.158445 -0.350002 -0.008000
v -0.198500 -0.350002 -0.008000
v 0.198500 -0.350001 -0.008000
v -0.198500 0.349999 0.008000
v -0.192555 0.349999 0.005000
v -0.192555 0.349999 -0.008000
v -0.158445 0.350000 0.005000
v -0.158445 0.350000 -0.008000
v 0.198500 0.350013 -0.008000
v 0.198500 0.350013 0.008000
v -0.198500 0.349999 -0.008000
v -0.198500 0.998500 0.008000
v -0.198500 0.998500 0.008000
v -0.198500 0.998500 -0.008000
v 0.198500 -0.998500 0.008000
v 0.198500 -0.998500 -0.008000
v 0.198500 -0.998500 0.008000
v 0.198500 -0.998500 0.008000
v 0.198500 -0.350002 0.008000
v -0.198500 -0.998500 0.008000
v 0.198500 -0.998500 0.008000
v -0.175500 0.967055 -0.008000
v -0.175500 0.967055 -0.008000
v -0.175500 0.967055 0.005000
v -0.175500 0.967055 0.005000
v -0.163440 0.962060 0.005000
v -0.158445 0.950000 0.005000
v -0.158445 0.950000 0.005000
v -0.163440 0.937940 0.005000
v -0.175500 0.932945 0.005000
v -0.175500 0.932945 0.005000
v -0.187560 0.937940 0.005000
v -0.192555 0.950000 0.005000
v -0.158445 0.950000 0.005000
v -0.175500 0.932945 0.005000
v -0.192555 0.950000 0.005000
v -0.175500 0.967055 0.005000
v -0.158445 0.950000 0.005000
v -0.192555 0.950000 0.005000
v -0.175500 0.967055 0.005000
v -0.192555 0.950000 0.005000
v -0.187560 0.962060 0.005000
v -0.175500 0.367055 -0.008000
v -0.175500 0.367055 -0.008000
v -0.175500 0.367055 0.005000
v -0.192555 0.350000 0.005000
v -0.187560 0.362060 0.005000
v -0.175500 0.367055 0.005000
v -0.175500 0.367055 0.005000
v -0.163440 0.362060 0.005000
v -0.158445 0.350000 0.005000
v -0.158445 0.350000 0.005000
v -0.158445 0.350000 0.005000
v -0.192555 0.349999 0.005000
v -0.175500 0.367055 0.005000
v -0.158445 0.350000 0.005000
v -0.192555 0.349999 0.005000
v -0.192555 0.350000 0.005000
v -0.175500 0.367055 0.005000
v -0.192555 0.349999 0.005000
v -0.175500 -0.332946 -0.008000
v -0.175500 -0.332946 -0.008000
v -0.175500 -0.332946 0.005000
v -0.192555 -0.350001 0.005000
v -0.187560 -0.337941 0.005000
v -0.175500 -0.332946 0.005000
v -0.175500 -0.332946 0.005000
v -0.163440 -0.337941 0.005000
v -0.158445 -0.350001 0.005000
v -0.158445 -0.350001 0.005000
v -0.158445 -0.350002 0.005000
v -0.192555 -0.350002 0.005000
v -0.175500 -0.332946 0.005000
v -0.158445 -0.350001 0.005000
v -0.192555 -0.350002 0.005000
v -0.192555 -0.350001 0.005000
v -0.175500 -0.332946 0.005000
v -0.192555 -0.350002 0.005000
v -0.175500 -0.932945 -0.008000
v -0.175500 -0.932945 -0.008000
v -0.175500 -0.932945 0.005000
v -0.175500 -0.932945 0.005000
v -0.163440 -0.937940 0.005000
v -0.158445 -0.950000 0.005000
v -0.158445 -0.950000 0.005000
v -0.163440 -0.962060 0.005000
v -0.175500 -0.967055 0.005000
v -0.175500 -0.967055 0.005000
v -0.187560 -0.962060 0.005000
v -0.192555 -0.950000 0.005000
v -0.158445 -0.950000 0.005000
v -0.175500 -0.967055 0.005000
v -0.192555 -0.950000 0.005000
v -0.175500 -0.932945 0.005000
v -0.158445 -0.950000 0.005000
v -0.192555 -0.950000 0.005000
v -0.175500 -0.932945 0.005000
v -0.192555 -0.950000 0.005000
v -0.187560 -0.937940 0.005000
v -0.175500 0.332945 -0.008000
v -0.163440 0.337940 -0.008000
v -0.163440 -0.337941 -0.008000
v -0.192555 -0.350001 -0.008000
v -0.192555 -0.350002 -0.008000
v -0.187560 -0.337941 -0.008000
v -0.192555 -0.350001 -0.008000
v -0.198500 0.349999 -0.008000
v -0.192555 0.349999 -0.008000
v -0.192555 0.349999 -0.008000
v -0.187560 0.337940 -0.008000
v -0.187560 -0.337941 -0.008000
v -0.187560 0.337940 -0.008000
v -0.175500 -0.332946 -0.008000
v -0.187560 -0.337941 -0.008000
v -0.187560 0.337940 -0.008000
v -0.163440 -0.337941 -0.008000
v -0.175500 -0.332946 -0.008000
v -0.187560 0.337940 -0.008000
v -0.175500 0.332945 -0.008000
v -0.163440 -0.337941 -0.008000
v -0.187560 0.337940 -0.008000
v -0.198500 -0.998500 -0.008000
v -0.175500 -0.967055 -0.008000
v -0.163440 -0.962060 -0.008000
v -0.163440 -0.962060 -0.008000
v 0.198500 -0.998500 -0.008000
v -0.198500 -0.998500 -0.008000
v -0.158445 0.350000 -0.008000
v -0.163440 0.362060 -0.008000
v -0.163440 0.937940 -0.008000
v -0.158445 0.350000 -0.008000
v -0.163440 0.937940 -0.008000
v -0.158445 0.950000 -0.008000
v -0.163440 0.962060 -0.008000
v -0.175500 0.967055 -0.008000
v -0.198500 0.998500 -0.008000
v -0.163440 0.962060 -0.008000
v -0.198500 0.998500 -0.008000
v 0.198500 0.998500 -0.008000
v -0.158445 0.950000 -0.008000
v -0.163440 0.962060 -0.008000
v 0.198500 0.998500 -0.008000
v -0.158445 0.350000 -0.008000
v -0.158445 0.950000 -0.008000
v 0.198500 0.998500 -0.008000
v -0.158445 0.350000 -0.008000
v 0.198500 0.998500 -0.008000
v -0.158445 0.350000 -0.008000
v -0.158445 0.350000 -0.008000
v 0.198500 0.350013 -0.008000
v 0.198500 0.350013 -0.008000
v -0.198500 -0.998500 -0.008000
v -0.198500 -0.998500 0.008000
v -0.198500 -0.350001 0.008000
v -0.198500 -0.350001 0.008000
v -0.198500 -0.350002 -0.008000
v -0.198500 -0.998500 -0.008000
v 0.198500 0.350013 0.008000
v -0.198500 0.349999 0.008000
v 0.198500 -0.350002 0.008000
v 0.198500 0.350013 0.008000
v -0.192555 -0.350002 0.005000
v -0.158445 -0.350002 0.005000
v -0.163440 -0.362061 0.005000
v -0.192555 -0.350002 0.005000
v -0.163440 -0.362061 0.005000
v -0.175500 -0.367056 0.005000
v -0.192555 -0.350002 0.005000
v -0.175500 -0.367056 0.005000
v -0.187560 -0.362061 0.005000
v -0.175500 -0.367056 -0.008000
v -0.163440 -0.362061 -0.008000
v -0.163440 -0.937940 -0.008000
v -0.187560 -0.962060 -0.008000
v -0.175500 -0.967055 -0.008000
v -0.198500 -0.998500 -0.008000
v -0.192555 -0.950000 -0.008000
v -0.187560 -0.962060 -0.008000
v -0.198500 -0.998500 -0.008000
v -0.198500 -0.998500 -0.008000
v -0.192555 -0.350002 -0.008000
v -0.198500 -0.998500 -0.008000
v -0.192555 -0.350002 -0.008000
v -0.187560 -0.362061 -0.008000
v -0.192555 -0.950000 -0.008000
v -0.198500 -0.998500 -0.008000
v -0.187560 -0.362061 -0.008000
v -0.187560 -0.937940 -0.008000
v -0.192555 -0.950000 -0.008000
v -0.187560 -0.362061 -0.008000
v -0.175500 -0.932945 -0.008000
v -0.187560 -0.937940 -0.008000
v -0.187560 -0.362061 -0.008000
v -0.163440 -0.937940 -0.008000
v -0.175500 -0.932945 -0.008000
v -0.187560 -0.362061 -0.008000
v -0.175500 -0.367056 -0.008000
v -0.163440 -0.937940 -0.008000
v -0.187560 -0.362061 -0.008000
v 0.198500 -0.350001 -0.008000
v 0.198500 -0.998500 -0.008000
v -0.163440 -0.962060 -0.008000
v 0.198500 -0.350001 -0.008000
v -0.163440 -0.962060 -0.008000
v -0.158445 -0.950000 -0.008000
v -0.158445 -0.950000 -0.008000
v -0.163440 -0.937940 -0.008000
v -0.163440 -0.362061 -0.008000
v 0.198500 -0.350001 -0.008000
v -0.158445 -0.950000 -0.008000
v -0.163440 -0.362061 -0.008000
v 0.198500 -0.350001 -0.008000
v -0.163440 -0.362061 -0.008000
v -0.158445 -0.350002 -0.008000
v -0.198500 -0.350002 -0.008000
v -0.198500 -0.350001 0.008000
v -0.198500 -0.350002 -0.008000
v -0.192555 0.349999 0.005000
v -0.158445 0.350000 0.005000
v -0.163440 0.337940 0.005000
v -0.192555 0.349999 0.005000
v -0.163440 0.337940 0.005000
v -0.175500 0.332945 0.005000
v -0.192555 0.349999 0.005000
v -0.175500 0.332945 0.005000
v -0.187560 0.337940 0.005000
v -0.198500 0.998500 -0.008000
v -0.175500 0.967055 -0.008000
v -0.187560 0.962060 -0.008000
v -0.198500 0.998500 -0.008000
v -0.187560 0.962060 -0.008000
v -0.192555 0.950000 -0.008000
v -0.175500 0.932945 -0.008000
v -0.163440 0.937940 -0.008000
v -0.163440 0.362060 -0.008000
v -0.187560 0.937940 -0.008000
v -0.175500 0.932945 -0.008000
v -0.163440 0.362060 -0.008000
v -0.192555 0.950000 -0.008000
v -0.187560 0.937940 -0.008000
v -0.163440 0.362060 -0.008000
v -0.198500 0.998500 -0.008000
v -0.192555 0.950000 -0.008000
v -0.163440 0.362060 -0.008000
v -0.198500 0.998500 -0.008000
v -0.163440 0.362060 -0.008000
v -0.175500 0.367055 -0.008000
v -0.198500 0.998500 -0.008000
v -0.175500 0.367055 -0.008000
v -0.187560 0.362060 -0.008000
v -0.192555 0.350000 -0.008000
v -0.192555 0.349999 -0.008000
v -0.198500 0.349999 -0.008000
v -0.187560 0.362060 -0.008000
v -0.192555 0.350000 -0.008000
v -0.198500 0.349999 -0.008000
v -0.198500 0.998500 -0.008000
v -0.187560 0.362060 -0.008000
v -0.198500 0.349999 -0.008000
v 0.198500 -0.350001 -0.008000
v -0.158445 -0.350002 -0.008000
v -0.158445 -0.350002 -0.008000
v -0.158445 -0.350001 -0.008000
v -0.158445 -0.350001 -0.008000
v -0.163440 -0.337941 -0.008000
v -0.163440 0.337940 -0.008000
v -0.158445 -0.350001 -0.008000
v -0.163440 0.337940 -0.008000
v -0.163440 0.337940 -0.008000
v -0.158445 0.350000 -0.008000
v 0.198500 0.998500 -0.008000
v 0.198500 0.998500 0.008000
v 0.198500 0.350013 -0.008000
v 0.198500 0.998500 -0.008000
v 0.198500 0.998500 0.008000
v -0.198500 0.998500 0.008000
v -0.198500 0.349999 0.008000
v -0.198500 0.349999 0.008000
v 0.198500 0.350013 0.008000
v 0.198500 0.998500 0.008000
vt 255.1479 2031.6693
vt 255.1479 2044.6693
vt 268.9055 2044.6693
vt 268.9055 2031.6693
vt 241.3904 2031.6693
vt 241.3904 2044.6693
vt 337.6929 2031.6693
vt 337.6929 2044.6693
vt 351.4503 2044.6693
vt 351.4503 2044.6693
vt 351.4503 2031.6693
vt 323.9356 2031.6693
vt 323.9356 2044.6693
vt 310.1783 2031.6693
vt 310.1783 2044.6693
vt 296.4209 2031.6693
vt 296.4209 2044.6693
vt 282.6633 2031.6693
vt 282.6633 2044.6693
vt 1075.3630 1971.3116
vt 1087.4229 1966.3163
vt 1092.4182 1954.2565
vt 1092.4182 1954.2565
vt 1087.4229 1942.1967
vt 1075.3630 1937.2013
vt 1075.3630 1937.2013
vt 1063.3032 1942.1967
vt 1058.3079 1954.2565
vt 1092.4182 1954.2565
vt 1075.3630 1937.2013
vt 1058.3079 1954.2565
vt 1075.3630 1971.3116
vt 1092.4182 1954.2565
vt 1058.3079 1954.2565
vt 1075.3630 1971.3116
vt 1058.3079 1954.2565
vt 1063.3032 1966.3163
vt 254.7923 2031.5692
vt 254.7923 2044.5692
vt 268.1490 2044.5692
vt 268.1490 2031.5692
vt 241.4355 2031.5692
vt 241.4355 2044.5692
vt 334.9330 2031.5692
vt 334.9330 2044.5692
vt 348.2897 2044.5692
vt 348.2897 2044.5692
vt 348.2897 2031.5692
vt 321.5762 2031.5692
vt 321.5762 2044.5692
vt 321.5751 2031.5692
vt 321.5751 2044.5692
vt 294.8626 2031.5692
vt 294.8626 2044.5692
vt 308.2194 2044.5692
vt 308.2194 2031.5692
vt 281.5059 2031.5692
vt 281.5059 2044.5692
vt 268.1491 2031.5692
vt 268.1491 2044.5692
vt 1058.3079 1354.2565
vt 1063.3032 1366.3163
vt 1075.3630 1371.3116
vt 1075.3630 1371.3116
vt 1087.4229 1366.3163
vt 1092.4182 1354.2565
vt 1092.4182 1354.2565
vt 1092.4181 1354.2565
vt 1058.3082 1354.2555
vt 1075.3630 1371.3116
vt 1092.4182 1354.2565
vt 1058.3082 1354.2555
vt 1058.3079 1354.2565
vt 1075.3630 1371.3116
vt 1058.3082 1354.2555
vt 254.7923 2031.5692
vt 254.7923 2044.5692
vt 268.1490 2044.5692
vt 268.1490 2031.5692
vt 241.4355 2031.5692
vt 241.4355 2044.5692
vt 334.9330 2031.5692
vt 334.9330 2044.5692
vt 348.2898 2044.5692
vt 348.2898 2044.5692
vt 348.2898 2031.5692
vt 321.5762 2031.5692
vt 321.5762 2044.5692
vt 321.5754 2031.5692
vt 321.5754 2044.5692
vt 294.8626 2031.5692
vt 294.8626 2044.5692
vt 308.2195 2044.5692
vt 308.2195 2031.5692
vt 281.5059 2031.5692
vt 281.5059 2044.5692
vt 268.1498 2031.5692
vt 268.1498 2044.5692
vt 1058.3079 654.2565
vt 1063.3032 666.3163
vt 1075.3630 671.3117
vt 1075.3630 671.3117
vt 1087.4229 666.3163
vt 1092.4182 654.2565
vt 1092.4182 654.2565
vt 1092.4178 654.2558
vt 1058.3082 654.2558
vt 1075.3630 671.3117
vt 1092.4182 654.2565
vt 1058.3082 654.2558
vt 1058.3079 654.2565
vt 1075.3630 671.3117
vt 1058.3082 654.2558
vt 254.7922 2031.5692
vt 254.7922 2044.5692
vt 268.1490 2044.5692
vt 268.1490 2031.5692
vt 241.4355 2031.5692
vt 241.4355 2044.5692
vt 334.9327 2031.5692
vt 334.9327 2044.5692
vt 348.2895 2044.5692
vt 348.2895 2044.5692
vt 348.2894 2031.5692
vt 321.5760 2031.5692
vt 321.5760 2044.5692
vt 308.2192 2031.5692
vt 308.2192 2044.5692
vt 294.8625 2031.5692
vt 294.8625 2044.5692
vt 281.5057 2031.5692
vt 281.5057 2044.5692
vt 1075.3630 71.3117
vt 1087.4229 66.3165
vt 1092.4182 54.2566
vt 1092.4182 54.2566
vt 1087.4229 42.1968
vt 1075.3630 37.2016
vt 1075.3630 37.2016
vt 1063.3032 42.1968
vt 1058.3079 54.2566
vt 1092.4182 54.2566
vt 1075.3630 37.2016
vt 1058.3079 54.2566
vt 1075.3630 71.3117
vt 1092.4182 54.2566
vt 1058.3079 54.2566
vt 1075.3630 71.3117
vt 1058.3079 54.2566
vt 1063.3032 66.3165
vt 1058.3082 654.2558
vt 1092.4178 654.2558
vt 1087.4229 642.1967
vt 1058.3082 654.2558
vt 1087.4229 642.1967
vt 1075.3630 637.2014
vt 1058.3082 654.2558
vt 1075.3630 637.2014
vt 1063.3032 642.1967
vt 1058.3082 1354.2555
vt 1092.4181 1354.2565
vt 1087.4229 1342.1967
vt 1058.3082 1354.2555
vt 1087.4229 1342.1967
vt 1075.3630 1337.2013
vt 1058.3082 1354.2555
vt 1075.3630 1337.2013
vt 1063.3032 1342.1967
vt 883.9165 648.8220
vt 901.8711 648.8220
vt 901.8712 -0.1764
vt 883.9165 -0.1764
vt 941.1818 -0.0082
vt 923.2271 396.9818
vt 923.2268 -0.0082
vt 941.1819 396.9818
vt 846.5952 1348.1073
vt 864.5500 1348.1073
vt 864.5502 1997.1084
vt 864.5502 1997.1084
vt 846.5952 1997.1084
vt 958.6110 396.8325
vt 958.6107 -0.1576
vt 976.5657 -0.1576
vt 976.5658 396.8325
vt 958.6110 396.8325
vt 392.8752 -1.8283
vt 392.8752 647.1701
vt -4.1248 647.1702
vt -4.1248 -1.8283
vt 392.8752 -1.8283
vt 767.7128 1329.5402
vt 755.6531 1334.5355
vt 755.6530 659.6543
vt 784.7679 647.5945
vt 784.7676 647.5938
vt 790.7126 647.5938
vt 779.7726 659.6543
vt 784.7679 647.5945
vt 790.7126 1346.5942
vt 784.7676 1346.5944
vt 784.7676 1346.5944
vt 779.7726 1334.5355
vt 779.7726 659.6543
vt 779.7726 1334.5355
vt 767.7128 664.6497
vt 779.7726 659.6543
vt 779.7726 1334.5355
vt 755.6530 659.6543
vt 767.7128 664.6497
vt 779.7726 1334.5355
vt 767.7128 1329.5402
vt 755.6530 659.6543
vt 779.7726 1334.5355
vt 790.7126 -1.4047
vt 767.7129 30.0404
vt 755.6531 35.0356
vt 755.6531 35.0356
vt 393.7026 -1.4046
vt 790.7126 -1.4047
vt 750.6577 1346.5953
vt 755.6530 1358.6552
vt 755.6531 1935.0355
vt 750.6577 1346.5953
vt 755.6531 1935.0355
vt 750.6577 1947.0953
vt 755.6531 1959.1552
vt 767.7128 1964.1505
vt 790.7126 1995.5953
vt 755.6531 1959.1552
vt 790.7126 1995.5953
vt 393.7026 1995.5953
vt 750.6577 1947.0953
vt 755.6531 1959.1552
vt 393.7026 1995.5953
vt 750.6577 1346.5953
vt 750.6577 1947.0953
vt 393.7026 1995.5953
vt 750.6577 1346.5953
vt 393.7026 1995.5953
vt 393.7026 1346.6085
vt 750.6577 1346.5953
vt 750.6577 1346.5952
vt 883.9165 1347.8369
vt 901.8713 1347.8370
vt 883.9165 1347.8369
vt 846.5952 0.1084
vt 864.5502 0.1084
vt 864.5500 649.1069
vt 864.5500 649.1069
vt 846.5952 649.1069
vt 846.5952 0.1084
vt 392.8752 1346.1849
vt -4.1248 1346.1705
vt 392.8752 647.1701
vt 392.8752 1346.1849
vt 767.7128 630.5393
vt 755.6531 635.5347
vt 755.6530 59.1553
vt 779.7726 35.0356
vt 767.7129 30.0404
vt 790.7126 -1.4047
vt 784.7679 47.0954
vt 779.7726 35.0356
vt 790.7126 -1.4047
vt 790.7126 -1.4047
vt 784.7676 647.5938
vt 790.7126 -1.4047
vt 784.7676 647.5938
vt 779.7726 635.5347
vt 784.7679 47.0954
vt 790.7126 -1.4047
vt 779.7726 635.5347
vt 779.7726 59.1553
vt 784.7679 47.0954
vt 779.7726 635.5347
vt 767.7128 64.1505
vt 779.7726 59.1553
vt 779.7726 635.5347
vt 755.6530 59.1553
vt 767.7128 64.1505
vt 779.7726 635.5347
vt 767.7128 630.5393
vt 755.6530 59.1553
vt 779.7726 635.5347
vt 393.7026 647.5938
vt 393.7026 -1.4046
vt 755.6531 35.0356
vt 393.7026 647.5938
vt 755.6531 35.0356
vt 750.6577 47.0954
vt 750.6577 47.0954
vt 755.6530 59.1553
vt 755.6531 635.5347
vt 393.7026 647.5938
vt 750.6577 47.0954
vt 755.6531 635.5347
vt 393.7026 647.5938
vt 755.6531 635.5347
vt 750.6580 647.5938
vt 846.5952 649.1069
vt 864.5500 649.1069
vt 846.5952 649.1069
vt 790.7126 1995.5953
vt 767.7128 1964.1505
vt 779.7726 1959.1552
vt 790.7126 1995.5953
vt 779.7726 1959.1552
vt 784.7679 1947.0953
vt 767.7128 1930.0402
vt 755.6531 1935.0355
vt 755.6530 1358.6552
vt 779.7726 1935.0355
vt 767.7128 1930.0402
vt 755.6530 1358.6552
vt 784.7679 1947.0953
vt 779.7726 1935.0355
vt 755.6530 1358.6552
vt 790.7126 1995.5953
vt 784.7679 1947.0953
vt 755.6530 1358.6552
vt 790.7126 1995.5953
vt 755.6530 1358.6552
vt 767.7128 1363.6505
vt 790.7126 1995.5953
vt 767.7128 1363.6505
vt 779.7726 1358.6552
vt 784.7679 1346.5953
vt 784.7676 1346.5944
vt 790.7126 1346.5942
vt 779.7726 1358.6552
vt 784.7679 1346.5953
vt 790.7126 1346.5942
vt 790.7126 1995.5953
vt 779.7726 1358.6552
vt 790.7126 1346.5942
vt 393.7026 647.5938
vt 750.6580 647.5938
vt 750.6580 647.5938
vt 750.6577 647.5945
vt 750.6577 647.5945
vt 755.6530 659.6543
vt 755.6531 1334.5355
vt 750.6577 647.5945
vt 755.6531 1334.5355
vt 755.6531 1334.5355
vt 750.6577 1346.5952
vt 883.9165 1996.8237
vt 901.8715 1996.8237
vt 883.9165 1347.8369
vt 883.9165 1996.8237
vt 392.8752 1995.1718
vt -4.1248 1995.1718
vt -4.1248 1346.1705
vt -4.1248 1346.1705
vt 392.8752 1346.1849
vt 392.8752 1995.1718
vn -0.9239 -0.3827 0.0000
vn -0.3827 -0.9239 0.0000
vn 0.3827 -0.9239 0.0000
vn 0.9239 -0.3827 0.0000
vn 0.9239 0.3827 0.0000
vn 0.3827 0.9239 0.0000
vn -0.3827 0.9239 0.0000
vn -0.9239 0.3827 0.0000
vn 0.0000 0.0000 -1.0000
vn 0.9417 0.3365 0.0000
vn 0.9163 0.4005 0.0000
vn 0.9333 0.3590 -0.0000
vn 0.9178 0.3971 -0.0000
vn -0.9333 0.3590 0.0000
vn -0.9178 0.3971 0.0000
vn -0.8571 0.5151 0.0000
vn 1.0000 0.0000 0.0000
vn 0.0000 1.0000 0.0000
vn -1.0000 -0.0000 0.0000
vn 0.0000 -1.0000 0.0000
vn 0.0000 -0.0000 1.0000
vn -0.0000 -0.0012 -1.0000
vn -0.0032 -0.0000 -1.0000
usemtl MAT003775V1-ICOM
s off
f 17/1/1 9/2/1 8/3/1
f 8/3/1 16/4/1 17/1/1
f 18/5/2 10/6/2 9/2/2
f 9/2/2 17/1/2 18/5/2
f 19/7/3 11/8/3 99/9/3
f 100/10/3 101/11/3 19/7/3
f 20/12/4 12/13/4 11/8/4
f 11/8/4 19/7/4 20/12/4
f 21/14/5 13/15/5 12/13/5
f 12/13/5 20/12/5 21/14/5
f 22/16/6 14/17/6 13/15/6
f 13/15/6 21/14/6 22/16/6
f 23/18/7 15/19/7 14/17/7
f 14/17/7 22/16/7 23/18/7
f 16/4/8 8/3/8 15/19/8
f 15/19/8 23/18/8 16/4/8
f 102/20/9 103/21/9 104/22/9
f 105/23/9 106/24/9 107/25/9
f 108/26/9 109/27/9 110/28/9
f 111/29/9 112/30/9 113/31/9
f 114/32/9 115/33/9 116/34/9
f 117/35/9 118/36/9 119/37/9
f 26/38/1 27/39/1 24/40/1
f 24/40/1 25/41/1 26/38/1
f 28/42/2 29/43/2 27/39/2
f 27/39/2 26/38/2 28/42/2
f 30/44/3 31/45/3 120/46/3
f 121/47/3 122/48/3 30/44/3
f 32/49/4 33/50/4 31/45/4
f 31/45/4 30/44/4 32/49/4
f 32/49/10 82/51/10 83/52/10
f 83/52/11 33/50/11 32/49/11
f 36/53/6 37/54/6 35/55/6
f 35/55/6 34/56/6 36/53/6
f 38/57/7 39/58/7 37/54/7
f 37/54/7 36/53/7 38/57/7
f 38/57/8 84/59/8 85/60/8
f 85/60/8 39/58/8 38/57/8
f 123/61/9 124/62/9 125/63/9
f 126/64/9 127/65/9 128/66/9
f 129/67/9 130/68/9 131/69/9
f 132/70/9 133/71/9 134/72/9
f 135/73/9 136/74/9 137/75/9
f 42/76/1 43/77/1 40/78/1
f 40/78/1 41/79/1 42/76/1
f 44/80/2 45/81/2 43/77/2
f 43/77/2 42/76/2 44/80/2
f 46/82/3 47/83/3 138/84/3
f 139/85/3 140/86/3 46/82/3
f 48/87/4 49/88/4 47/83/4
f 47/83/4 46/82/4 48/87/4
f 48/87/12 75/89/12 76/90/12
f 76/90/13 49/88/13 48/87/13
f 52/91/6 53/92/6 51/93/6
f 51/93/6 50/94/6 52/91/6
f 54/95/7 55/96/7 53/92/7
f 53/92/7 52/91/7 54/95/7
f 54/95/8 77/97/8 78/98/8
f 78/98/8 55/96/8 54/95/8
f 141/99/9 142/100/9 143/101/9
f 144/102/9 145/103/9 146/104/9
f 147/105/9 148/106/9 149/107/9
f 150/108/9 151/109/9 152/110/9
f 153/111/9 154/112/9 155/113/9
f 58/114/1 59/115/1 56/116/1
f 56/116/1 57/117/1 58/114/1
f 60/118/2 61/119/2 59/115/2
f 59/115/2 58/114/2 60/118/2
f 62/120/3 63/121/3 156/122/3
f 157/123/3 158/124/3 62/120/3
f 64/125/4 65/126/4 63/121/4
f 63/121/4 62/120/4 64/125/4
f 66/127/5 67/128/5 65/126/5
f 65/126/5 64/125/5 66/127/5
f 68/129/6 69/130/6 67/128/6
f 67/128/6 66/127/6 68/129/6
f 70/131/7 71/132/7 69/130/7
f 69/130/7 68/129/7 70/131/7
f 57/117/8 56/116/8 71/132/8
f 71/132/8 70/131/8 57/117/8
f 159/133/9 160/134/9 161/135/9
f 162/136/9 163/137/9 164/138/9
f 165/139/9 166/140/9 167/141/9
f 168/142/9 169/143/9 170/144/9
f 171/145/9 172/146/9 173/147/9
f 174/148/9 175/149/9 176/150/9
f 50/94/5 51/93/5 76/90/5
f 76/90/5 75/89/5 50/94/5
f 41/79/14 40/78/14 78/98/14
f 78/98/15 77/97/15 41/79/15
f 239/151/9 240/152/9 241/153/9
f 242/154/9 243/155/9 244/156/9
f 245/157/9 246/158/9 247/159/9
f 34/56/5 35/55/5 83/52/5
f 83/52/5 82/51/5 34/56/5
f 25/41/16 24/40/16 85/60/16
f 85/60/16 84/59/16 25/41/16
f 295/160/9 296/161/9 297/162/9
f 298/163/9 299/164/9 300/165/9
f 301/166/9 302/167/9 303/168/9
usemtl MAT003015V1-Appl
f 80/169/17 73/170/17 5/171/17
f 5/171/17 4/172/17 80/169/17
f 1/173/18 2/174/18 7/175/18
f 1/173/18 72/176/18 2/174/18
f 88/177/19 81/178/19 89/179/19
f 90/180/19 91/181/19 88/177/19
f 92/182/20 6/183/20 3/184/20
f 3/184/20 93/185/20 94/186/20
f 95/187/21 96/188/21 74/189/21
f 74/189/21 97/190/21 98/191/21
f 177/192/9 178/193/9 179/194/9
f 180/195/22 181/196/22 79/197/22
f 182/198/9 183/199/9 79/197/9
f 79/197/9 184/200/9 185/201/9
f 79/197/9 186/202/9 187/203/9
f 188/204/9 79/197/9 189/205/9
f 190/206/9 191/207/9 192/208/9
f 193/209/9 194/210/9 195/211/9
f 196/212/9 197/213/9 198/214/9
f 199/215/9 200/216/9 201/217/9
f 202/218/9 203/219/9 204/220/9
f 205/221/9 206/222/9 207/223/9
f 208/224/9 209/225/9 210/226/9
f 211/227/9 212/228/9 213/229/9
f 214/230/9 215/231/9 216/232/9
f 217/233/9 218/234/9 219/235/9
f 220/236/9 221/237/9 222/238/9
f 223/239/9 224/240/9 86/241/9
f 225/242/9 86/241/9 226/243/9
f 227/244/17 87/245/17 73/170/17
f 73/170/17 80/169/17 228/246/17
f 229/247/19 230/248/19 231/249/19
f 232/250/19 233/251/19 234/252/19
f 235/253/21 236/254/21 74/189/21
f 74/189/21 237/255/21 238/256/21
f 248/257/9 249/258/9 250/259/9
f 251/260/9 252/261/9 253/262/9
f 254/263/9 255/264/9 256/265/9
f 257/266/9 79/197/9 258/267/9
f 259/268/9 260/269/9 261/270/9
f 262/271/9 263/272/9 264/273/9
f 265/274/9 266/275/9 267/276/9
f 268/277/9 269/278/9 270/279/9
f 271/280/9 272/281/9 273/282/9
f 274/283/9 275/284/9 276/285/9
f 277/286/9 278/287/9 279/288/9
f 280/289/9 281/290/9 282/291/9
f 283/292/9 284/293/9 285/294/9
f 286/295/9 287/296/9 288/297/9
f 289/298/9 290/299/9 291/300/9
f 292/301/19 293/302/19 81/178/19
f 81/178/19 88/177/19 294/303/19
f 304/304/9 305/305/9 306/306/9
f 307/307/9 308/308/9 309/309/9
f 310/310/9 311/311/9 312/312/9
f 313/313/9 314/314/9 315/315/9
f 316/316/9 317/317/9 318/318/9
f 319/319/9 320/320/9 321/321/9
f 322/322/9 323/323/9 324/324/9
f 325/325/9 326/326/9 327/327/9
f 328/328/9 329/329/9 330/330/9
f 331/331/9 332/332/9 333/333/9
f 334/334/9 335/335/9 336/336/9
f 86/241/9 337/337/9 338/338/9
f 86/241/23 339/339/23 340/340/23
f 341/341/9 342/342/9 343/343/9
f 86/241/9 344/344/9 345/345/9
f 86/241/9 346/346/9 347/347/9
f 348/348/17 349/349/17 87/245/17
f 87/245/17 350/350/17 351/351/17
f 352/352/21 353/353/21 354/354/21
f 355/355/21 356/356/21 357/357/21
